G04 (Genere par PCBnew (20080825c)) le 9/4/2009-07:30:29*
G01*
G70*
G90*
%MOIN*%
G04 Gerber Fmt 3.4, Leading zero omitted, Abs format*
%FSLAX34Y34*%
G04 APERTURE LIST*
%ADD10C,0.012000*%
%ADD11C,0.015000*%
%ADD12R,0.055000X0.055000*%
%ADD13C,0.055000*%
%ADD14R,0.100000X0.100000*%
%ADD15C,0.100000*%
%ADD16R,0.060000X0.060000*%
%ADD17C,0.060000*%
%ADD18R,0.070000X0.070000*%
%ADD19C,0.070000*%
%ADD20R,0.350000X0.350000*%
%ADD21C,0.160000*%
%ADD22C,0.045000*%
%ADD23C,0.050000*%
%ADD24C,0.002500*%
G04 APERTURE END LIST*
G54D10*
X63300Y-43482D02*
X63345Y-43482D01*
X63478Y-43482D02*
X63656Y-43482D01*
X63656Y-43482D02*
X63700Y-43519D01*
X63700Y-43519D02*
X63700Y-43557D01*
X63700Y-43822D02*
X63434Y-43822D01*
X63478Y-43822D02*
X63434Y-43860D01*
X63434Y-43860D02*
X63434Y-44010D01*
X63434Y-44010D02*
X63478Y-44047D01*
X63478Y-44047D02*
X63700Y-44047D01*
X63300Y-44538D02*
X63700Y-44538D01*
X63700Y-44538D02*
X63700Y-44313D01*
X63700Y-44313D02*
X63656Y-44275D01*
X63656Y-44275D02*
X63478Y-44275D01*
X63478Y-44275D02*
X63434Y-44313D01*
X63434Y-44313D02*
X63434Y-44538D01*
X63434Y-44728D02*
X63612Y-44728D01*
X63612Y-44728D02*
X63700Y-44803D01*
X63700Y-44803D02*
X63700Y-44916D01*
X63700Y-44916D02*
X63612Y-44991D01*
X63612Y-44991D02*
X63434Y-44991D01*
X63656Y-45181D02*
X63700Y-45219D01*
X63700Y-45219D02*
X63700Y-45406D01*
X63700Y-45406D02*
X63656Y-45444D01*
X63656Y-45444D02*
X63612Y-45444D01*
X63612Y-45444D02*
X63567Y-45406D01*
X63567Y-45406D02*
X63567Y-45219D01*
X63567Y-45219D02*
X63523Y-45181D01*
X63523Y-45181D02*
X63478Y-45181D01*
X63478Y-45181D02*
X63434Y-45219D01*
X63434Y-45219D02*
X63434Y-45406D01*
X63434Y-45406D02*
X63478Y-45444D01*
X63656Y-45859D02*
X63700Y-45822D01*
X63700Y-45822D02*
X63700Y-45709D01*
X63700Y-45709D02*
X63656Y-45672D01*
X63656Y-45672D02*
X63300Y-45672D01*
X63434Y-45672D02*
X63434Y-45784D01*
X63700Y-46087D02*
X63434Y-46087D01*
X63523Y-46087D02*
X63434Y-46162D01*
X63434Y-46162D02*
X63434Y-46275D01*
X63434Y-46275D02*
X63523Y-46350D01*
X63300Y-46653D02*
X63345Y-46653D01*
X63478Y-46653D02*
X63656Y-46653D01*
X63656Y-46653D02*
X63700Y-46690D01*
X63700Y-46690D02*
X63700Y-46728D01*
X63434Y-46993D02*
X63434Y-47218D01*
X63434Y-47218D02*
X63478Y-47256D01*
X63478Y-47256D02*
X63700Y-47256D01*
X63700Y-47256D02*
X63700Y-47031D01*
X63700Y-47031D02*
X63656Y-46993D01*
X63656Y-46993D02*
X63612Y-46993D01*
X63612Y-46993D02*
X63567Y-47031D01*
X63567Y-47031D02*
X63567Y-47256D01*
X63300Y-47521D02*
X63300Y-47559D01*
X63300Y-47559D02*
X63700Y-47559D01*
X63700Y-47521D02*
X63700Y-47596D01*
X63567Y-47899D02*
X63567Y-48162D01*
X63567Y-48162D02*
X63478Y-48162D01*
X63478Y-48162D02*
X63434Y-48124D01*
X63434Y-48124D02*
X63434Y-47937D01*
X63434Y-47937D02*
X63478Y-47899D01*
X63478Y-47899D02*
X63656Y-47899D01*
X63656Y-47899D02*
X63700Y-47937D01*
X63700Y-47937D02*
X63700Y-48124D01*
X63700Y-48124D02*
X63656Y-48162D01*
X63656Y-48352D02*
X63700Y-48390D01*
X63700Y-48390D02*
X63700Y-48577D01*
X63700Y-48577D02*
X63656Y-48615D01*
X63656Y-48615D02*
X63612Y-48615D01*
X63612Y-48615D02*
X63567Y-48577D01*
X63567Y-48577D02*
X63567Y-48390D01*
X63567Y-48390D02*
X63523Y-48352D01*
X63523Y-48352D02*
X63478Y-48352D01*
X63478Y-48352D02*
X63434Y-48390D01*
X63434Y-48390D02*
X63434Y-48577D01*
X63434Y-48577D02*
X63478Y-48615D01*
X62700Y-43369D02*
X62434Y-43369D01*
X62523Y-43369D02*
X62434Y-43444D01*
X62434Y-43444D02*
X62434Y-43557D01*
X62434Y-43557D02*
X62523Y-43632D01*
X62567Y-43822D02*
X62567Y-44085D01*
X62567Y-44085D02*
X62478Y-44085D01*
X62478Y-44085D02*
X62434Y-44047D01*
X62434Y-44047D02*
X62434Y-43860D01*
X62434Y-43860D02*
X62478Y-43822D01*
X62478Y-43822D02*
X62656Y-43822D01*
X62656Y-43822D02*
X62700Y-43860D01*
X62700Y-43860D02*
X62700Y-44047D01*
X62700Y-44047D02*
X62656Y-44085D01*
X62434Y-44275D02*
X62567Y-44275D01*
X62567Y-44275D02*
X62700Y-44388D01*
X62700Y-44388D02*
X62567Y-44500D01*
X62567Y-44500D02*
X62434Y-44500D01*
X62700Y-44766D02*
X62656Y-44728D01*
X62656Y-44728D02*
X62478Y-44728D01*
X62478Y-44728D02*
X62434Y-44766D01*
X62434Y-44766D02*
X62434Y-44953D01*
X62434Y-44953D02*
X62478Y-44991D01*
X62478Y-44991D02*
X62656Y-44991D01*
X62656Y-44991D02*
X62700Y-44953D01*
X62700Y-44953D02*
X62700Y-44766D01*
X62300Y-45256D02*
X62300Y-45294D01*
X62300Y-45294D02*
X62700Y-45294D01*
X62700Y-45256D02*
X62700Y-45331D01*
X62434Y-45634D02*
X62612Y-45634D01*
X62612Y-45634D02*
X62700Y-45709D01*
X62700Y-45709D02*
X62700Y-45822D01*
X62700Y-45822D02*
X62612Y-45897D01*
X62612Y-45897D02*
X62434Y-45897D01*
X62656Y-46350D02*
X62700Y-46312D01*
X62700Y-46312D02*
X62700Y-46125D01*
X62700Y-46125D02*
X62656Y-46087D01*
X62656Y-46087D02*
X62478Y-46087D01*
X62478Y-46087D02*
X62434Y-46125D01*
X62434Y-46125D02*
X62434Y-46312D01*
X62434Y-46312D02*
X62478Y-46350D01*
X62300Y-46653D02*
X62345Y-46653D01*
X62478Y-46653D02*
X62656Y-46653D01*
X62656Y-46653D02*
X62700Y-46690D01*
X62700Y-46690D02*
X62700Y-46728D01*
X62700Y-47031D02*
X62656Y-46993D01*
X62656Y-46993D02*
X62478Y-46993D01*
X62478Y-46993D02*
X62434Y-47031D01*
X62434Y-47031D02*
X62434Y-47218D01*
X62434Y-47218D02*
X62478Y-47256D01*
X62478Y-47256D02*
X62656Y-47256D01*
X62656Y-47256D02*
X62700Y-47218D01*
X62700Y-47218D02*
X62700Y-47031D01*
X62700Y-47446D02*
X62434Y-47446D01*
X62478Y-47446D02*
X62434Y-47484D01*
X62434Y-47484D02*
X62434Y-47634D01*
X62434Y-47634D02*
X62478Y-47671D01*
X62478Y-47671D02*
X62700Y-47671D01*
X62567Y-47899D02*
X62567Y-48162D01*
X62567Y-48162D02*
X62478Y-48162D01*
X62478Y-48162D02*
X62434Y-48124D01*
X62434Y-48124D02*
X62434Y-47937D01*
X62434Y-47937D02*
X62478Y-47899D01*
X62478Y-47899D02*
X62656Y-47899D01*
X62656Y-47899D02*
X62700Y-47937D01*
X62700Y-47937D02*
X62700Y-48124D01*
X62700Y-48124D02*
X62656Y-48162D01*
X62656Y-48352D02*
X62700Y-48390D01*
X62700Y-48390D02*
X62700Y-48577D01*
X62700Y-48577D02*
X62656Y-48615D01*
X62656Y-48615D02*
X62612Y-48615D01*
X62612Y-48615D02*
X62567Y-48577D01*
X62567Y-48577D02*
X62567Y-48390D01*
X62567Y-48390D02*
X62523Y-48352D01*
X62523Y-48352D02*
X62478Y-48352D01*
X62478Y-48352D02*
X62434Y-48390D01*
X62434Y-48390D02*
X62434Y-48577D01*
X62434Y-48577D02*
X62478Y-48615D01*
G54D11*
X85500Y-40750D02*
X84250Y-40750D01*
X85500Y-51500D02*
X85500Y-40750D01*
X84250Y-51500D02*
X85500Y-51500D01*
X61750Y-51500D02*
X63750Y-51500D01*
X61750Y-40750D02*
X61750Y-51500D01*
X63750Y-40750D02*
X61750Y-40750D01*
X63750Y-51500D02*
X84250Y-51500D01*
X84250Y-40750D02*
X63750Y-40750D01*
X63750Y-40750D02*
X63750Y-41000D01*
G54D12*
X68500Y-42000D03*
G54D13*
X68500Y-43000D03*
X68500Y-44000D03*
X68500Y-45000D03*
X68500Y-46000D03*
X68500Y-47000D03*
X68500Y-48000D03*
X68500Y-49000D03*
X71500Y-49000D03*
X71500Y-48000D03*
X71500Y-47000D03*
X71500Y-46000D03*
X71500Y-45000D03*
X71500Y-44000D03*
X71500Y-43000D03*
X71500Y-42000D03*
G54D14*
X84000Y-42250D03*
G54D15*
X82000Y-42250D03*
G54D14*
X84000Y-50000D03*
G54D15*
X82000Y-50000D03*
G54D16*
X66500Y-50000D03*
G54D17*
X65500Y-50000D03*
X64500Y-50000D03*
G54D18*
X78500Y-42000D03*
G54D19*
X80500Y-42000D03*
X79500Y-42000D03*
G54D20*
X79500Y-35500D03*
G54D18*
X73750Y-42000D03*
G54D19*
X75750Y-42000D03*
X74750Y-42000D03*
G54D20*
X74750Y-35500D03*
G54D18*
X78500Y-50000D03*
G54D19*
X80500Y-50000D03*
X79500Y-50000D03*
G54D20*
X79500Y-56500D03*
G54D18*
X73750Y-50000D03*
G54D19*
X75750Y-50000D03*
X74750Y-50000D03*
G54D20*
X74750Y-56500D03*
G54D13*
X67500Y-42000D03*
X64500Y-42000D03*
X66500Y-46000D03*
X66500Y-43000D03*
X67500Y-43000D03*
X67500Y-46000D03*
X64500Y-49000D03*
X67500Y-49000D03*
X80500Y-45000D03*
X77500Y-45000D03*
X80500Y-48000D03*
X77500Y-48000D03*
X73750Y-45000D03*
X76750Y-45000D03*
X73750Y-48000D03*
X76750Y-48000D03*
X77500Y-43000D03*
X80500Y-43000D03*
X80500Y-49000D03*
X77500Y-49000D03*
X73750Y-43000D03*
X76750Y-43000D03*
X76750Y-49000D03*
X73750Y-49000D03*
G54D21*
X63000Y-42000D03*
X63000Y-50000D03*
X83500Y-45750D03*
G54D22*
X65500Y-46000D03*
X65500Y-48000D03*
X72500Y-44000D03*
X72500Y-48000D03*
X72500Y-42000D03*
X73062Y-45698D03*
X75500Y-45750D03*
X73750Y-44000D03*
X77500Y-44000D03*
X76750Y-46500D03*
X80500Y-46500D03*
G54D23*
X67500Y-42000D02*
X68500Y-42000D01*
X65500Y-50000D02*
X65500Y-48000D01*
X65500Y-44000D02*
X66500Y-43000D01*
X65500Y-46000D02*
X65500Y-44000D01*
X66500Y-43000D02*
X67500Y-43000D01*
X67500Y-43000D02*
X68500Y-43000D01*
X68500Y-44000D02*
X69000Y-44000D01*
X69000Y-48000D02*
X68500Y-48000D01*
X69500Y-47500D02*
X69000Y-48000D01*
X69500Y-44500D02*
X69500Y-47500D01*
X69000Y-44000D02*
X69500Y-44500D01*
X68500Y-48000D02*
X67500Y-48000D01*
X66500Y-48500D02*
X66500Y-50000D01*
X67000Y-48000D02*
X66500Y-48500D01*
X67500Y-48000D02*
X67000Y-48000D01*
X66500Y-46000D02*
X66500Y-45500D01*
X67000Y-45000D02*
X68500Y-45000D01*
X66500Y-45500D02*
X67000Y-45000D01*
X67500Y-46000D02*
X68500Y-46000D01*
X64500Y-50000D02*
X64500Y-49000D01*
X64500Y-42000D02*
X64500Y-47000D01*
X64500Y-47000D02*
X64500Y-49000D01*
X68500Y-47000D02*
X64500Y-47000D01*
X67500Y-49000D02*
X68500Y-49000D01*
X73750Y-48000D02*
X72500Y-49000D01*
X72500Y-49000D02*
X71500Y-49000D01*
X71500Y-44000D02*
X72500Y-44000D01*
X71500Y-48000D02*
X72500Y-48000D01*
X78500Y-42000D02*
X77500Y-43000D01*
X78500Y-42000D02*
X78000Y-41250D01*
X74250Y-41250D02*
X73750Y-42000D01*
X78000Y-41250D02*
X74250Y-41250D01*
X73750Y-42000D02*
X72500Y-42000D01*
X73750Y-42000D02*
X73750Y-43000D01*
X78500Y-42000D02*
X79250Y-41250D01*
X82000Y-42000D02*
X82000Y-42250D01*
X81250Y-41250D02*
X82000Y-42000D01*
X79250Y-41250D02*
X81250Y-41250D01*
X71500Y-47000D02*
X72000Y-47000D01*
X72000Y-47000D02*
X73500Y-47000D01*
X73500Y-47000D02*
X71500Y-47000D01*
X71500Y-47000D02*
X72000Y-47000D01*
X73750Y-45000D02*
X73750Y-46750D01*
X73750Y-46750D02*
X73500Y-47000D01*
X71500Y-42000D02*
X71000Y-42000D01*
X71000Y-42000D02*
X70500Y-42500D01*
X70500Y-42500D02*
X70500Y-45500D01*
X70500Y-45500D02*
X71000Y-46000D01*
X71000Y-46000D02*
X71500Y-46000D01*
X71000Y-46000D02*
X70500Y-46500D01*
X71500Y-50500D02*
X73750Y-50500D01*
X73750Y-50500D02*
X74000Y-50500D01*
X70500Y-49500D02*
X71500Y-50500D01*
X70500Y-46500D02*
X70500Y-49500D01*
X74000Y-50500D02*
X74500Y-51000D01*
X74500Y-51000D02*
X78500Y-51000D01*
X73750Y-50500D02*
X73750Y-50000D01*
X73750Y-50000D02*
X73750Y-49000D01*
X78500Y-50000D02*
X78500Y-51000D01*
X78500Y-50000D02*
X77500Y-49000D01*
X78500Y-51000D02*
X85000Y-51000D01*
X85000Y-42250D02*
X84000Y-42250D01*
X85000Y-51000D02*
X85000Y-42250D01*
X77500Y-48000D02*
X77500Y-45750D01*
X72364Y-45000D02*
X71500Y-45000D01*
X73062Y-45698D02*
X72364Y-45000D01*
X77500Y-45750D02*
X75500Y-45750D01*
X77500Y-45000D02*
X77500Y-44000D01*
X72750Y-43000D02*
X71500Y-43000D01*
X73750Y-44000D02*
X72750Y-43000D01*
X74750Y-50000D02*
X74750Y-46500D01*
X74750Y-46500D02*
X74750Y-42000D01*
X84000Y-50000D02*
X83000Y-50000D01*
X76750Y-46500D02*
X74750Y-46500D01*
X81500Y-46500D02*
X80500Y-46500D01*
X83000Y-48000D02*
X81500Y-46500D01*
X83000Y-50000D02*
X83000Y-48000D01*
X79500Y-47250D02*
X79500Y-50000D01*
X79500Y-47250D02*
X79500Y-42000D01*
X79500Y-47250D02*
X80750Y-47250D01*
X82000Y-48500D02*
X82000Y-50000D01*
X80750Y-47250D02*
X82000Y-48500D01*
X80500Y-42000D02*
X80500Y-43000D01*
X80500Y-43000D02*
X80500Y-45000D01*
X76750Y-43000D02*
X76750Y-45000D01*
X75750Y-42000D02*
X76750Y-43000D01*
X80500Y-48000D02*
X80500Y-49000D01*
X80500Y-49000D02*
X80500Y-50000D01*
X75750Y-50000D02*
X76750Y-49000D01*
X76750Y-49000D02*
X76750Y-48000D01*
G54D24*
X77500Y-49000D02*
X78062Y-49000D01*
X77500Y-49000D02*
X77500Y-49562D01*
G54D23*
X73750Y-50000D02*
X73750Y-50637D01*
X73750Y-50000D02*
X73113Y-50000D01*
X78500Y-50000D02*
X78500Y-50637D01*
X78500Y-50000D02*
X77863Y-50000D01*
X78500Y-50000D02*
X78500Y-49363D01*
X84000Y-42250D02*
X83213Y-42250D01*
X84000Y-42250D02*
X84000Y-41463D01*
X84000Y-42250D02*
X84787Y-42250D01*
X84000Y-42250D02*
X84000Y-43037D01*
X71500Y-42000D02*
X70938Y-42000D01*
X71500Y-42000D02*
X71500Y-41438D01*
X71500Y-46000D02*
X70938Y-46000D01*
X71500Y-46000D02*
X72062Y-46000D01*
G54D24*
X85150Y-41100D02*
X85150Y-51150D01*
X85125Y-41100D02*
X85125Y-51150D01*
X85100Y-41100D02*
X85100Y-51150D01*
X85075Y-41100D02*
X85075Y-51150D01*
X85050Y-41100D02*
X85050Y-51150D01*
X85025Y-41100D02*
X85025Y-51150D01*
X85000Y-41100D02*
X85000Y-51150D01*
X84975Y-41100D02*
X84975Y-51150D01*
X84950Y-41100D02*
X84950Y-51150D01*
X84925Y-41100D02*
X84925Y-51150D01*
X84900Y-41100D02*
X84900Y-51150D01*
X84875Y-41100D02*
X84875Y-51150D01*
X84850Y-41100D02*
X84850Y-51150D01*
X84825Y-41100D02*
X84825Y-51150D01*
X84800Y-41100D02*
X84800Y-51150D01*
X84775Y-41100D02*
X84775Y-51150D01*
X84750Y-50775D02*
X84750Y-51150D01*
X84750Y-43025D02*
X84750Y-49225D01*
X84750Y-41100D02*
X84750Y-41475D01*
X84725Y-50775D02*
X84725Y-51150D01*
X84725Y-43025D02*
X84725Y-49225D01*
X84725Y-41100D02*
X84725Y-41475D01*
X84700Y-50775D02*
X84700Y-51150D01*
X84700Y-43025D02*
X84700Y-49225D01*
X84700Y-41100D02*
X84700Y-41475D01*
X84675Y-50775D02*
X84675Y-51150D01*
X84675Y-43025D02*
X84675Y-49225D01*
X84675Y-41100D02*
X84675Y-41475D01*
X84650Y-50775D02*
X84650Y-51150D01*
X84650Y-43025D02*
X84650Y-49225D01*
X84650Y-41100D02*
X84650Y-41475D01*
X84625Y-50775D02*
X84625Y-51150D01*
X84625Y-43025D02*
X84625Y-49225D01*
X84625Y-41100D02*
X84625Y-41475D01*
X84600Y-50775D02*
X84600Y-51150D01*
X84600Y-43025D02*
X84600Y-49225D01*
X84600Y-41100D02*
X84600Y-41475D01*
X84575Y-50775D02*
X84575Y-51150D01*
X84575Y-43025D02*
X84575Y-49225D01*
X84575Y-41100D02*
X84575Y-41475D01*
X84550Y-50775D02*
X84550Y-51150D01*
X84550Y-46000D02*
X84550Y-49225D01*
X84550Y-43025D02*
X84550Y-45500D01*
X84550Y-41100D02*
X84550Y-41475D01*
X84525Y-50775D02*
X84525Y-51150D01*
X84525Y-46075D02*
X84525Y-49225D01*
X84525Y-43025D02*
X84525Y-45425D01*
X84525Y-41100D02*
X84525Y-41475D01*
X84500Y-50775D02*
X84500Y-51150D01*
X84500Y-46150D02*
X84500Y-49225D01*
X84500Y-43025D02*
X84500Y-45350D01*
X84500Y-41100D02*
X84500Y-41475D01*
X84475Y-50775D02*
X84475Y-51150D01*
X84475Y-46225D02*
X84475Y-49225D01*
X84475Y-43025D02*
X84475Y-45275D01*
X84475Y-41100D02*
X84475Y-41475D01*
X84450Y-50775D02*
X84450Y-51150D01*
X84450Y-46275D02*
X84450Y-49225D01*
X84450Y-43025D02*
X84450Y-45225D01*
X84450Y-41100D02*
X84450Y-41475D01*
X84425Y-50775D02*
X84425Y-51150D01*
X84425Y-46300D02*
X84425Y-49225D01*
X84425Y-43025D02*
X84425Y-45200D01*
X84425Y-41100D02*
X84425Y-41475D01*
X84400Y-50775D02*
X84400Y-51150D01*
X84400Y-46350D02*
X84400Y-49225D01*
X84400Y-43025D02*
X84400Y-45150D01*
X84400Y-41100D02*
X84400Y-41475D01*
X84375Y-50775D02*
X84375Y-51150D01*
X84375Y-46375D02*
X84375Y-49225D01*
X84375Y-43025D02*
X84375Y-45125D01*
X84375Y-41100D02*
X84375Y-41475D01*
X84350Y-50775D02*
X84350Y-51150D01*
X84350Y-46425D02*
X84350Y-49225D01*
X84350Y-43025D02*
X84350Y-45075D01*
X84350Y-41100D02*
X84350Y-41475D01*
X84325Y-50775D02*
X84325Y-51150D01*
X84325Y-46450D02*
X84325Y-49225D01*
X84325Y-43025D02*
X84325Y-45050D01*
X84325Y-41100D02*
X84325Y-41475D01*
X84300Y-50775D02*
X84300Y-51150D01*
X84300Y-46475D02*
X84300Y-49225D01*
X84300Y-43025D02*
X84300Y-45025D01*
X84300Y-41100D02*
X84300Y-41475D01*
X84275Y-50775D02*
X84275Y-51150D01*
X84275Y-46500D02*
X84275Y-49225D01*
X84275Y-43025D02*
X84275Y-45000D01*
X84275Y-41100D02*
X84275Y-41475D01*
X84250Y-50775D02*
X84250Y-51150D01*
X84250Y-46525D02*
X84250Y-49225D01*
X84250Y-43025D02*
X84250Y-44975D01*
X84250Y-41100D02*
X84250Y-41475D01*
X84225Y-50775D02*
X84225Y-51150D01*
X84225Y-46550D02*
X84225Y-49225D01*
X84225Y-43025D02*
X84225Y-44950D01*
X84225Y-41100D02*
X84225Y-41475D01*
X84200Y-50775D02*
X84200Y-51150D01*
X84200Y-46575D02*
X84200Y-49225D01*
X84200Y-43025D02*
X84200Y-44925D01*
X84200Y-41100D02*
X84200Y-41475D01*
X84175Y-50775D02*
X84175Y-51150D01*
X84175Y-46600D02*
X84175Y-49225D01*
X84175Y-43025D02*
X84175Y-44900D01*
X84175Y-41100D02*
X84175Y-41475D01*
X84150Y-50775D02*
X84150Y-51150D01*
X84150Y-46625D02*
X84150Y-49225D01*
X84150Y-43025D02*
X84150Y-44875D01*
X84150Y-41100D02*
X84150Y-41475D01*
X84125Y-50775D02*
X84125Y-51150D01*
X84125Y-46625D02*
X84125Y-49225D01*
X84125Y-43025D02*
X84125Y-44875D01*
X84125Y-41100D02*
X84125Y-41475D01*
X84100Y-50775D02*
X84100Y-51150D01*
X84100Y-46650D02*
X84100Y-49225D01*
X84100Y-43025D02*
X84100Y-44850D01*
X84100Y-41100D02*
X84100Y-41475D01*
X84075Y-50775D02*
X84075Y-51150D01*
X84075Y-46675D02*
X84075Y-49225D01*
X84075Y-43025D02*
X84075Y-44825D01*
X84075Y-41100D02*
X84075Y-41475D01*
X84050Y-50775D02*
X84050Y-51150D01*
X84050Y-46675D02*
X84050Y-49225D01*
X84050Y-43025D02*
X84050Y-44825D01*
X84050Y-41100D02*
X84050Y-41475D01*
X84025Y-50775D02*
X84025Y-51150D01*
X84025Y-46700D02*
X84025Y-49225D01*
X84025Y-43025D02*
X84025Y-44800D01*
X84025Y-41100D02*
X84025Y-41475D01*
X84000Y-50775D02*
X84000Y-51150D01*
X84000Y-46725D02*
X84000Y-49225D01*
X84000Y-43025D02*
X84000Y-44775D01*
X84000Y-41100D02*
X84000Y-41475D01*
X83975Y-50775D02*
X83975Y-51150D01*
X83975Y-46725D02*
X83975Y-49225D01*
X83975Y-43025D02*
X83975Y-44775D01*
X83975Y-41100D02*
X83975Y-41475D01*
X83950Y-50775D02*
X83950Y-51150D01*
X83950Y-46750D02*
X83950Y-49225D01*
X83950Y-43025D02*
X83950Y-44750D01*
X83950Y-41100D02*
X83950Y-41475D01*
X83925Y-50775D02*
X83925Y-51150D01*
X83925Y-46750D02*
X83925Y-49225D01*
X83925Y-43025D02*
X83925Y-44750D01*
X83925Y-41100D02*
X83925Y-41475D01*
X83900Y-50775D02*
X83900Y-51150D01*
X83900Y-46750D02*
X83900Y-49225D01*
X83900Y-43025D02*
X83900Y-44750D01*
X83900Y-41100D02*
X83900Y-41475D01*
X83875Y-50775D02*
X83875Y-51150D01*
X83875Y-46775D02*
X83875Y-49225D01*
X83875Y-43025D02*
X83875Y-44725D01*
X83875Y-41100D02*
X83875Y-41475D01*
X83850Y-50775D02*
X83850Y-51150D01*
X83850Y-46775D02*
X83850Y-49225D01*
X83850Y-43025D02*
X83850Y-44725D01*
X83850Y-41100D02*
X83850Y-41475D01*
X83825Y-50775D02*
X83825Y-51150D01*
X83825Y-46775D02*
X83825Y-49225D01*
X83825Y-43025D02*
X83825Y-44725D01*
X83825Y-41100D02*
X83825Y-41475D01*
X83800Y-50775D02*
X83800Y-51150D01*
X83800Y-46800D02*
X83800Y-49225D01*
X83800Y-43025D02*
X83800Y-44700D01*
X83800Y-41100D02*
X83800Y-41475D01*
X83775Y-50775D02*
X83775Y-51150D01*
X83775Y-46800D02*
X83775Y-49225D01*
X83775Y-43025D02*
X83775Y-44700D01*
X83775Y-41100D02*
X83775Y-41475D01*
X83750Y-50775D02*
X83750Y-51150D01*
X83750Y-46800D02*
X83750Y-49225D01*
X83750Y-43025D02*
X83750Y-44700D01*
X83750Y-41100D02*
X83750Y-41475D01*
X83725Y-50775D02*
X83725Y-51150D01*
X83725Y-46825D02*
X83725Y-49225D01*
X83725Y-43025D02*
X83725Y-44675D01*
X83725Y-41100D02*
X83725Y-41475D01*
X83700Y-50775D02*
X83700Y-51150D01*
X83700Y-46825D02*
X83700Y-49225D01*
X83700Y-43025D02*
X83700Y-44675D01*
X83700Y-41100D02*
X83700Y-41475D01*
X83675Y-50775D02*
X83675Y-51150D01*
X83675Y-46825D02*
X83675Y-49225D01*
X83675Y-43025D02*
X83675Y-44675D01*
X83675Y-41100D02*
X83675Y-41475D01*
X83650Y-50775D02*
X83650Y-51150D01*
X83650Y-46825D02*
X83650Y-49225D01*
X83650Y-43025D02*
X83650Y-44675D01*
X83650Y-41100D02*
X83650Y-41475D01*
X83625Y-50775D02*
X83625Y-51150D01*
X83625Y-46825D02*
X83625Y-49225D01*
X83625Y-43025D02*
X83625Y-44675D01*
X83625Y-41100D02*
X83625Y-41475D01*
X83600Y-50775D02*
X83600Y-51150D01*
X83600Y-46825D02*
X83600Y-49225D01*
X83600Y-43025D02*
X83600Y-44675D01*
X83600Y-41100D02*
X83600Y-41475D01*
X83575Y-50775D02*
X83575Y-51150D01*
X83575Y-46825D02*
X83575Y-49225D01*
X83575Y-43025D02*
X83575Y-44675D01*
X83575Y-41100D02*
X83575Y-41475D01*
X83550Y-50775D02*
X83550Y-51150D01*
X83550Y-46825D02*
X83550Y-49225D01*
X83550Y-43025D02*
X83550Y-44675D01*
X83550Y-41100D02*
X83550Y-41475D01*
X83525Y-50775D02*
X83525Y-51150D01*
X83525Y-46825D02*
X83525Y-49225D01*
X83525Y-43025D02*
X83525Y-44675D01*
X83525Y-41100D02*
X83525Y-41475D01*
X83500Y-50775D02*
X83500Y-51150D01*
X83500Y-46825D02*
X83500Y-47825D01*
X83500Y-43025D02*
X83500Y-44675D01*
X83500Y-41100D02*
X83500Y-41475D01*
X83475Y-50775D02*
X83475Y-51150D01*
X83475Y-46825D02*
X83475Y-47775D01*
X83475Y-43025D02*
X83475Y-44675D01*
X83475Y-41100D02*
X83475Y-41475D01*
X83450Y-50775D02*
X83450Y-51150D01*
X83450Y-46825D02*
X83450Y-47725D01*
X83450Y-43025D02*
X83450Y-44675D01*
X83450Y-41100D02*
X83450Y-41475D01*
X83425Y-50775D02*
X83425Y-51150D01*
X83425Y-46825D02*
X83425Y-47675D01*
X83425Y-43025D02*
X83425Y-44675D01*
X83425Y-41100D02*
X83425Y-41475D01*
X83400Y-50775D02*
X83400Y-51150D01*
X83400Y-46825D02*
X83400Y-47650D01*
X83400Y-43025D02*
X83400Y-44675D01*
X83400Y-41100D02*
X83400Y-41475D01*
X83375Y-50775D02*
X83375Y-51150D01*
X83375Y-46825D02*
X83375Y-47625D01*
X83375Y-43025D02*
X83375Y-44675D01*
X83375Y-41100D02*
X83375Y-41475D01*
X83350Y-50775D02*
X83350Y-51150D01*
X83350Y-46825D02*
X83350Y-47600D01*
X83350Y-43025D02*
X83350Y-44675D01*
X83350Y-41100D02*
X83350Y-41475D01*
X83325Y-50775D02*
X83325Y-51150D01*
X83325Y-46825D02*
X83325Y-47575D01*
X83325Y-43025D02*
X83325Y-44675D01*
X83325Y-41100D02*
X83325Y-41475D01*
X83300Y-50775D02*
X83300Y-51150D01*
X83300Y-46825D02*
X83300Y-47550D01*
X83300Y-43025D02*
X83300Y-44675D01*
X83300Y-41100D02*
X83300Y-41475D01*
X83275Y-50775D02*
X83275Y-51150D01*
X83275Y-46825D02*
X83275Y-47525D01*
X83275Y-43025D02*
X83275Y-44675D01*
X83275Y-41100D02*
X83275Y-41475D01*
X83250Y-50775D02*
X83250Y-51150D01*
X83250Y-46800D02*
X83250Y-47500D01*
X83250Y-43025D02*
X83250Y-44700D01*
X83250Y-41100D02*
X83250Y-41475D01*
X83225Y-50525D02*
X83225Y-51150D01*
X83225Y-46800D02*
X83225Y-47475D01*
X83225Y-41100D02*
X83225Y-44700D01*
X83200Y-50525D02*
X83200Y-51150D01*
X83200Y-46800D02*
X83200Y-47450D01*
X83200Y-41100D02*
X83200Y-44700D01*
X83175Y-50525D02*
X83175Y-51150D01*
X83175Y-46775D02*
X83175Y-47425D01*
X83175Y-41100D02*
X83175Y-44725D01*
X83150Y-50525D02*
X83150Y-51150D01*
X83150Y-46775D02*
X83150Y-47400D01*
X83150Y-41100D02*
X83150Y-44725D01*
X83125Y-50525D02*
X83125Y-51150D01*
X83125Y-46775D02*
X83125Y-47375D01*
X83125Y-41100D02*
X83125Y-44725D01*
X83100Y-50525D02*
X83100Y-51150D01*
X83100Y-46750D02*
X83100Y-47350D01*
X83100Y-41100D02*
X83100Y-44750D01*
X83075Y-50525D02*
X83075Y-51150D01*
X83075Y-46750D02*
X83075Y-47325D01*
X83075Y-41100D02*
X83075Y-44750D01*
X83050Y-50525D02*
X83050Y-51150D01*
X83050Y-46750D02*
X83050Y-47300D01*
X83050Y-41100D02*
X83050Y-44750D01*
X83025Y-50525D02*
X83025Y-51150D01*
X83025Y-46725D02*
X83025Y-47275D01*
X83025Y-41100D02*
X83025Y-44775D01*
X83000Y-50525D02*
X83000Y-51150D01*
X83000Y-46725D02*
X83000Y-47250D01*
X83000Y-41100D02*
X83000Y-44775D01*
X82975Y-50525D02*
X82975Y-51150D01*
X82975Y-46700D02*
X82975Y-47225D01*
X82975Y-41100D02*
X82975Y-44800D01*
X82950Y-50525D02*
X82950Y-51150D01*
X82950Y-46675D02*
X82950Y-47200D01*
X82950Y-41100D02*
X82950Y-44825D01*
X82925Y-50525D02*
X82925Y-51150D01*
X82925Y-46675D02*
X82925Y-47175D01*
X82925Y-41100D02*
X82925Y-44825D01*
X82900Y-50525D02*
X82900Y-51150D01*
X82900Y-46650D02*
X82900Y-47150D01*
X82900Y-41100D02*
X82900Y-44850D01*
X82875Y-50525D02*
X82875Y-51150D01*
X82875Y-46625D02*
X82875Y-47125D01*
X82875Y-41100D02*
X82875Y-44875D01*
X82850Y-50525D02*
X82850Y-51150D01*
X82850Y-46625D02*
X82850Y-47100D01*
X82850Y-41100D02*
X82850Y-44875D01*
X82825Y-50500D02*
X82825Y-51150D01*
X82825Y-46600D02*
X82825Y-47075D01*
X82825Y-41100D02*
X82825Y-44900D01*
X82800Y-50500D02*
X82800Y-51150D01*
X82800Y-46575D02*
X82800Y-47050D01*
X82800Y-41100D02*
X82800Y-44925D01*
X82775Y-50475D02*
X82775Y-51150D01*
X82775Y-46550D02*
X82775Y-47025D01*
X82775Y-41100D02*
X82775Y-44950D01*
X82750Y-50475D02*
X82750Y-51150D01*
X82750Y-46525D02*
X82750Y-47000D01*
X82750Y-42450D02*
X82750Y-44975D01*
X82750Y-41100D02*
X82750Y-42050D01*
X82725Y-50450D02*
X82725Y-51150D01*
X82725Y-46500D02*
X82725Y-46975D01*
X82725Y-42525D02*
X82725Y-45000D01*
X82725Y-41100D02*
X82725Y-41975D01*
X82700Y-50450D02*
X82700Y-51150D01*
X82700Y-46475D02*
X82700Y-46950D01*
X82700Y-42600D02*
X82700Y-45025D01*
X82700Y-41100D02*
X82700Y-41900D01*
X82675Y-50425D02*
X82675Y-51150D01*
X82675Y-46450D02*
X82675Y-46925D01*
X82675Y-42650D02*
X82675Y-45050D01*
X82675Y-41100D02*
X82675Y-41850D01*
X82650Y-50425D02*
X82650Y-51150D01*
X82650Y-46425D02*
X82650Y-46900D01*
X82650Y-42675D02*
X82650Y-45075D01*
X82650Y-41100D02*
X82650Y-41825D01*
X82625Y-50475D02*
X82625Y-51150D01*
X82625Y-46375D02*
X82625Y-46875D01*
X82625Y-42725D02*
X82625Y-45125D01*
X82625Y-41100D02*
X82625Y-41775D01*
X82600Y-50500D02*
X82600Y-51150D01*
X82600Y-46350D02*
X82600Y-46850D01*
X82600Y-42750D02*
X82600Y-45150D01*
X82600Y-41100D02*
X82600Y-41750D01*
X82575Y-50525D02*
X82575Y-51150D01*
X82575Y-46300D02*
X82575Y-46825D01*
X82575Y-42775D02*
X82575Y-45200D01*
X82575Y-41100D02*
X82575Y-41725D01*
X82550Y-50550D02*
X82550Y-51150D01*
X82550Y-46275D02*
X82550Y-46800D01*
X82550Y-42800D02*
X82550Y-45225D01*
X82550Y-41100D02*
X82550Y-41700D01*
X82525Y-50575D02*
X82525Y-51150D01*
X82525Y-46225D02*
X82525Y-46775D01*
X82525Y-42825D02*
X82525Y-45275D01*
X82525Y-41100D02*
X82525Y-41675D01*
X82500Y-50600D02*
X82500Y-51150D01*
X82500Y-46150D02*
X82500Y-46750D01*
X82500Y-42850D02*
X82500Y-45350D01*
X82500Y-41100D02*
X82500Y-41650D01*
X82475Y-50625D02*
X82475Y-51150D01*
X82475Y-46075D02*
X82475Y-46725D01*
X82475Y-42875D02*
X82475Y-45425D01*
X82475Y-41100D02*
X82475Y-41625D01*
X82450Y-50650D02*
X82450Y-51150D01*
X82450Y-46000D02*
X82450Y-46700D01*
X82450Y-42900D02*
X82450Y-45500D01*
X82450Y-41100D02*
X82450Y-41600D01*
X82425Y-50650D02*
X82425Y-51150D01*
X82425Y-42900D02*
X82425Y-46675D01*
X82425Y-41100D02*
X82425Y-41600D01*
X82400Y-50675D02*
X82400Y-51150D01*
X82400Y-42925D02*
X82400Y-46650D01*
X82400Y-41100D02*
X82400Y-41575D01*
X82375Y-50700D02*
X82375Y-51150D01*
X82375Y-42950D02*
X82375Y-46625D01*
X82375Y-41100D02*
X82375Y-41550D01*
X82350Y-50700D02*
X82350Y-51150D01*
X82350Y-42950D02*
X82350Y-46600D01*
X82350Y-41100D02*
X82350Y-41550D01*
X82325Y-50725D02*
X82325Y-51150D01*
X82325Y-42975D02*
X82325Y-46575D01*
X82325Y-41100D02*
X82325Y-41525D01*
X82300Y-50725D02*
X82300Y-51150D01*
X82300Y-42975D02*
X82300Y-46550D01*
X82300Y-41100D02*
X82300Y-41525D01*
X82275Y-50725D02*
X82275Y-51150D01*
X82275Y-42975D02*
X82275Y-46525D01*
X82275Y-41100D02*
X82275Y-41525D01*
X82250Y-50750D02*
X82250Y-51150D01*
X82250Y-43000D02*
X82250Y-46500D01*
X82250Y-41100D02*
X82250Y-41500D01*
X82225Y-50750D02*
X82225Y-51150D01*
X82225Y-43000D02*
X82225Y-46475D01*
X82225Y-41100D02*
X82225Y-41475D01*
X82200Y-50750D02*
X82200Y-51150D01*
X82200Y-43000D02*
X82200Y-46450D01*
X82200Y-41100D02*
X82200Y-41450D01*
X82175Y-50775D02*
X82175Y-51150D01*
X82175Y-43025D02*
X82175Y-46425D01*
X82175Y-41100D02*
X82175Y-41425D01*
X82150Y-50775D02*
X82150Y-51150D01*
X82150Y-43025D02*
X82150Y-46400D01*
X82150Y-41100D02*
X82150Y-41400D01*
X82125Y-50775D02*
X82125Y-51150D01*
X82125Y-43025D02*
X82125Y-46375D01*
X82125Y-41100D02*
X82125Y-41375D01*
X82100Y-50775D02*
X82100Y-51150D01*
X82100Y-43025D02*
X82100Y-46350D01*
X82100Y-41100D02*
X82100Y-41350D01*
X82075Y-50775D02*
X82075Y-51150D01*
X82075Y-43025D02*
X82075Y-46325D01*
X82075Y-41100D02*
X82075Y-41325D01*
X82050Y-50775D02*
X82050Y-51150D01*
X82050Y-43025D02*
X82050Y-46300D01*
X82050Y-41100D02*
X82050Y-41300D01*
X82025Y-50775D02*
X82025Y-51150D01*
X82025Y-43025D02*
X82025Y-46275D01*
X82025Y-41100D02*
X82025Y-41275D01*
X82000Y-50775D02*
X82000Y-51150D01*
X82000Y-43025D02*
X82000Y-46250D01*
X82000Y-41100D02*
X82000Y-41250D01*
X81975Y-50775D02*
X81975Y-51150D01*
X81975Y-43025D02*
X81975Y-46225D01*
X81975Y-41100D02*
X81975Y-41225D01*
X81950Y-50775D02*
X81950Y-51150D01*
X81950Y-43025D02*
X81950Y-46200D01*
X81950Y-41100D02*
X81950Y-41200D01*
X81925Y-50775D02*
X81925Y-51150D01*
X81925Y-43025D02*
X81925Y-46175D01*
X81925Y-41100D02*
X81925Y-41175D01*
X81900Y-50775D02*
X81900Y-51150D01*
X81900Y-43025D02*
X81900Y-46150D01*
X81900Y-41100D02*
X81900Y-41150D01*
X81875Y-50775D02*
X81875Y-51150D01*
X81875Y-43025D02*
X81875Y-46125D01*
X81875Y-41100D02*
X81875Y-41125D01*
X81850Y-50775D02*
X81850Y-51150D01*
X81850Y-43025D02*
X81850Y-46100D01*
X81825Y-50775D02*
X81825Y-51150D01*
X81825Y-43025D02*
X81825Y-46075D01*
X81800Y-50750D02*
X81800Y-51150D01*
X81800Y-43000D02*
X81800Y-46050D01*
X81775Y-50750D02*
X81775Y-51150D01*
X81775Y-43000D02*
X81775Y-46050D01*
X81750Y-50750D02*
X81750Y-51150D01*
X81750Y-43000D02*
X81750Y-46025D01*
X81725Y-50725D02*
X81725Y-51150D01*
X81725Y-42975D02*
X81725Y-46025D01*
X81700Y-50725D02*
X81700Y-51150D01*
X81700Y-42975D02*
X81700Y-46000D01*
X81675Y-50725D02*
X81675Y-51150D01*
X81675Y-42975D02*
X81675Y-46000D01*
X81650Y-50700D02*
X81650Y-51150D01*
X81650Y-42950D02*
X81650Y-45975D01*
X81625Y-50700D02*
X81625Y-51150D01*
X81625Y-42950D02*
X81625Y-45975D01*
X81600Y-50675D02*
X81600Y-51150D01*
X81600Y-42925D02*
X81600Y-45975D01*
X81575Y-50650D02*
X81575Y-51150D01*
X81575Y-42900D02*
X81575Y-45975D01*
X81550Y-50650D02*
X81550Y-51150D01*
X81550Y-42900D02*
X81550Y-45975D01*
X81525Y-50625D02*
X81525Y-51150D01*
X81525Y-42875D02*
X81525Y-45975D01*
X81500Y-50600D02*
X81500Y-51150D01*
X81500Y-42850D02*
X81500Y-45975D01*
X81475Y-50575D02*
X81475Y-51150D01*
X81475Y-48725D02*
X81475Y-49425D01*
X81475Y-42825D02*
X81475Y-45975D01*
X81450Y-50550D02*
X81450Y-51150D01*
X81450Y-48700D02*
X81450Y-49450D01*
X81450Y-42800D02*
X81450Y-45975D01*
X81425Y-50525D02*
X81425Y-51150D01*
X81425Y-48675D02*
X81425Y-49475D01*
X81425Y-42775D02*
X81425Y-45975D01*
X81400Y-50500D02*
X81400Y-51150D01*
X81400Y-48650D02*
X81400Y-49500D01*
X81400Y-42750D02*
X81400Y-45975D01*
X81375Y-50475D02*
X81375Y-51150D01*
X81375Y-48625D02*
X81375Y-49525D01*
X81375Y-42725D02*
X81375Y-45975D01*
X81350Y-50425D02*
X81350Y-51150D01*
X81350Y-48600D02*
X81350Y-49575D01*
X81350Y-42675D02*
X81350Y-45975D01*
X81325Y-50400D02*
X81325Y-51150D01*
X81325Y-48575D02*
X81325Y-49600D01*
X81325Y-42650D02*
X81325Y-45975D01*
X81300Y-50350D02*
X81300Y-51150D01*
X81300Y-48550D02*
X81300Y-49650D01*
X81300Y-42600D02*
X81300Y-45975D01*
X81275Y-50275D02*
X81275Y-51150D01*
X81275Y-48525D02*
X81275Y-49725D01*
X81275Y-42525D02*
X81275Y-45975D01*
X81250Y-50200D02*
X81250Y-51150D01*
X81250Y-48500D02*
X81250Y-49800D01*
X81250Y-42450D02*
X81250Y-45975D01*
X81250Y-42000D02*
X81250Y-42050D01*
X81225Y-48475D02*
X81225Y-51150D01*
X81225Y-41975D02*
X81225Y-45975D01*
X81200Y-48450D02*
X81200Y-51150D01*
X81200Y-41950D02*
X81200Y-45975D01*
X81175Y-48425D02*
X81175Y-51150D01*
X81175Y-41925D02*
X81175Y-45975D01*
X81150Y-48400D02*
X81150Y-51150D01*
X81150Y-41900D02*
X81150Y-45975D01*
X81125Y-48375D02*
X81125Y-51150D01*
X81125Y-41875D02*
X81125Y-45975D01*
X81100Y-50175D02*
X81100Y-51150D01*
X81100Y-48350D02*
X81100Y-49825D01*
X81100Y-42175D02*
X81100Y-45975D01*
X81075Y-50250D02*
X81075Y-51150D01*
X81075Y-48325D02*
X81075Y-49750D01*
X81075Y-42250D02*
X81075Y-45975D01*
X81050Y-50300D02*
X81050Y-51150D01*
X81050Y-48300D02*
X81050Y-49700D01*
X81050Y-42300D02*
X81050Y-45975D01*
X81025Y-50350D02*
X81025Y-51150D01*
X81025Y-49175D02*
X81025Y-49650D01*
X81025Y-48275D02*
X81025Y-48825D01*
X81025Y-45175D02*
X81025Y-45975D01*
X81025Y-43175D02*
X81025Y-44825D01*
X81025Y-42350D02*
X81025Y-42825D01*
X81000Y-50375D02*
X81000Y-51150D01*
X81000Y-45250D02*
X81000Y-45975D01*
X80975Y-50425D02*
X80975Y-51150D01*
X80975Y-45300D02*
X80975Y-45975D01*
X80950Y-50450D02*
X80950Y-51150D01*
X80950Y-45325D02*
X80950Y-45975D01*
X80925Y-50475D02*
X80925Y-51150D01*
X80925Y-45350D02*
X80925Y-45975D01*
X80900Y-50500D02*
X80900Y-51150D01*
X80900Y-45400D02*
X80900Y-45975D01*
X80875Y-50500D02*
X80875Y-51150D01*
X80875Y-45425D02*
X80875Y-45975D01*
X80850Y-50525D02*
X80850Y-51150D01*
X80850Y-45425D02*
X80850Y-45975D01*
X80825Y-50550D02*
X80825Y-51150D01*
X80825Y-45450D02*
X80825Y-45975D01*
X80800Y-50550D02*
X80800Y-51150D01*
X80800Y-45475D02*
X80800Y-45975D01*
X80775Y-50575D02*
X80775Y-51150D01*
X80775Y-45500D02*
X80775Y-45975D01*
X80750Y-50575D02*
X80750Y-51150D01*
X80750Y-45500D02*
X80750Y-45975D01*
X80725Y-50600D02*
X80725Y-51150D01*
X80725Y-45525D02*
X80725Y-45975D01*
X80700Y-50600D02*
X80700Y-51150D01*
X80700Y-45525D02*
X80700Y-45975D01*
X80675Y-50600D02*
X80675Y-51150D01*
X80675Y-45525D02*
X80675Y-45975D01*
X80650Y-50625D02*
X80650Y-51150D01*
X80650Y-45550D02*
X80650Y-45975D01*
X80625Y-50625D02*
X80625Y-51150D01*
X80625Y-45550D02*
X80625Y-45975D01*
X80600Y-50625D02*
X80600Y-51150D01*
X80600Y-45550D02*
X80600Y-45975D01*
X80575Y-50625D02*
X80575Y-51150D01*
X80575Y-45550D02*
X80575Y-45975D01*
X80550Y-50625D02*
X80550Y-51150D01*
X80550Y-45550D02*
X80550Y-45975D01*
X80525Y-50625D02*
X80525Y-51150D01*
X80525Y-45550D02*
X80525Y-45975D01*
X80500Y-50625D02*
X80500Y-51150D01*
X80500Y-45550D02*
X80500Y-45975D01*
X80475Y-50625D02*
X80475Y-51150D01*
X80475Y-45550D02*
X80475Y-45975D01*
X80450Y-50625D02*
X80450Y-51150D01*
X80450Y-45550D02*
X80450Y-45975D01*
X80425Y-50625D02*
X80425Y-51150D01*
X80425Y-45550D02*
X80425Y-45975D01*
X80400Y-50625D02*
X80400Y-51150D01*
X80400Y-45550D02*
X80400Y-45975D01*
X80375Y-50625D02*
X80375Y-51150D01*
X80375Y-45550D02*
X80375Y-45975D01*
X80350Y-50625D02*
X80350Y-51150D01*
X80350Y-45550D02*
X80350Y-45975D01*
X80325Y-50600D02*
X80325Y-51150D01*
X80325Y-45525D02*
X80325Y-46000D01*
X80300Y-50600D02*
X80300Y-51150D01*
X80300Y-45525D02*
X80300Y-46000D01*
X80275Y-50600D02*
X80275Y-51150D01*
X80275Y-45525D02*
X80275Y-46025D01*
X80250Y-50575D02*
X80250Y-51150D01*
X80250Y-45500D02*
X80250Y-46025D01*
X80225Y-50575D02*
X80225Y-51150D01*
X80225Y-45500D02*
X80225Y-46050D01*
X80200Y-50550D02*
X80200Y-51150D01*
X80200Y-45475D02*
X80200Y-46050D01*
X80175Y-50550D02*
X80175Y-51150D01*
X80175Y-45450D02*
X80175Y-46075D01*
X80150Y-50525D02*
X80150Y-51150D01*
X80150Y-45425D02*
X80150Y-46100D01*
X80125Y-50500D02*
X80125Y-51150D01*
X80125Y-45425D02*
X80125Y-46125D01*
X80100Y-50500D02*
X80100Y-51150D01*
X80100Y-45400D02*
X80100Y-46150D01*
X80075Y-50475D02*
X80075Y-51150D01*
X80075Y-45350D02*
X80075Y-46175D01*
X80050Y-50450D02*
X80050Y-51150D01*
X80050Y-45325D02*
X80050Y-46225D01*
X80025Y-50425D02*
X80025Y-51150D01*
X80025Y-45300D02*
X80025Y-46275D01*
X80000Y-50375D02*
X80000Y-51150D01*
X79975Y-50425D02*
X79975Y-51150D01*
X79950Y-50450D02*
X79950Y-51150D01*
X79925Y-50475D02*
X79925Y-51150D01*
X79900Y-50500D02*
X79900Y-51150D01*
X79875Y-50500D02*
X79875Y-51150D01*
X79850Y-50525D02*
X79850Y-51150D01*
X79825Y-50550D02*
X79825Y-51150D01*
X79800Y-50550D02*
X79800Y-51150D01*
X79775Y-50575D02*
X79775Y-51150D01*
X79750Y-50575D02*
X79750Y-51150D01*
X79725Y-50600D02*
X79725Y-51150D01*
X79700Y-50600D02*
X79700Y-51150D01*
X79675Y-50600D02*
X79675Y-51150D01*
X79650Y-50625D02*
X79650Y-51150D01*
X79625Y-50625D02*
X79625Y-51150D01*
X79600Y-50625D02*
X79600Y-51150D01*
X79575Y-50625D02*
X79575Y-51150D01*
X79550Y-50625D02*
X79550Y-51150D01*
X79525Y-50625D02*
X79525Y-51150D01*
X79500Y-50625D02*
X79500Y-51150D01*
X79475Y-50625D02*
X79475Y-51150D01*
X79450Y-50625D02*
X79450Y-51150D01*
X79425Y-50625D02*
X79425Y-51150D01*
X79400Y-50625D02*
X79400Y-51150D01*
X79375Y-50625D02*
X79375Y-51150D01*
X79350Y-50625D02*
X79350Y-51150D01*
X79325Y-50600D02*
X79325Y-51150D01*
X79300Y-50600D02*
X79300Y-51150D01*
X79275Y-50600D02*
X79275Y-51150D01*
X79250Y-50575D02*
X79250Y-51150D01*
X79225Y-50575D02*
X79225Y-51150D01*
X79200Y-50550D02*
X79200Y-51150D01*
X79175Y-50550D02*
X79175Y-51150D01*
X79150Y-50525D02*
X79150Y-51150D01*
X79125Y-50500D02*
X79125Y-51150D01*
X79100Y-50625D02*
X79100Y-51150D01*
X79075Y-50625D02*
X79075Y-51150D01*
X79050Y-50625D02*
X79050Y-51150D01*
X79025Y-50625D02*
X79025Y-51150D01*
X79000Y-50625D02*
X79000Y-51150D01*
X78975Y-50625D02*
X78975Y-51150D01*
X78975Y-42625D02*
X78975Y-49375D01*
X78950Y-50625D02*
X78950Y-51150D01*
X78950Y-42625D02*
X78950Y-49375D01*
X78925Y-50625D02*
X78925Y-51150D01*
X78925Y-42625D02*
X78925Y-49375D01*
X78900Y-50625D02*
X78900Y-51150D01*
X78900Y-42625D02*
X78900Y-49375D01*
X78875Y-50625D02*
X78875Y-51150D01*
X78875Y-42625D02*
X78875Y-49375D01*
X78850Y-50625D02*
X78850Y-51150D01*
X78850Y-42625D02*
X78850Y-49375D01*
X78825Y-50625D02*
X78825Y-51150D01*
X78825Y-42625D02*
X78825Y-49375D01*
X78800Y-50625D02*
X78800Y-51150D01*
X78800Y-42625D02*
X78800Y-49375D01*
X78775Y-50625D02*
X78775Y-51150D01*
X78775Y-42625D02*
X78775Y-49375D01*
X78750Y-50625D02*
X78750Y-51150D01*
X78750Y-42625D02*
X78750Y-49375D01*
X78725Y-50625D02*
X78725Y-51150D01*
X78725Y-42625D02*
X78725Y-49375D01*
X78700Y-50625D02*
X78700Y-51150D01*
X78700Y-42625D02*
X78700Y-49375D01*
X78675Y-50625D02*
X78675Y-51150D01*
X78675Y-42625D02*
X78675Y-49375D01*
X78650Y-50625D02*
X78650Y-51150D01*
X78650Y-42625D02*
X78650Y-49375D01*
X78625Y-50625D02*
X78625Y-51150D01*
X78625Y-42625D02*
X78625Y-49375D01*
X78600Y-50625D02*
X78600Y-51150D01*
X78600Y-42650D02*
X78600Y-49375D01*
X78575Y-50625D02*
X78575Y-51150D01*
X78575Y-42675D02*
X78575Y-49375D01*
X78550Y-50625D02*
X78550Y-51150D01*
X78550Y-42700D02*
X78550Y-49375D01*
X78525Y-50625D02*
X78525Y-51150D01*
X78525Y-42725D02*
X78525Y-49375D01*
X78500Y-50625D02*
X78500Y-51150D01*
X78500Y-42750D02*
X78500Y-49375D01*
X78475Y-50625D02*
X78475Y-51150D01*
X78475Y-42775D02*
X78475Y-49375D01*
X78450Y-50625D02*
X78450Y-51150D01*
X78450Y-42800D02*
X78450Y-49375D01*
X78425Y-50625D02*
X78425Y-51150D01*
X78425Y-42825D02*
X78425Y-49375D01*
X78400Y-50625D02*
X78400Y-51150D01*
X78400Y-42850D02*
X78400Y-49375D01*
X78375Y-50625D02*
X78375Y-51150D01*
X78375Y-42875D02*
X78375Y-49375D01*
X78350Y-50625D02*
X78350Y-51150D01*
X78350Y-42900D02*
X78350Y-49375D01*
X78325Y-50625D02*
X78325Y-51150D01*
X78325Y-42925D02*
X78325Y-49375D01*
X78300Y-50625D02*
X78300Y-51150D01*
X78300Y-42950D02*
X78300Y-49375D01*
X78275Y-50625D02*
X78275Y-51150D01*
X78275Y-42975D02*
X78275Y-49375D01*
X78250Y-50625D02*
X78250Y-51150D01*
X78250Y-43000D02*
X78250Y-49375D01*
X78225Y-50625D02*
X78225Y-51150D01*
X78225Y-43025D02*
X78225Y-49375D01*
X78200Y-50625D02*
X78200Y-51150D01*
X78200Y-43050D02*
X78200Y-49375D01*
X78175Y-50625D02*
X78175Y-51150D01*
X78175Y-43075D02*
X78175Y-49375D01*
X78150Y-50625D02*
X78150Y-51150D01*
X78150Y-43100D02*
X78150Y-49375D01*
X78125Y-50625D02*
X78125Y-51150D01*
X78125Y-43125D02*
X78125Y-49375D01*
X78100Y-50625D02*
X78100Y-51150D01*
X78100Y-43150D02*
X78100Y-49375D01*
X78075Y-50625D02*
X78075Y-51150D01*
X78075Y-43175D02*
X78075Y-49375D01*
X78050Y-50625D02*
X78050Y-51150D01*
X78050Y-43200D02*
X78050Y-49375D01*
X78025Y-50625D02*
X78025Y-51150D01*
X78025Y-49175D02*
X78025Y-49375D01*
X78025Y-48175D02*
X78025Y-48825D01*
X78025Y-45175D02*
X78025Y-47825D01*
X78025Y-43225D02*
X78025Y-44825D01*
X78000Y-50625D02*
X78000Y-51150D01*
X78000Y-49250D02*
X78000Y-49375D01*
X78000Y-48250D02*
X78000Y-48750D01*
X78000Y-45250D02*
X78000Y-45575D01*
X78000Y-43250D02*
X78000Y-43825D01*
X77975Y-50625D02*
X77975Y-51150D01*
X77975Y-49300D02*
X77975Y-49375D01*
X77975Y-48300D02*
X77975Y-48700D01*
X77975Y-45300D02*
X77975Y-45525D01*
X77975Y-43300D02*
X77975Y-43775D01*
X77950Y-50625D02*
X77950Y-51150D01*
X77950Y-49325D02*
X77950Y-49375D01*
X77950Y-48325D02*
X77950Y-48675D01*
X77950Y-45325D02*
X77950Y-45475D01*
X77950Y-43325D02*
X77950Y-43725D01*
X77925Y-50625D02*
X77925Y-51150D01*
X77925Y-49350D02*
X77925Y-49375D01*
X77925Y-48350D02*
X77925Y-48650D01*
X77925Y-45350D02*
X77925Y-45425D01*
X77925Y-43350D02*
X77925Y-43675D01*
X77900Y-50625D02*
X77900Y-51150D01*
X77900Y-48400D02*
X77900Y-48600D01*
X77900Y-43400D02*
X77900Y-43650D01*
X77875Y-49425D02*
X77875Y-51150D01*
X77875Y-48425D02*
X77875Y-48575D01*
X77875Y-43425D02*
X77875Y-43625D01*
X77850Y-49425D02*
X77850Y-51150D01*
X77850Y-48425D02*
X77850Y-48575D01*
X77850Y-43425D02*
X77850Y-43600D01*
X77825Y-49450D02*
X77825Y-51150D01*
X77825Y-48450D02*
X77825Y-48550D01*
X77825Y-43450D02*
X77825Y-43575D01*
X77800Y-49475D02*
X77800Y-51150D01*
X77800Y-48475D02*
X77800Y-48525D01*
X77800Y-43475D02*
X77800Y-43550D01*
X77775Y-49500D02*
X77775Y-51150D01*
X77775Y-43500D02*
X77775Y-43550D01*
X77750Y-49500D02*
X77750Y-51150D01*
X77750Y-43500D02*
X77750Y-43525D01*
X77725Y-49525D02*
X77725Y-51150D01*
X77700Y-49525D02*
X77700Y-51150D01*
X77675Y-49525D02*
X77675Y-51150D01*
X77650Y-49550D02*
X77650Y-51150D01*
X77625Y-49550D02*
X77625Y-51150D01*
X77600Y-49550D02*
X77600Y-51150D01*
X77575Y-49550D02*
X77575Y-51150D01*
X77550Y-49550D02*
X77550Y-51150D01*
X77525Y-49550D02*
X77525Y-51150D01*
X77500Y-49550D02*
X77500Y-51150D01*
X77475Y-49550D02*
X77475Y-51150D01*
X77450Y-49550D02*
X77450Y-51150D01*
X77425Y-49550D02*
X77425Y-51150D01*
X77400Y-49550D02*
X77400Y-51150D01*
X77375Y-49550D02*
X77375Y-51150D01*
X77350Y-49550D02*
X77350Y-51150D01*
X77325Y-49525D02*
X77325Y-51150D01*
X77300Y-49525D02*
X77300Y-51150D01*
X77275Y-49525D02*
X77275Y-51150D01*
X77250Y-49500D02*
X77250Y-51150D01*
X77225Y-49500D02*
X77225Y-51150D01*
X77200Y-49475D02*
X77200Y-51150D01*
X77175Y-49450D02*
X77175Y-51150D01*
X77150Y-49425D02*
X77150Y-51150D01*
X77125Y-49425D02*
X77125Y-51150D01*
X77100Y-49425D02*
X77100Y-51150D01*
X77075Y-49450D02*
X77075Y-51150D01*
X77050Y-49475D02*
X77050Y-51150D01*
X77025Y-49500D02*
X77025Y-51150D01*
X77000Y-49500D02*
X77000Y-51150D01*
X76975Y-49525D02*
X76975Y-51150D01*
X76950Y-49550D02*
X76950Y-51150D01*
X76925Y-49575D02*
X76925Y-51150D01*
X76900Y-49600D02*
X76900Y-51150D01*
X76875Y-49625D02*
X76875Y-51150D01*
X76850Y-49650D02*
X76850Y-51150D01*
X76825Y-49675D02*
X76825Y-51150D01*
X76800Y-49700D02*
X76800Y-51150D01*
X76775Y-49725D02*
X76775Y-51150D01*
X76750Y-49750D02*
X76750Y-51150D01*
X76725Y-49775D02*
X76725Y-51150D01*
X76700Y-49800D02*
X76700Y-51150D01*
X76675Y-49825D02*
X76675Y-51150D01*
X76650Y-49850D02*
X76650Y-51150D01*
X76625Y-49875D02*
X76625Y-51150D01*
X76600Y-49900D02*
X76600Y-51150D01*
X76575Y-49925D02*
X76575Y-51150D01*
X76550Y-49950D02*
X76550Y-51150D01*
X76525Y-49975D02*
X76525Y-51150D01*
X76500Y-50000D02*
X76500Y-51150D01*
X76475Y-50025D02*
X76475Y-51150D01*
X76450Y-50050D02*
X76450Y-51150D01*
X76425Y-50075D02*
X76425Y-51150D01*
X76400Y-50100D02*
X76400Y-51150D01*
X76375Y-50125D02*
X76375Y-51150D01*
X76350Y-50175D02*
X76350Y-51150D01*
X76325Y-50250D02*
X76325Y-51150D01*
X76300Y-50300D02*
X76300Y-51150D01*
X76275Y-50350D02*
X76275Y-51150D01*
X76250Y-50375D02*
X76250Y-51150D01*
X76225Y-50425D02*
X76225Y-51150D01*
X76200Y-50450D02*
X76200Y-51150D01*
X76175Y-50475D02*
X76175Y-51150D01*
X76150Y-50500D02*
X76150Y-51150D01*
X76125Y-50500D02*
X76125Y-51150D01*
X76100Y-50525D02*
X76100Y-51150D01*
X76075Y-50550D02*
X76075Y-51150D01*
X76050Y-50550D02*
X76050Y-51150D01*
X76025Y-50575D02*
X76025Y-51150D01*
X76000Y-50575D02*
X76000Y-51150D01*
X75975Y-50600D02*
X75975Y-51150D01*
X75950Y-50600D02*
X75950Y-51150D01*
X75925Y-50600D02*
X75925Y-51150D01*
X75900Y-50625D02*
X75900Y-51150D01*
X75875Y-50625D02*
X75875Y-51150D01*
X75850Y-50625D02*
X75850Y-51150D01*
X75825Y-50625D02*
X75825Y-51150D01*
X75800Y-50625D02*
X75800Y-51150D01*
X75775Y-50625D02*
X75775Y-51150D01*
X75750Y-50625D02*
X75750Y-51150D01*
X75725Y-50625D02*
X75725Y-51150D01*
X75700Y-50625D02*
X75700Y-51150D01*
X75675Y-50625D02*
X75675Y-51150D01*
X75650Y-50625D02*
X75650Y-51150D01*
X75625Y-50625D02*
X75625Y-51150D01*
X75600Y-50625D02*
X75600Y-51150D01*
X75575Y-50600D02*
X75575Y-51150D01*
X75550Y-50600D02*
X75550Y-51150D01*
X75525Y-50600D02*
X75525Y-51150D01*
X75500Y-50575D02*
X75500Y-51150D01*
X75475Y-50575D02*
X75475Y-51150D01*
X75450Y-50550D02*
X75450Y-51150D01*
X75425Y-50550D02*
X75425Y-51150D01*
X75400Y-50525D02*
X75400Y-51150D01*
X75375Y-50500D02*
X75375Y-51150D01*
X75350Y-50500D02*
X75350Y-51150D01*
X75325Y-50475D02*
X75325Y-51150D01*
X75300Y-50450D02*
X75300Y-51150D01*
X75275Y-50425D02*
X75275Y-51150D01*
X75250Y-50375D02*
X75250Y-51150D01*
X75225Y-50425D02*
X75225Y-51150D01*
X75200Y-50450D02*
X75200Y-51150D01*
X75175Y-50475D02*
X75175Y-51150D01*
X75150Y-50500D02*
X75150Y-51150D01*
X75125Y-50500D02*
X75125Y-51150D01*
X75100Y-50525D02*
X75100Y-51150D01*
X75075Y-50550D02*
X75075Y-51150D01*
X75050Y-50550D02*
X75050Y-51150D01*
X75025Y-50575D02*
X75025Y-51150D01*
X75000Y-50575D02*
X75000Y-51150D01*
X74975Y-50600D02*
X74975Y-51150D01*
X74950Y-50600D02*
X74950Y-51150D01*
X74925Y-50600D02*
X74925Y-51150D01*
X74900Y-50625D02*
X74900Y-51150D01*
X74875Y-50625D02*
X74875Y-51150D01*
X74850Y-50625D02*
X74850Y-51150D01*
X74825Y-50625D02*
X74825Y-51150D01*
X74800Y-50625D02*
X74800Y-51150D01*
X74775Y-50625D02*
X74775Y-51150D01*
X74750Y-50625D02*
X74750Y-51150D01*
X74725Y-50625D02*
X74725Y-51150D01*
X74700Y-50625D02*
X74700Y-51150D01*
X74675Y-50625D02*
X74675Y-51150D01*
X74650Y-50625D02*
X74650Y-51150D01*
X74625Y-50625D02*
X74625Y-51150D01*
X74600Y-50625D02*
X74600Y-51150D01*
X74575Y-50600D02*
X74575Y-51150D01*
X74550Y-50600D02*
X74550Y-51150D01*
X74525Y-50600D02*
X74525Y-51150D01*
X74500Y-50575D02*
X74500Y-51150D01*
X74475Y-50575D02*
X74475Y-51150D01*
X74450Y-50550D02*
X74450Y-51150D01*
X74425Y-50550D02*
X74425Y-51150D01*
X74400Y-50525D02*
X74400Y-51150D01*
X74375Y-50500D02*
X74375Y-51150D01*
X74350Y-50625D02*
X74350Y-51150D01*
X74325Y-50625D02*
X74325Y-51150D01*
X74300Y-50625D02*
X74300Y-51150D01*
X74275Y-50625D02*
X74275Y-51150D01*
X74250Y-50625D02*
X74250Y-51150D01*
X74225Y-50625D02*
X74225Y-51150D01*
X74225Y-49300D02*
X74225Y-49375D01*
X74225Y-48300D02*
X74225Y-48700D01*
X74200Y-50625D02*
X74200Y-51150D01*
X74200Y-49325D02*
X74200Y-49375D01*
X74200Y-48325D02*
X74200Y-48675D01*
X74175Y-50625D02*
X74175Y-51150D01*
X74175Y-49350D02*
X74175Y-49375D01*
X74175Y-48350D02*
X74175Y-48650D01*
X74150Y-50625D02*
X74150Y-51150D01*
X74150Y-48400D02*
X74150Y-48600D01*
X74125Y-50625D02*
X74125Y-51150D01*
X74125Y-48425D02*
X74125Y-48575D01*
X74100Y-50625D02*
X74100Y-51150D01*
X74100Y-48425D02*
X74100Y-48575D01*
X74075Y-50625D02*
X74075Y-51150D01*
X74075Y-48450D02*
X74075Y-48550D01*
X74050Y-50625D02*
X74050Y-51150D01*
X74050Y-48475D02*
X74050Y-48525D01*
X74025Y-50625D02*
X74025Y-51150D01*
X74000Y-50625D02*
X74000Y-51150D01*
X73975Y-50625D02*
X73975Y-51150D01*
X73950Y-50625D02*
X73950Y-51150D01*
X73925Y-50625D02*
X73925Y-51150D01*
X73900Y-50625D02*
X73900Y-51150D01*
X73875Y-50625D02*
X73875Y-51150D01*
X73850Y-50625D02*
X73850Y-51150D01*
X73825Y-50625D02*
X73825Y-51150D01*
X73800Y-50625D02*
X73800Y-51150D01*
X73775Y-50625D02*
X73775Y-51150D01*
X73750Y-50625D02*
X73750Y-51150D01*
X73725Y-50625D02*
X73725Y-51150D01*
X73700Y-50625D02*
X73700Y-51150D01*
X73700Y-41100D02*
X73700Y-41125D01*
X73675Y-50625D02*
X73675Y-51150D01*
X73675Y-41100D02*
X73675Y-41150D01*
X73650Y-50625D02*
X73650Y-51150D01*
X73650Y-41100D02*
X73650Y-41200D01*
X73625Y-50625D02*
X73625Y-51150D01*
X73625Y-41100D02*
X73625Y-41225D01*
X73600Y-50625D02*
X73600Y-51150D01*
X73600Y-41100D02*
X73600Y-41275D01*
X73575Y-50625D02*
X73575Y-51150D01*
X73575Y-41100D02*
X73575Y-41300D01*
X73550Y-50625D02*
X73550Y-51150D01*
X73550Y-41100D02*
X73550Y-41350D01*
X73525Y-50625D02*
X73525Y-51150D01*
X73525Y-41100D02*
X73525Y-41375D01*
X73500Y-50625D02*
X73500Y-51150D01*
X73500Y-41100D02*
X73500Y-41375D01*
X73475Y-50625D02*
X73475Y-51150D01*
X73475Y-41100D02*
X73475Y-41375D01*
X73450Y-50625D02*
X73450Y-51150D01*
X73450Y-41100D02*
X73450Y-41375D01*
X73425Y-50625D02*
X73425Y-51150D01*
X73425Y-41100D02*
X73425Y-41375D01*
X73400Y-50625D02*
X73400Y-51150D01*
X73400Y-41100D02*
X73400Y-41375D01*
X73375Y-50625D02*
X73375Y-51150D01*
X73375Y-41100D02*
X73375Y-41375D01*
X73350Y-50625D02*
X73350Y-51150D01*
X73350Y-41100D02*
X73350Y-41375D01*
X73325Y-50625D02*
X73325Y-51150D01*
X73325Y-49350D02*
X73325Y-49375D01*
X73325Y-41100D02*
X73325Y-41375D01*
X73300Y-50625D02*
X73300Y-51150D01*
X73300Y-49325D02*
X73300Y-49375D01*
X73300Y-41100D02*
X73300Y-41375D01*
X73275Y-50625D02*
X73275Y-51150D01*
X73275Y-49300D02*
X73275Y-49375D01*
X73275Y-41100D02*
X73275Y-41375D01*
X73250Y-50625D02*
X73250Y-51150D01*
X73250Y-49250D02*
X73250Y-49375D01*
X73250Y-41100D02*
X73250Y-41375D01*
X73225Y-50625D02*
X73225Y-51150D01*
X73225Y-49175D02*
X73225Y-49375D01*
X73225Y-46200D02*
X73225Y-46475D01*
X73225Y-41100D02*
X73225Y-41375D01*
X73200Y-50625D02*
X73200Y-51150D01*
X73200Y-49125D02*
X73200Y-49375D01*
X73200Y-46225D02*
X73200Y-46475D01*
X73200Y-41100D02*
X73200Y-41375D01*
X73175Y-50625D02*
X73175Y-51150D01*
X73175Y-49150D02*
X73175Y-49375D01*
X73175Y-46225D02*
X73175Y-46475D01*
X73175Y-41100D02*
X73175Y-41375D01*
X73150Y-50625D02*
X73150Y-51150D01*
X73150Y-49175D02*
X73150Y-49375D01*
X73150Y-46225D02*
X73150Y-46475D01*
X73150Y-41100D02*
X73150Y-41375D01*
X73125Y-49175D02*
X73125Y-51150D01*
X73125Y-46225D02*
X73125Y-46475D01*
X73125Y-41100D02*
X73125Y-41475D01*
X73100Y-49200D02*
X73100Y-51150D01*
X73100Y-46225D02*
X73100Y-46475D01*
X73100Y-41100D02*
X73100Y-41475D01*
X73075Y-49225D02*
X73075Y-51150D01*
X73075Y-46225D02*
X73075Y-46475D01*
X73075Y-41100D02*
X73075Y-41475D01*
X73050Y-49250D02*
X73050Y-51150D01*
X73050Y-46225D02*
X73050Y-46475D01*
X73050Y-41100D02*
X73050Y-41475D01*
X73025Y-49275D02*
X73025Y-51150D01*
X73025Y-46225D02*
X73025Y-46475D01*
X73025Y-41100D02*
X73025Y-41475D01*
X73000Y-49275D02*
X73000Y-51150D01*
X73000Y-46225D02*
X73000Y-46475D01*
X73000Y-41100D02*
X73000Y-41475D01*
X72975Y-49300D02*
X72975Y-51150D01*
X72975Y-46225D02*
X72975Y-46475D01*
X72975Y-41100D02*
X72975Y-41475D01*
X72950Y-49325D02*
X72950Y-51150D01*
X72950Y-46225D02*
X72950Y-46475D01*
X72950Y-41100D02*
X72950Y-41475D01*
X72925Y-49350D02*
X72925Y-51150D01*
X72925Y-46225D02*
X72925Y-46475D01*
X72925Y-41100D02*
X72925Y-41475D01*
X72900Y-49375D02*
X72900Y-51150D01*
X72900Y-46200D02*
X72900Y-46475D01*
X72900Y-41100D02*
X72900Y-41475D01*
X72875Y-49375D02*
X72875Y-51150D01*
X72875Y-46200D02*
X72875Y-46475D01*
X72875Y-41100D02*
X72875Y-41475D01*
X72850Y-49400D02*
X72850Y-51150D01*
X72850Y-46200D02*
X72850Y-46475D01*
X72850Y-41100D02*
X72850Y-41475D01*
X72825Y-49425D02*
X72825Y-51150D01*
X72825Y-46175D02*
X72825Y-46475D01*
X72825Y-41100D02*
X72825Y-41475D01*
X72800Y-49450D02*
X72800Y-51150D01*
X72800Y-46175D02*
X72800Y-46475D01*
X72800Y-41100D02*
X72800Y-41475D01*
X72775Y-49450D02*
X72775Y-51150D01*
X72775Y-46150D02*
X72775Y-46475D01*
X72775Y-41100D02*
X72775Y-41475D01*
X72750Y-49475D02*
X72750Y-51150D01*
X72750Y-46125D02*
X72750Y-46475D01*
X72750Y-41100D02*
X72750Y-41475D01*
X72725Y-49475D02*
X72725Y-51150D01*
X72725Y-46100D02*
X72725Y-46475D01*
X72725Y-41100D02*
X72725Y-41475D01*
X72700Y-49500D02*
X72700Y-51150D01*
X72700Y-46100D02*
X72700Y-46475D01*
X72700Y-41100D02*
X72700Y-41475D01*
X72675Y-49500D02*
X72675Y-51150D01*
X72675Y-46075D02*
X72675Y-46475D01*
X72675Y-41100D02*
X72675Y-41475D01*
X72650Y-49525D02*
X72650Y-51150D01*
X72650Y-46050D02*
X72650Y-46475D01*
X72650Y-41100D02*
X72650Y-41475D01*
X72625Y-49525D02*
X72625Y-51150D01*
X72625Y-46025D02*
X72625Y-46475D01*
X72625Y-41100D02*
X72625Y-41475D01*
X72600Y-49525D02*
X72600Y-51150D01*
X72600Y-46000D02*
X72600Y-46475D01*
X72600Y-41100D02*
X72600Y-41475D01*
X72575Y-49525D02*
X72575Y-51150D01*
X72575Y-45975D02*
X72575Y-46475D01*
X72575Y-41100D02*
X72575Y-41475D01*
X72550Y-49525D02*
X72550Y-51150D01*
X72550Y-45950D02*
X72550Y-46475D01*
X72550Y-41100D02*
X72550Y-41475D01*
X72525Y-49525D02*
X72525Y-51150D01*
X72525Y-45925D02*
X72525Y-46475D01*
X72525Y-41100D02*
X72525Y-41475D01*
X72500Y-49525D02*
X72500Y-51150D01*
X72500Y-45900D02*
X72500Y-46475D01*
X72500Y-41100D02*
X72500Y-41475D01*
X72475Y-49525D02*
X72475Y-51150D01*
X72475Y-45875D02*
X72475Y-46475D01*
X72475Y-41100D02*
X72475Y-41475D01*
X72450Y-49525D02*
X72450Y-51150D01*
X72450Y-45850D02*
X72450Y-46475D01*
X72450Y-41100D02*
X72450Y-41475D01*
X72425Y-49525D02*
X72425Y-51150D01*
X72425Y-45825D02*
X72425Y-46475D01*
X72425Y-41100D02*
X72425Y-41475D01*
X72400Y-49525D02*
X72400Y-51150D01*
X72400Y-45800D02*
X72400Y-46475D01*
X72400Y-41100D02*
X72400Y-41475D01*
X72375Y-49525D02*
X72375Y-51150D01*
X72375Y-45775D02*
X72375Y-46475D01*
X72375Y-41100D02*
X72375Y-41475D01*
X72350Y-49525D02*
X72350Y-51150D01*
X72350Y-45750D02*
X72350Y-46475D01*
X72350Y-41100D02*
X72350Y-41475D01*
X72325Y-49525D02*
X72325Y-51150D01*
X72325Y-45725D02*
X72325Y-46475D01*
X72325Y-41100D02*
X72325Y-41500D01*
X72300Y-49525D02*
X72300Y-51150D01*
X72300Y-45700D02*
X72300Y-46475D01*
X72300Y-41100D02*
X72300Y-41500D01*
X72275Y-49525D02*
X72275Y-51150D01*
X72275Y-45675D02*
X72275Y-46475D01*
X72275Y-41100D02*
X72275Y-41525D01*
X72250Y-49525D02*
X72250Y-51150D01*
X72250Y-45650D02*
X72250Y-46475D01*
X72250Y-41100D02*
X72250Y-41525D01*
X72225Y-49525D02*
X72225Y-51150D01*
X72225Y-45625D02*
X72225Y-46475D01*
X72225Y-42450D02*
X72225Y-42475D01*
X72225Y-41100D02*
X72225Y-41550D01*
X72200Y-49525D02*
X72200Y-51150D01*
X72200Y-45600D02*
X72200Y-46475D01*
X72200Y-42450D02*
X72200Y-42475D01*
X72200Y-41100D02*
X72200Y-41550D01*
X72175Y-49525D02*
X72175Y-51150D01*
X72175Y-45575D02*
X72175Y-46475D01*
X72175Y-42425D02*
X72175Y-42475D01*
X72175Y-41100D02*
X72175Y-41575D01*
X72150Y-49525D02*
X72150Y-51150D01*
X72150Y-45550D02*
X72150Y-46475D01*
X72150Y-42400D02*
X72150Y-42475D01*
X72150Y-41100D02*
X72150Y-41600D01*
X72125Y-49525D02*
X72125Y-51150D01*
X72125Y-45525D02*
X72125Y-46475D01*
X72125Y-42375D02*
X72125Y-42475D01*
X72125Y-41100D02*
X72125Y-41625D01*
X72100Y-49525D02*
X72100Y-51150D01*
X72100Y-45525D02*
X72100Y-46475D01*
X72100Y-42350D02*
X72100Y-42475D01*
X72100Y-41100D02*
X72100Y-41650D01*
X72075Y-49525D02*
X72075Y-51150D01*
X72075Y-45525D02*
X72075Y-46475D01*
X72075Y-42325D02*
X72075Y-42475D01*
X72075Y-41100D02*
X72075Y-41675D01*
X72050Y-49525D02*
X72050Y-51150D01*
X72050Y-45525D02*
X72050Y-46475D01*
X72050Y-42275D02*
X72050Y-42475D01*
X72050Y-41100D02*
X72050Y-41725D01*
X72025Y-49525D02*
X72025Y-51150D01*
X72025Y-46175D02*
X72025Y-46475D01*
X72025Y-45525D02*
X72025Y-45825D01*
X72025Y-42225D02*
X72025Y-42475D01*
X72025Y-41100D02*
X72025Y-41775D01*
X72000Y-49525D02*
X72000Y-51150D01*
X72000Y-46250D02*
X72000Y-46475D01*
X72000Y-45525D02*
X72000Y-45750D01*
X72000Y-42250D02*
X72000Y-42475D01*
X72000Y-41100D02*
X72000Y-41750D01*
X71975Y-49525D02*
X71975Y-51150D01*
X71975Y-46300D02*
X71975Y-46475D01*
X71975Y-45525D02*
X71975Y-45700D01*
X71975Y-42300D02*
X71975Y-42475D01*
X71975Y-41100D02*
X71975Y-41700D01*
X71950Y-49525D02*
X71950Y-51150D01*
X71950Y-46325D02*
X71950Y-46475D01*
X71950Y-45525D02*
X71950Y-45675D01*
X71950Y-42325D02*
X71950Y-42475D01*
X71950Y-41100D02*
X71950Y-41675D01*
X71925Y-49525D02*
X71925Y-51150D01*
X71925Y-46350D02*
X71925Y-46475D01*
X71925Y-45525D02*
X71925Y-45650D01*
X71925Y-42350D02*
X71925Y-42475D01*
X71925Y-41100D02*
X71925Y-41650D01*
X71900Y-49525D02*
X71900Y-51150D01*
X71900Y-46400D02*
X71900Y-46475D01*
X71900Y-45525D02*
X71900Y-45600D01*
X71900Y-42400D02*
X71900Y-42475D01*
X71900Y-41100D02*
X71900Y-41600D01*
X71875Y-49525D02*
X71875Y-51150D01*
X71875Y-46425D02*
X71875Y-46475D01*
X71875Y-45525D02*
X71875Y-45575D01*
X71875Y-42425D02*
X71875Y-42475D01*
X71875Y-41100D02*
X71875Y-41575D01*
X71850Y-49525D02*
X71850Y-51150D01*
X71850Y-46425D02*
X71850Y-46475D01*
X71850Y-45525D02*
X71850Y-45575D01*
X71850Y-42425D02*
X71850Y-42475D01*
X71850Y-41100D02*
X71850Y-41575D01*
X71825Y-49525D02*
X71825Y-51150D01*
X71825Y-46450D02*
X71825Y-46475D01*
X71825Y-45525D02*
X71825Y-45550D01*
X71825Y-42450D02*
X71825Y-42475D01*
X71825Y-41100D02*
X71825Y-41550D01*
X71800Y-49525D02*
X71800Y-51150D01*
X71800Y-41100D02*
X71800Y-41525D01*
X71775Y-49525D02*
X71775Y-51150D01*
X71775Y-41100D02*
X71775Y-41500D01*
X71750Y-49525D02*
X71750Y-51150D01*
X71750Y-41100D02*
X71750Y-41500D01*
X71725Y-49525D02*
X71725Y-51150D01*
X71725Y-41100D02*
X71725Y-41475D01*
X71700Y-49525D02*
X71700Y-51150D01*
X71700Y-41100D02*
X71700Y-41475D01*
X71675Y-49525D02*
X71675Y-51150D01*
X71675Y-41100D02*
X71675Y-41475D01*
X71650Y-49550D02*
X71650Y-51150D01*
X71650Y-41100D02*
X71650Y-41450D01*
X71625Y-49550D02*
X71625Y-51150D01*
X71625Y-41100D02*
X71625Y-41450D01*
X71600Y-49550D02*
X71600Y-51150D01*
X71600Y-41100D02*
X71600Y-41450D01*
X71575Y-49550D02*
X71575Y-51150D01*
X71575Y-41100D02*
X71575Y-41450D01*
X71550Y-49550D02*
X71550Y-51150D01*
X71550Y-41100D02*
X71550Y-41450D01*
X71525Y-49550D02*
X71525Y-51150D01*
X71525Y-41100D02*
X71525Y-41450D01*
X71500Y-49550D02*
X71500Y-51150D01*
X71500Y-41100D02*
X71500Y-41450D01*
X71475Y-49550D02*
X71475Y-51150D01*
X71475Y-41100D02*
X71475Y-41450D01*
X71450Y-49550D02*
X71450Y-51150D01*
X71450Y-41100D02*
X71450Y-41450D01*
X71425Y-49550D02*
X71425Y-51150D01*
X71425Y-41100D02*
X71425Y-41450D01*
X71400Y-49550D02*
X71400Y-51150D01*
X71400Y-41100D02*
X71400Y-41450D01*
X71375Y-49550D02*
X71375Y-51150D01*
X71375Y-41100D02*
X71375Y-41450D01*
X71350Y-49550D02*
X71350Y-51150D01*
X71350Y-41100D02*
X71350Y-41450D01*
X71325Y-49525D02*
X71325Y-51150D01*
X71325Y-41100D02*
X71325Y-41475D01*
X71300Y-49525D02*
X71300Y-51150D01*
X71300Y-41100D02*
X71300Y-41475D01*
X71275Y-49525D02*
X71275Y-51150D01*
X71275Y-41100D02*
X71275Y-41475D01*
X71250Y-49500D02*
X71250Y-51150D01*
X71250Y-41100D02*
X71250Y-41500D01*
X71225Y-49500D02*
X71225Y-51150D01*
X71225Y-41100D02*
X71225Y-41500D01*
X71200Y-49475D02*
X71200Y-51150D01*
X71200Y-48475D02*
X71200Y-48525D01*
X71200Y-47475D02*
X71200Y-47525D01*
X71200Y-46475D02*
X71200Y-46525D01*
X71200Y-45475D02*
X71200Y-45525D01*
X71200Y-44475D02*
X71200Y-44525D01*
X71200Y-43475D02*
X71200Y-43525D01*
X71200Y-42475D02*
X71200Y-42525D01*
X71200Y-41100D02*
X71200Y-41525D01*
X71175Y-49450D02*
X71175Y-51150D01*
X71175Y-48450D02*
X71175Y-48550D01*
X71175Y-47450D02*
X71175Y-47550D01*
X71175Y-46450D02*
X71175Y-46550D01*
X71175Y-45450D02*
X71175Y-45550D01*
X71175Y-44450D02*
X71175Y-44550D01*
X71175Y-43450D02*
X71175Y-43550D01*
X71175Y-42450D02*
X71175Y-42550D01*
X71175Y-41100D02*
X71175Y-41550D01*
X71150Y-49425D02*
X71150Y-51150D01*
X71150Y-48425D02*
X71150Y-48575D01*
X71150Y-47425D02*
X71150Y-47575D01*
X71150Y-46425D02*
X71150Y-46575D01*
X71150Y-45425D02*
X71150Y-45575D01*
X71150Y-44425D02*
X71150Y-44575D01*
X71150Y-43425D02*
X71150Y-43575D01*
X71150Y-42425D02*
X71150Y-42575D01*
X71150Y-41100D02*
X71150Y-41575D01*
X71125Y-49425D02*
X71125Y-51150D01*
X71125Y-48425D02*
X71125Y-48575D01*
X71125Y-47425D02*
X71125Y-47575D01*
X71125Y-46425D02*
X71125Y-46575D01*
X71125Y-45425D02*
X71125Y-45575D01*
X71125Y-44425D02*
X71125Y-44575D01*
X71125Y-43425D02*
X71125Y-43575D01*
X71125Y-42425D02*
X71125Y-42575D01*
X71125Y-41100D02*
X71125Y-41575D01*
X71100Y-49400D02*
X71100Y-51150D01*
X71100Y-48400D02*
X71100Y-48600D01*
X71100Y-47400D02*
X71100Y-47600D01*
X71100Y-46400D02*
X71100Y-46600D01*
X71100Y-45400D02*
X71100Y-45600D01*
X71100Y-44400D02*
X71100Y-44600D01*
X71100Y-43400D02*
X71100Y-43600D01*
X71100Y-42400D02*
X71100Y-42600D01*
X71100Y-41100D02*
X71100Y-41600D01*
X71075Y-49350D02*
X71075Y-51150D01*
X71075Y-48350D02*
X71075Y-48650D01*
X71075Y-47350D02*
X71075Y-47650D01*
X71075Y-46350D02*
X71075Y-46650D01*
X71075Y-45350D02*
X71075Y-45650D01*
X71075Y-44350D02*
X71075Y-44650D01*
X71075Y-43350D02*
X71075Y-43650D01*
X71075Y-42350D02*
X71075Y-42650D01*
X71075Y-41100D02*
X71075Y-41650D01*
X71050Y-49325D02*
X71050Y-51150D01*
X71050Y-48325D02*
X71050Y-48675D01*
X71050Y-47325D02*
X71050Y-47675D01*
X71050Y-46325D02*
X71050Y-46675D01*
X71050Y-45325D02*
X71050Y-45675D01*
X71050Y-44325D02*
X71050Y-44675D01*
X71050Y-43325D02*
X71050Y-43675D01*
X71050Y-42325D02*
X71050Y-42675D01*
X71050Y-41100D02*
X71050Y-41675D01*
X71025Y-49300D02*
X71025Y-51150D01*
X71025Y-48300D02*
X71025Y-48700D01*
X71025Y-47300D02*
X71025Y-47700D01*
X71025Y-46300D02*
X71025Y-46700D01*
X71025Y-45300D02*
X71025Y-45700D01*
X71025Y-44300D02*
X71025Y-44700D01*
X71025Y-43300D02*
X71025Y-43700D01*
X71025Y-42300D02*
X71025Y-42700D01*
X71025Y-41100D02*
X71025Y-41700D01*
X71000Y-49250D02*
X71000Y-51150D01*
X71000Y-48250D02*
X71000Y-48750D01*
X71000Y-47250D02*
X71000Y-47750D01*
X71000Y-46250D02*
X71000Y-46750D01*
X71000Y-45250D02*
X71000Y-45750D01*
X71000Y-44250D02*
X71000Y-44750D01*
X71000Y-43250D02*
X71000Y-43750D01*
X71000Y-42250D02*
X71000Y-42750D01*
X71000Y-41100D02*
X71000Y-41750D01*
X70975Y-49175D02*
X70975Y-51150D01*
X70975Y-48175D02*
X70975Y-48825D01*
X70975Y-47175D02*
X70975Y-47825D01*
X70975Y-46175D02*
X70975Y-46825D01*
X70975Y-45175D02*
X70975Y-45825D01*
X70975Y-44175D02*
X70975Y-44825D01*
X70975Y-43175D02*
X70975Y-43825D01*
X70975Y-42175D02*
X70975Y-42825D01*
X70975Y-41100D02*
X70975Y-41825D01*
X70950Y-41100D02*
X70950Y-51150D01*
X70925Y-41100D02*
X70925Y-51150D01*
X70900Y-41100D02*
X70900Y-51150D01*
X70875Y-41100D02*
X70875Y-51150D01*
X70850Y-41100D02*
X70850Y-51150D01*
X70825Y-41100D02*
X70825Y-51150D01*
X70800Y-41100D02*
X70800Y-51150D01*
X70775Y-41100D02*
X70775Y-51150D01*
X70750Y-41100D02*
X70750Y-51150D01*
X70725Y-41100D02*
X70725Y-51150D01*
X70700Y-41100D02*
X70700Y-51150D01*
X70675Y-41100D02*
X70675Y-51150D01*
X70650Y-41100D02*
X70650Y-51150D01*
X70625Y-41100D02*
X70625Y-51150D01*
X70600Y-41100D02*
X70600Y-51150D01*
X70575Y-41100D02*
X70575Y-51150D01*
X70550Y-41100D02*
X70550Y-51150D01*
X70525Y-41100D02*
X70525Y-51150D01*
X70500Y-41100D02*
X70500Y-51150D01*
X70475Y-41100D02*
X70475Y-51150D01*
X70450Y-41100D02*
X70450Y-51150D01*
X70425Y-41100D02*
X70425Y-51150D01*
X70400Y-41100D02*
X70400Y-51150D01*
X70375Y-41100D02*
X70375Y-51150D01*
X70350Y-41100D02*
X70350Y-51150D01*
X70325Y-41100D02*
X70325Y-51150D01*
X70300Y-41100D02*
X70300Y-51150D01*
X70275Y-41100D02*
X70275Y-51150D01*
X70250Y-41100D02*
X70250Y-51150D01*
X70225Y-41100D02*
X70225Y-51150D01*
X70200Y-41100D02*
X70200Y-51150D01*
X70175Y-41100D02*
X70175Y-51150D01*
X70150Y-41100D02*
X70150Y-51150D01*
X70125Y-41100D02*
X70125Y-51150D01*
X70100Y-41100D02*
X70100Y-51150D01*
X70075Y-41100D02*
X70075Y-51150D01*
X70050Y-41100D02*
X70050Y-51150D01*
X70025Y-41100D02*
X70025Y-51150D01*
X70000Y-47675D02*
X70000Y-51150D01*
X70000Y-41100D02*
X70000Y-44325D01*
X69975Y-47725D02*
X69975Y-51150D01*
X69975Y-41100D02*
X69975Y-44275D01*
X69950Y-47775D02*
X69950Y-51150D01*
X69950Y-41100D02*
X69950Y-44225D01*
X69925Y-47825D02*
X69925Y-51150D01*
X69925Y-41100D02*
X69925Y-44175D01*
X69900Y-47850D02*
X69900Y-51150D01*
X69900Y-41100D02*
X69900Y-44150D01*
X69875Y-47875D02*
X69875Y-51150D01*
X69875Y-41100D02*
X69875Y-44125D01*
X69850Y-47900D02*
X69850Y-51150D01*
X69850Y-41100D02*
X69850Y-44100D01*
X69825Y-47925D02*
X69825Y-51150D01*
X69825Y-41100D02*
X69825Y-44075D01*
X69800Y-47950D02*
X69800Y-51150D01*
X69800Y-41100D02*
X69800Y-44050D01*
X69775Y-47975D02*
X69775Y-51150D01*
X69775Y-41100D02*
X69775Y-44025D01*
X69750Y-48000D02*
X69750Y-51150D01*
X69750Y-41100D02*
X69750Y-44000D01*
X69725Y-48025D02*
X69725Y-51150D01*
X69725Y-41100D02*
X69725Y-43975D01*
X69700Y-48050D02*
X69700Y-51150D01*
X69700Y-41100D02*
X69700Y-43950D01*
X69675Y-48075D02*
X69675Y-51150D01*
X69675Y-41100D02*
X69675Y-43925D01*
X69650Y-48100D02*
X69650Y-51150D01*
X69650Y-41100D02*
X69650Y-43900D01*
X69625Y-48125D02*
X69625Y-51150D01*
X69625Y-41100D02*
X69625Y-43875D01*
X69600Y-48150D02*
X69600Y-51150D01*
X69600Y-41100D02*
X69600Y-43850D01*
X69575Y-48175D02*
X69575Y-51150D01*
X69575Y-41100D02*
X69575Y-43825D01*
X69550Y-48200D02*
X69550Y-51150D01*
X69550Y-41100D02*
X69550Y-43800D01*
X69525Y-48225D02*
X69525Y-51150D01*
X69525Y-41100D02*
X69525Y-43775D01*
X69500Y-48250D02*
X69500Y-51150D01*
X69500Y-41100D02*
X69500Y-43750D01*
X69475Y-48275D02*
X69475Y-51150D01*
X69475Y-41100D02*
X69475Y-43725D01*
X69450Y-48300D02*
X69450Y-51150D01*
X69450Y-41100D02*
X69450Y-43700D01*
X69425Y-48325D02*
X69425Y-51150D01*
X69425Y-41100D02*
X69425Y-43675D01*
X69400Y-48350D02*
X69400Y-51150D01*
X69400Y-41100D02*
X69400Y-43650D01*
X69375Y-48375D02*
X69375Y-51150D01*
X69375Y-41100D02*
X69375Y-43625D01*
X69350Y-48400D02*
X69350Y-51150D01*
X69350Y-41100D02*
X69350Y-43600D01*
X69325Y-48425D02*
X69325Y-51150D01*
X69325Y-41100D02*
X69325Y-43575D01*
X69300Y-48450D02*
X69300Y-51150D01*
X69300Y-41100D02*
X69300Y-43550D01*
X69275Y-48450D02*
X69275Y-51150D01*
X69275Y-41100D02*
X69275Y-43550D01*
X69250Y-48475D02*
X69250Y-51150D01*
X69250Y-41100D02*
X69250Y-43525D01*
X69225Y-48475D02*
X69225Y-51150D01*
X69225Y-41100D02*
X69225Y-43525D01*
X69200Y-48500D02*
X69200Y-51150D01*
X69200Y-41100D02*
X69200Y-43500D01*
X69175Y-48500D02*
X69175Y-51150D01*
X69175Y-41100D02*
X69175Y-43500D01*
X69150Y-48525D02*
X69150Y-51150D01*
X69150Y-41100D02*
X69150Y-43475D01*
X69125Y-48525D02*
X69125Y-51150D01*
X69125Y-41100D02*
X69125Y-43475D01*
X69100Y-48525D02*
X69100Y-51150D01*
X69100Y-41100D02*
X69100Y-43475D01*
X69075Y-48525D02*
X69075Y-51150D01*
X69075Y-41100D02*
X69075Y-43475D01*
X69050Y-48525D02*
X69050Y-51150D01*
X69050Y-41100D02*
X69050Y-43475D01*
X69025Y-49175D02*
X69025Y-51150D01*
X69025Y-48525D02*
X69025Y-48825D01*
X69025Y-43175D02*
X69025Y-43475D01*
X69025Y-42550D02*
X69025Y-42825D01*
X69025Y-41100D02*
X69025Y-41450D01*
X69000Y-49250D02*
X69000Y-51150D01*
X69000Y-48525D02*
X69000Y-48750D01*
X69000Y-43250D02*
X69000Y-43475D01*
X69000Y-42550D02*
X69000Y-42750D01*
X69000Y-41100D02*
X69000Y-41450D01*
X68975Y-49300D02*
X68975Y-51150D01*
X68975Y-48525D02*
X68975Y-48700D01*
X68975Y-43300D02*
X68975Y-43475D01*
X68975Y-42550D02*
X68975Y-42700D01*
X68975Y-41100D02*
X68975Y-41450D01*
X68950Y-49325D02*
X68950Y-51150D01*
X68950Y-48525D02*
X68950Y-48675D01*
X68950Y-43325D02*
X68950Y-43475D01*
X68950Y-42550D02*
X68950Y-42675D01*
X68950Y-41100D02*
X68950Y-41450D01*
X68925Y-49350D02*
X68925Y-51150D01*
X68925Y-48525D02*
X68925Y-48650D01*
X68925Y-43350D02*
X68925Y-43475D01*
X68925Y-42550D02*
X68925Y-42650D01*
X68925Y-41100D02*
X68925Y-41450D01*
X68900Y-49400D02*
X68900Y-51150D01*
X68900Y-48525D02*
X68900Y-48600D01*
X68900Y-43400D02*
X68900Y-43475D01*
X68900Y-42550D02*
X68900Y-42600D01*
X68900Y-41100D02*
X68900Y-41450D01*
X68875Y-49425D02*
X68875Y-51150D01*
X68875Y-48525D02*
X68875Y-48575D01*
X68875Y-43425D02*
X68875Y-43475D01*
X68875Y-42550D02*
X68875Y-42575D01*
X68875Y-41100D02*
X68875Y-41450D01*
X68850Y-49425D02*
X68850Y-51150D01*
X68850Y-48525D02*
X68850Y-48575D01*
X68850Y-43425D02*
X68850Y-43475D01*
X68850Y-42550D02*
X68850Y-42575D01*
X68850Y-41100D02*
X68850Y-41450D01*
X68825Y-49450D02*
X68825Y-51150D01*
X68825Y-48525D02*
X68825Y-48550D01*
X68825Y-43450D02*
X68825Y-43475D01*
X68825Y-41100D02*
X68825Y-41450D01*
X68800Y-49475D02*
X68800Y-51150D01*
X68800Y-41100D02*
X68800Y-41450D01*
X68775Y-49500D02*
X68775Y-51150D01*
X68775Y-41100D02*
X68775Y-41450D01*
X68750Y-49500D02*
X68750Y-51150D01*
X68750Y-41100D02*
X68750Y-41450D01*
X68725Y-49525D02*
X68725Y-51150D01*
X68725Y-41100D02*
X68725Y-41450D01*
X68700Y-49525D02*
X68700Y-51150D01*
X68700Y-41100D02*
X68700Y-41450D01*
X68675Y-49525D02*
X68675Y-51150D01*
X68675Y-41100D02*
X68675Y-41450D01*
X68650Y-49550D02*
X68650Y-51150D01*
X68650Y-41100D02*
X68650Y-41450D01*
X68625Y-49550D02*
X68625Y-51150D01*
X68625Y-41100D02*
X68625Y-41450D01*
X68600Y-49550D02*
X68600Y-51150D01*
X68600Y-41100D02*
X68600Y-41450D01*
X68575Y-49550D02*
X68575Y-51150D01*
X68575Y-41100D02*
X68575Y-41450D01*
X68550Y-49550D02*
X68550Y-51150D01*
X68550Y-41100D02*
X68550Y-41450D01*
X68525Y-49550D02*
X68525Y-51150D01*
X68525Y-41100D02*
X68525Y-41450D01*
X68500Y-49550D02*
X68500Y-51150D01*
X68500Y-41100D02*
X68500Y-41450D01*
X68475Y-49550D02*
X68475Y-51150D01*
X68475Y-41100D02*
X68475Y-41450D01*
X68450Y-49550D02*
X68450Y-51150D01*
X68450Y-41100D02*
X68450Y-41450D01*
X68425Y-49550D02*
X68425Y-51150D01*
X68425Y-41100D02*
X68425Y-41450D01*
X68400Y-49550D02*
X68400Y-51150D01*
X68400Y-41100D02*
X68400Y-41450D01*
X68375Y-49550D02*
X68375Y-51150D01*
X68375Y-41100D02*
X68375Y-41450D01*
X68350Y-49550D02*
X68350Y-51150D01*
X68350Y-41100D02*
X68350Y-41450D01*
X68325Y-49525D02*
X68325Y-51150D01*
X68325Y-41100D02*
X68325Y-41450D01*
X68300Y-49525D02*
X68300Y-51150D01*
X68300Y-41100D02*
X68300Y-41450D01*
X68275Y-49525D02*
X68275Y-51150D01*
X68275Y-41100D02*
X68275Y-41450D01*
X68250Y-49525D02*
X68250Y-51150D01*
X68250Y-41100D02*
X68250Y-41450D01*
X68225Y-49525D02*
X68225Y-51150D01*
X68225Y-41100D02*
X68225Y-41450D01*
X68200Y-49525D02*
X68200Y-51150D01*
X68200Y-41100D02*
X68200Y-41450D01*
X68175Y-49525D02*
X68175Y-51150D01*
X68175Y-41100D02*
X68175Y-41450D01*
X68150Y-49525D02*
X68150Y-51150D01*
X68150Y-41100D02*
X68150Y-41450D01*
X68125Y-49525D02*
X68125Y-51150D01*
X68125Y-41100D02*
X68125Y-41450D01*
X68100Y-49525D02*
X68100Y-51150D01*
X68100Y-41100D02*
X68100Y-41450D01*
X68075Y-49525D02*
X68075Y-51150D01*
X68075Y-41100D02*
X68075Y-41450D01*
X68050Y-49525D02*
X68050Y-51150D01*
X68050Y-41100D02*
X68050Y-41450D01*
X68025Y-49525D02*
X68025Y-51150D01*
X68025Y-41100D02*
X68025Y-41450D01*
X68000Y-49525D02*
X68000Y-51150D01*
X68000Y-41100D02*
X68000Y-41450D01*
X67975Y-49525D02*
X67975Y-51150D01*
X67975Y-41100D02*
X67975Y-41450D01*
X67950Y-49525D02*
X67950Y-51150D01*
X67950Y-41100D02*
X67950Y-41475D01*
X67925Y-49525D02*
X67925Y-51150D01*
X67925Y-41100D02*
X67925Y-41475D01*
X67900Y-49525D02*
X67900Y-51150D01*
X67900Y-41100D02*
X67900Y-41475D01*
X67875Y-49525D02*
X67875Y-51150D01*
X67875Y-41100D02*
X67875Y-41475D01*
X67850Y-49525D02*
X67850Y-51150D01*
X67850Y-41100D02*
X67850Y-41475D01*
X67825Y-49525D02*
X67825Y-51150D01*
X67825Y-41100D02*
X67825Y-41475D01*
X67800Y-49525D02*
X67800Y-51150D01*
X67800Y-41100D02*
X67800Y-41475D01*
X67775Y-49525D02*
X67775Y-51150D01*
X67775Y-41100D02*
X67775Y-41475D01*
X67750Y-49525D02*
X67750Y-51150D01*
X67750Y-41100D02*
X67750Y-41475D01*
X67725Y-49525D02*
X67725Y-51150D01*
X67725Y-41100D02*
X67725Y-41475D01*
X67700Y-49525D02*
X67700Y-51150D01*
X67700Y-41100D02*
X67700Y-41475D01*
X67675Y-49525D02*
X67675Y-51150D01*
X67675Y-41100D02*
X67675Y-41475D01*
X67650Y-49550D02*
X67650Y-51150D01*
X67650Y-41100D02*
X67650Y-41450D01*
X67625Y-49550D02*
X67625Y-51150D01*
X67625Y-41100D02*
X67625Y-41450D01*
X67600Y-49550D02*
X67600Y-51150D01*
X67600Y-41100D02*
X67600Y-41450D01*
X67575Y-49550D02*
X67575Y-51150D01*
X67575Y-41100D02*
X67575Y-41450D01*
X67550Y-49550D02*
X67550Y-51150D01*
X67550Y-41100D02*
X67550Y-41450D01*
X67525Y-49550D02*
X67525Y-51150D01*
X67525Y-41100D02*
X67525Y-41450D01*
X67500Y-49550D02*
X67500Y-51150D01*
X67500Y-41100D02*
X67500Y-41450D01*
X67475Y-49550D02*
X67475Y-51150D01*
X67475Y-41100D02*
X67475Y-41450D01*
X67450Y-49550D02*
X67450Y-51150D01*
X67450Y-41100D02*
X67450Y-41450D01*
X67425Y-49550D02*
X67425Y-51150D01*
X67425Y-41100D02*
X67425Y-41450D01*
X67400Y-49550D02*
X67400Y-51150D01*
X67400Y-41100D02*
X67400Y-41450D01*
X67375Y-49550D02*
X67375Y-51150D01*
X67375Y-41100D02*
X67375Y-41450D01*
X67350Y-49550D02*
X67350Y-51150D01*
X67350Y-41100D02*
X67350Y-41450D01*
X67325Y-49525D02*
X67325Y-51150D01*
X67325Y-41100D02*
X67325Y-41475D01*
X67300Y-49525D02*
X67300Y-51150D01*
X67300Y-41100D02*
X67300Y-41475D01*
X67275Y-49525D02*
X67275Y-51150D01*
X67275Y-41100D02*
X67275Y-41475D01*
X67250Y-49500D02*
X67250Y-51150D01*
X67250Y-41100D02*
X67250Y-41500D01*
X67225Y-49500D02*
X67225Y-51150D01*
X67225Y-41100D02*
X67225Y-41500D01*
X67200Y-49475D02*
X67200Y-51150D01*
X67200Y-41100D02*
X67200Y-41525D01*
X67175Y-49450D02*
X67175Y-51150D01*
X67175Y-42450D02*
X67175Y-42475D01*
X67175Y-41100D02*
X67175Y-41550D01*
X67150Y-49425D02*
X67150Y-51150D01*
X67150Y-42425D02*
X67150Y-42475D01*
X67150Y-41100D02*
X67150Y-41575D01*
X67125Y-49425D02*
X67125Y-51150D01*
X67125Y-42425D02*
X67125Y-42475D01*
X67125Y-41100D02*
X67125Y-41575D01*
X67100Y-49400D02*
X67100Y-51150D01*
X67100Y-42400D02*
X67100Y-42475D01*
X67100Y-41100D02*
X67100Y-41600D01*
X67075Y-49350D02*
X67075Y-51150D01*
X67075Y-42350D02*
X67075Y-42475D01*
X67075Y-41100D02*
X67075Y-41650D01*
X67050Y-50575D02*
X67050Y-51150D01*
X67050Y-49325D02*
X67050Y-49425D01*
X67050Y-42325D02*
X67050Y-42475D01*
X67050Y-41100D02*
X67050Y-41675D01*
X67025Y-50575D02*
X67025Y-51150D01*
X67025Y-49300D02*
X67025Y-49425D01*
X67025Y-42300D02*
X67025Y-42475D01*
X67025Y-41100D02*
X67025Y-41700D01*
X67000Y-50575D02*
X67000Y-51150D01*
X67000Y-42250D02*
X67000Y-42475D01*
X67000Y-41100D02*
X67000Y-41750D01*
X66975Y-50575D02*
X66975Y-51150D01*
X66975Y-42175D02*
X66975Y-42475D01*
X66975Y-41100D02*
X66975Y-41825D01*
X66950Y-50575D02*
X66950Y-51150D01*
X66950Y-41100D02*
X66950Y-42475D01*
X66925Y-50575D02*
X66925Y-51150D01*
X66925Y-41100D02*
X66925Y-42475D01*
X66900Y-50575D02*
X66900Y-51150D01*
X66900Y-41100D02*
X66900Y-42475D01*
X66875Y-50575D02*
X66875Y-51150D01*
X66875Y-41100D02*
X66875Y-42475D01*
X66850Y-50575D02*
X66850Y-51150D01*
X66850Y-41100D02*
X66850Y-42475D01*
X66825Y-50575D02*
X66825Y-51150D01*
X66825Y-41100D02*
X66825Y-42475D01*
X66800Y-50575D02*
X66800Y-51150D01*
X66800Y-41100D02*
X66800Y-42475D01*
X66775Y-50575D02*
X66775Y-51150D01*
X66775Y-41100D02*
X66775Y-42475D01*
X66750Y-50575D02*
X66750Y-51150D01*
X66750Y-41100D02*
X66750Y-42475D01*
X66725Y-50575D02*
X66725Y-51150D01*
X66725Y-41100D02*
X66725Y-42475D01*
X66700Y-50575D02*
X66700Y-51150D01*
X66700Y-41100D02*
X66700Y-42475D01*
X66675Y-50575D02*
X66675Y-51150D01*
X66675Y-41100D02*
X66675Y-42475D01*
X66650Y-50575D02*
X66650Y-51150D01*
X66650Y-41100D02*
X66650Y-42450D01*
X66625Y-50575D02*
X66625Y-51150D01*
X66625Y-41100D02*
X66625Y-42450D01*
X66600Y-50575D02*
X66600Y-51150D01*
X66600Y-41100D02*
X66600Y-42450D01*
X66575Y-50575D02*
X66575Y-51150D01*
X66575Y-41100D02*
X66575Y-42450D01*
X66550Y-50575D02*
X66550Y-51150D01*
X66550Y-41100D02*
X66550Y-42450D01*
X66525Y-50575D02*
X66525Y-51150D01*
X66525Y-41100D02*
X66525Y-42450D01*
X66500Y-50575D02*
X66500Y-51150D01*
X66500Y-41100D02*
X66500Y-42450D01*
X66475Y-50575D02*
X66475Y-51150D01*
X66475Y-41100D02*
X66475Y-42450D01*
X66450Y-50575D02*
X66450Y-51150D01*
X66450Y-41100D02*
X66450Y-42450D01*
X66425Y-50575D02*
X66425Y-51150D01*
X66425Y-41100D02*
X66425Y-42450D01*
X66400Y-50575D02*
X66400Y-51150D01*
X66400Y-41100D02*
X66400Y-42450D01*
X66375Y-50575D02*
X66375Y-51150D01*
X66375Y-41100D02*
X66375Y-42450D01*
X66350Y-50575D02*
X66350Y-51150D01*
X66350Y-41100D02*
X66350Y-42450D01*
X66325Y-50575D02*
X66325Y-51150D01*
X66325Y-41100D02*
X66325Y-42475D01*
X66300Y-50575D02*
X66300Y-51150D01*
X66300Y-41100D02*
X66300Y-42475D01*
X66275Y-50575D02*
X66275Y-51150D01*
X66275Y-41100D02*
X66275Y-42475D01*
X66250Y-50575D02*
X66250Y-51150D01*
X66250Y-41100D02*
X66250Y-42500D01*
X66225Y-50575D02*
X66225Y-51150D01*
X66225Y-41100D02*
X66225Y-42500D01*
X66200Y-50575D02*
X66200Y-51150D01*
X66200Y-41100D02*
X66200Y-42525D01*
X66175Y-50575D02*
X66175Y-51150D01*
X66175Y-41100D02*
X66175Y-42550D01*
X66150Y-50575D02*
X66150Y-51150D01*
X66150Y-41100D02*
X66150Y-42575D01*
X66125Y-50575D02*
X66125Y-51150D01*
X66125Y-41100D02*
X66125Y-42575D01*
X66100Y-50575D02*
X66100Y-51150D01*
X66100Y-41100D02*
X66100Y-42600D01*
X66075Y-50575D02*
X66075Y-51150D01*
X66075Y-41100D02*
X66075Y-42650D01*
X66050Y-50575D02*
X66050Y-51150D01*
X66050Y-41100D02*
X66050Y-42675D01*
X66025Y-50575D02*
X66025Y-51150D01*
X66025Y-41100D02*
X66025Y-42700D01*
X66000Y-50575D02*
X66000Y-51150D01*
X66000Y-41100D02*
X66000Y-42750D01*
X65975Y-50575D02*
X65975Y-51150D01*
X65975Y-41100D02*
X65975Y-42775D01*
X65950Y-50575D02*
X65950Y-51150D01*
X65950Y-41100D02*
X65950Y-42800D01*
X65925Y-50400D02*
X65925Y-51150D01*
X65925Y-41100D02*
X65925Y-42825D01*
X65900Y-50425D02*
X65900Y-51150D01*
X65900Y-41100D02*
X65900Y-42850D01*
X65875Y-50450D02*
X65875Y-51150D01*
X65875Y-41100D02*
X65875Y-42875D01*
X65850Y-50475D02*
X65850Y-51150D01*
X65850Y-41100D02*
X65850Y-42900D01*
X65825Y-50475D02*
X65825Y-51150D01*
X65825Y-41100D02*
X65825Y-42925D01*
X65800Y-50500D02*
X65800Y-51150D01*
X65800Y-41100D02*
X65800Y-42950D01*
X65775Y-50525D02*
X65775Y-51150D01*
X65775Y-41100D02*
X65775Y-42975D01*
X65750Y-50525D02*
X65750Y-51150D01*
X65750Y-41100D02*
X65750Y-43000D01*
X65725Y-50550D02*
X65725Y-51150D01*
X65725Y-41100D02*
X65725Y-43025D01*
X65700Y-50550D02*
X65700Y-51150D01*
X65700Y-41100D02*
X65700Y-43050D01*
X65675Y-50550D02*
X65675Y-51150D01*
X65675Y-41100D02*
X65675Y-43075D01*
X65650Y-50575D02*
X65650Y-51150D01*
X65650Y-41100D02*
X65650Y-43100D01*
X65625Y-50575D02*
X65625Y-51150D01*
X65625Y-41100D02*
X65625Y-43125D01*
X65600Y-50575D02*
X65600Y-51150D01*
X65600Y-41100D02*
X65600Y-43150D01*
X65575Y-50575D02*
X65575Y-51150D01*
X65575Y-41100D02*
X65575Y-43175D01*
X65550Y-50575D02*
X65550Y-51150D01*
X65550Y-41100D02*
X65550Y-43200D01*
X65525Y-50575D02*
X65525Y-51150D01*
X65525Y-41100D02*
X65525Y-43225D01*
X65500Y-50575D02*
X65500Y-51150D01*
X65500Y-41100D02*
X65500Y-43250D01*
X65475Y-50575D02*
X65475Y-51150D01*
X65475Y-41100D02*
X65475Y-43275D01*
X65450Y-50575D02*
X65450Y-51150D01*
X65450Y-41100D02*
X65450Y-43300D01*
X65425Y-50575D02*
X65425Y-51150D01*
X65425Y-41100D02*
X65425Y-43325D01*
X65400Y-50575D02*
X65400Y-51150D01*
X65400Y-41100D02*
X65400Y-43350D01*
X65375Y-50575D02*
X65375Y-51150D01*
X65375Y-41100D02*
X65375Y-43375D01*
X65350Y-50575D02*
X65350Y-51150D01*
X65350Y-41100D02*
X65350Y-43400D01*
X65325Y-50550D02*
X65325Y-51150D01*
X65325Y-41100D02*
X65325Y-43425D01*
X65300Y-50550D02*
X65300Y-51150D01*
X65300Y-41100D02*
X65300Y-43450D01*
X65275Y-50550D02*
X65275Y-51150D01*
X65275Y-41100D02*
X65275Y-43475D01*
X65250Y-50525D02*
X65250Y-51150D01*
X65250Y-41100D02*
X65250Y-43500D01*
X65225Y-50525D02*
X65225Y-51150D01*
X65225Y-41100D02*
X65225Y-43525D01*
X65200Y-50500D02*
X65200Y-51150D01*
X65200Y-41100D02*
X65200Y-43550D01*
X65175Y-50475D02*
X65175Y-51150D01*
X65175Y-41100D02*
X65175Y-43575D01*
X65150Y-50475D02*
X65150Y-51150D01*
X65150Y-41100D02*
X65150Y-43600D01*
X65125Y-50450D02*
X65125Y-51150D01*
X65125Y-41100D02*
X65125Y-43625D01*
X65100Y-50425D02*
X65100Y-51150D01*
X65100Y-41100D02*
X65100Y-43650D01*
X65075Y-50400D02*
X65075Y-51150D01*
X65075Y-41100D02*
X65075Y-43675D01*
X65050Y-50375D02*
X65050Y-51150D01*
X65050Y-41100D02*
X65050Y-43725D01*
X65025Y-50325D02*
X65025Y-51150D01*
X65025Y-42175D02*
X65025Y-43775D01*
X65025Y-41100D02*
X65025Y-41825D01*
X65000Y-50300D02*
X65000Y-51150D01*
X65000Y-41100D02*
X65000Y-41750D01*
X64975Y-50325D02*
X64975Y-51150D01*
X64975Y-41100D02*
X64975Y-41700D01*
X64950Y-50375D02*
X64950Y-51150D01*
X64950Y-41100D02*
X64950Y-41675D01*
X64925Y-50400D02*
X64925Y-51150D01*
X64925Y-41100D02*
X64925Y-41650D01*
X64900Y-50425D02*
X64900Y-51150D01*
X64900Y-41100D02*
X64900Y-41600D01*
X64875Y-50450D02*
X64875Y-51150D01*
X64875Y-41100D02*
X64875Y-41575D01*
X64850Y-50475D02*
X64850Y-51150D01*
X64850Y-41100D02*
X64850Y-41575D01*
X64825Y-50475D02*
X64825Y-51150D01*
X64825Y-41100D02*
X64825Y-41550D01*
X64800Y-50500D02*
X64800Y-51150D01*
X64800Y-41100D02*
X64800Y-41525D01*
X64775Y-50525D02*
X64775Y-51150D01*
X64775Y-41100D02*
X64775Y-41500D01*
X64750Y-50525D02*
X64750Y-51150D01*
X64750Y-41100D02*
X64750Y-41500D01*
X64725Y-50550D02*
X64725Y-51150D01*
X64725Y-41100D02*
X64725Y-41475D01*
X64700Y-50550D02*
X64700Y-51150D01*
X64700Y-41100D02*
X64700Y-41475D01*
X64675Y-50550D02*
X64675Y-51150D01*
X64675Y-41100D02*
X64675Y-41475D01*
X64650Y-50575D02*
X64650Y-51150D01*
X64650Y-41100D02*
X64650Y-41450D01*
X64625Y-50575D02*
X64625Y-51150D01*
X64625Y-41100D02*
X64625Y-41450D01*
X64600Y-50575D02*
X64600Y-51150D01*
X64600Y-41100D02*
X64600Y-41450D01*
X64575Y-50575D02*
X64575Y-51150D01*
X64575Y-41100D02*
X64575Y-41450D01*
X64550Y-50575D02*
X64550Y-51150D01*
X64550Y-41100D02*
X64550Y-41450D01*
X64525Y-50575D02*
X64525Y-51150D01*
X64525Y-41100D02*
X64525Y-41450D01*
X64500Y-50575D02*
X64500Y-51150D01*
X64500Y-41100D02*
X64500Y-41450D01*
X64475Y-50575D02*
X64475Y-51150D01*
X64475Y-41100D02*
X64475Y-41450D01*
X64450Y-50575D02*
X64450Y-51150D01*
X64450Y-41100D02*
X64450Y-41450D01*
X64425Y-50575D02*
X64425Y-51150D01*
X64425Y-41100D02*
X64425Y-41450D01*
X64400Y-50575D02*
X64400Y-51150D01*
X64400Y-41100D02*
X64400Y-41450D01*
X64375Y-50575D02*
X64375Y-51150D01*
X64375Y-41100D02*
X64375Y-41450D01*
X64350Y-50575D02*
X64350Y-51150D01*
X64350Y-41100D02*
X64350Y-41450D01*
X64325Y-50550D02*
X64325Y-51150D01*
X64325Y-41100D02*
X64325Y-41475D01*
X64300Y-50550D02*
X64300Y-51150D01*
X64300Y-41100D02*
X64300Y-41475D01*
X64275Y-50550D02*
X64275Y-51150D01*
X64275Y-41100D02*
X64275Y-41475D01*
X64250Y-50525D02*
X64250Y-51150D01*
X64250Y-41100D02*
X64250Y-41500D01*
X64225Y-50525D02*
X64225Y-51150D01*
X64225Y-41100D02*
X64225Y-41500D01*
X64200Y-50500D02*
X64200Y-51150D01*
X64200Y-41100D02*
X64200Y-41525D01*
X64175Y-50475D02*
X64175Y-51150D01*
X64175Y-41100D02*
X64175Y-41550D01*
X64150Y-50475D02*
X64150Y-51150D01*
X64150Y-41100D02*
X64150Y-41575D01*
X64125Y-50450D02*
X64125Y-51150D01*
X64125Y-41100D02*
X64125Y-41575D01*
X64100Y-50425D02*
X64100Y-51150D01*
X64100Y-41100D02*
X64100Y-41600D01*
X64075Y-50400D02*
X64075Y-51150D01*
X64075Y-41150D02*
X64075Y-41650D01*
X64050Y-50375D02*
X64050Y-51150D01*
X64050Y-41200D02*
X64050Y-41675D01*
X64025Y-50325D02*
X64025Y-51150D01*
X64025Y-41225D02*
X64025Y-41675D01*
X64000Y-50400D02*
X64000Y-51150D01*
X64000Y-41250D02*
X64000Y-41600D01*
X63975Y-50475D02*
X63975Y-51150D01*
X63975Y-41275D02*
X63975Y-41525D01*
X63950Y-50525D02*
X63950Y-51150D01*
X63950Y-41300D02*
X63950Y-41475D01*
X63925Y-50550D02*
X63925Y-51150D01*
X63925Y-41325D02*
X63925Y-41450D01*
X63900Y-50600D02*
X63900Y-51150D01*
X63900Y-41325D02*
X63900Y-41400D01*
X63875Y-50625D02*
X63875Y-51150D01*
X63875Y-41350D02*
X63875Y-41375D01*
X63850Y-50675D02*
X63850Y-51150D01*
X63825Y-50700D02*
X63825Y-51150D01*
X63800Y-50725D02*
X63800Y-51150D01*
X63775Y-50750D02*
X63775Y-51150D01*
X63750Y-50775D02*
X63750Y-51150D01*
X63725Y-50800D02*
X63725Y-51150D01*
X63700Y-50825D02*
X63700Y-51150D01*
X63675Y-50850D02*
X63675Y-51150D01*
X63650Y-50875D02*
X63650Y-51150D01*
X63625Y-50875D02*
X63625Y-51150D01*
X63600Y-50900D02*
X63600Y-51150D01*
X63575Y-50925D02*
X63575Y-51150D01*
X63550Y-50925D02*
X63550Y-51150D01*
X63525Y-50950D02*
X63525Y-51150D01*
X63500Y-50975D02*
X63500Y-51150D01*
X63475Y-50975D02*
X63475Y-51150D01*
X63450Y-51000D02*
X63450Y-51150D01*
X63425Y-51000D02*
X63425Y-51150D01*
X63400Y-51000D02*
X63400Y-51150D01*
X63375Y-51025D02*
X63375Y-51150D01*
X63350Y-51025D02*
X63350Y-51150D01*
X63325Y-51025D02*
X63325Y-51150D01*
X63300Y-51050D02*
X63300Y-51150D01*
X63275Y-51050D02*
X63275Y-51150D01*
X63250Y-51050D02*
X63250Y-51150D01*
X63225Y-51075D02*
X63225Y-51150D01*
X63200Y-51075D02*
X63200Y-51150D01*
X63175Y-51075D02*
X63175Y-51150D01*
X63150Y-51075D02*
X63150Y-51150D01*
X63125Y-51075D02*
X63125Y-51150D01*
X63100Y-51075D02*
X63100Y-51150D01*
X63075Y-51075D02*
X63075Y-51150D01*
X63050Y-51075D02*
X63050Y-51150D01*
X63025Y-51075D02*
X63025Y-51150D01*
X63000Y-51075D02*
X63000Y-51150D01*
X62975Y-51075D02*
X62975Y-51150D01*
X62950Y-51075D02*
X62950Y-51150D01*
X62925Y-51075D02*
X62925Y-51150D01*
X62900Y-51075D02*
X62900Y-51150D01*
X62875Y-51075D02*
X62875Y-51150D01*
X62850Y-51075D02*
X62850Y-51150D01*
X62825Y-51075D02*
X62825Y-51150D01*
X62800Y-51075D02*
X62800Y-51150D01*
X62775Y-51075D02*
X62775Y-51150D01*
X62750Y-51050D02*
X62750Y-51150D01*
X62725Y-51050D02*
X62725Y-51150D01*
X62700Y-51050D02*
X62700Y-51150D01*
X62675Y-51025D02*
X62675Y-51150D01*
X62650Y-51025D02*
X62650Y-51150D01*
X62625Y-51025D02*
X62625Y-51150D01*
X62600Y-51000D02*
X62600Y-51150D01*
X62575Y-51000D02*
X62575Y-51150D01*
X62550Y-51000D02*
X62550Y-51150D01*
X62525Y-50975D02*
X62525Y-51150D01*
X62500Y-50975D02*
X62500Y-51150D01*
X62475Y-50950D02*
X62475Y-51150D01*
X62450Y-50925D02*
X62450Y-51150D01*
X62425Y-50925D02*
X62425Y-51150D01*
X62400Y-50900D02*
X62400Y-51150D01*
X62375Y-50875D02*
X62375Y-51150D01*
X62350Y-50875D02*
X62350Y-51150D01*
X62325Y-50850D02*
X62325Y-51150D01*
X62300Y-50825D02*
X62300Y-51150D01*
X62275Y-50800D02*
X62275Y-51150D01*
X62250Y-50775D02*
X62250Y-51150D01*
X62225Y-50750D02*
X62225Y-51150D01*
X62200Y-50725D02*
X62200Y-51150D01*
X62175Y-50700D02*
X62175Y-51150D01*
X62150Y-50675D02*
X62150Y-51150D01*
X62125Y-50625D02*
X62125Y-51150D01*
X62100Y-50600D02*
X62100Y-51150D01*
X62100Y-51150D02*
X85150Y-51150D01*
X62100Y-51125D02*
X85150Y-51125D01*
X62100Y-51100D02*
X85150Y-51100D01*
X62100Y-51075D02*
X85150Y-51075D01*
X63250Y-51050D02*
X85150Y-51050D01*
X62100Y-51050D02*
X62750Y-51050D01*
X63325Y-51025D02*
X85150Y-51025D01*
X62100Y-51025D02*
X62675Y-51025D01*
X63400Y-51000D02*
X85150Y-51000D01*
X62100Y-51000D02*
X62600Y-51000D01*
X63475Y-50975D02*
X85150Y-50975D01*
X62100Y-50975D02*
X62525Y-50975D01*
X63525Y-50950D02*
X85150Y-50950D01*
X62100Y-50950D02*
X62475Y-50950D01*
X63550Y-50925D02*
X85150Y-50925D01*
X62100Y-50925D02*
X62450Y-50925D01*
X63600Y-50900D02*
X85150Y-50900D01*
X62100Y-50900D02*
X62400Y-50900D01*
X63625Y-50875D02*
X85150Y-50875D01*
X62100Y-50875D02*
X62375Y-50875D01*
X63675Y-50850D02*
X85150Y-50850D01*
X62100Y-50850D02*
X62325Y-50850D01*
X63700Y-50825D02*
X85150Y-50825D01*
X62100Y-50825D02*
X62300Y-50825D01*
X63725Y-50800D02*
X85150Y-50800D01*
X62100Y-50800D02*
X62275Y-50800D01*
X63750Y-50775D02*
X85150Y-50775D01*
X62100Y-50775D02*
X62250Y-50775D01*
X84775Y-50750D02*
X85150Y-50750D01*
X82200Y-50750D02*
X83225Y-50750D01*
X63775Y-50750D02*
X81800Y-50750D01*
X62100Y-50750D02*
X62225Y-50750D01*
X84775Y-50725D02*
X85150Y-50725D01*
X82275Y-50725D02*
X83225Y-50725D01*
X63800Y-50725D02*
X81725Y-50725D01*
X62100Y-50725D02*
X62200Y-50725D01*
X84775Y-50700D02*
X85150Y-50700D01*
X82350Y-50700D02*
X83225Y-50700D01*
X63825Y-50700D02*
X81650Y-50700D01*
X62100Y-50700D02*
X62175Y-50700D01*
X84775Y-50675D02*
X85150Y-50675D01*
X82400Y-50675D02*
X83225Y-50675D01*
X63850Y-50675D02*
X81600Y-50675D01*
X62100Y-50675D02*
X62150Y-50675D01*
X84775Y-50650D02*
X85150Y-50650D01*
X82425Y-50650D02*
X83225Y-50650D01*
X63875Y-50650D02*
X81575Y-50650D01*
X62100Y-50650D02*
X62125Y-50650D01*
X84775Y-50625D02*
X85150Y-50625D01*
X82475Y-50625D02*
X83225Y-50625D01*
X63875Y-50625D02*
X81525Y-50625D01*
X62100Y-50625D02*
X62125Y-50625D01*
X84775Y-50600D02*
X85150Y-50600D01*
X82500Y-50600D02*
X83225Y-50600D01*
X80675Y-50600D02*
X81500Y-50600D01*
X79675Y-50600D02*
X80325Y-50600D01*
X79125Y-50600D02*
X79325Y-50600D01*
X75925Y-50600D02*
X77875Y-50600D01*
X74925Y-50600D02*
X75575Y-50600D01*
X74375Y-50600D02*
X74575Y-50600D01*
X63900Y-50600D02*
X73125Y-50600D01*
X84775Y-50575D02*
X85150Y-50575D01*
X82525Y-50575D02*
X83225Y-50575D01*
X80750Y-50575D02*
X81475Y-50575D01*
X79750Y-50575D02*
X80250Y-50575D01*
X79125Y-50575D02*
X79250Y-50575D01*
X76000Y-50575D02*
X77875Y-50575D01*
X75000Y-50575D02*
X75500Y-50575D01*
X74375Y-50575D02*
X74500Y-50575D01*
X63925Y-50575D02*
X73125Y-50575D01*
X84775Y-50550D02*
X85150Y-50550D01*
X82550Y-50550D02*
X83225Y-50550D01*
X80800Y-50550D02*
X81450Y-50550D01*
X79800Y-50550D02*
X80200Y-50550D01*
X79125Y-50550D02*
X79200Y-50550D01*
X76050Y-50550D02*
X77875Y-50550D01*
X75050Y-50550D02*
X75450Y-50550D01*
X74375Y-50550D02*
X74450Y-50550D01*
X67075Y-50550D02*
X73125Y-50550D01*
X65675Y-50550D02*
X65925Y-50550D01*
X64675Y-50550D02*
X65325Y-50550D01*
X63925Y-50550D02*
X64325Y-50550D01*
X84775Y-50525D02*
X85150Y-50525D01*
X82575Y-50525D02*
X83225Y-50525D01*
X80850Y-50525D02*
X81425Y-50525D01*
X79850Y-50525D02*
X80150Y-50525D01*
X79125Y-50525D02*
X79150Y-50525D01*
X76100Y-50525D02*
X77875Y-50525D01*
X75100Y-50525D02*
X75400Y-50525D01*
X74375Y-50525D02*
X74400Y-50525D01*
X67075Y-50525D02*
X73125Y-50525D01*
X65750Y-50525D02*
X65925Y-50525D01*
X64750Y-50525D02*
X65250Y-50525D01*
X63950Y-50525D02*
X64250Y-50525D01*
X84775Y-50500D02*
X85150Y-50500D01*
X82600Y-50500D02*
X82825Y-50500D01*
X80875Y-50500D02*
X81400Y-50500D01*
X79875Y-50500D02*
X80125Y-50500D01*
X76125Y-50500D02*
X77875Y-50500D01*
X75125Y-50500D02*
X75375Y-50500D01*
X67075Y-50500D02*
X73125Y-50500D01*
X65800Y-50500D02*
X65925Y-50500D01*
X64800Y-50500D02*
X65200Y-50500D01*
X63975Y-50500D02*
X64200Y-50500D01*
X84775Y-50475D02*
X85150Y-50475D01*
X82625Y-50475D02*
X82775Y-50475D01*
X80925Y-50475D02*
X81375Y-50475D01*
X79925Y-50475D02*
X80075Y-50475D01*
X76175Y-50475D02*
X77875Y-50475D01*
X75175Y-50475D02*
X75325Y-50475D01*
X67075Y-50475D02*
X73125Y-50475D01*
X65825Y-50475D02*
X65925Y-50475D01*
X64825Y-50475D02*
X65175Y-50475D01*
X63975Y-50475D02*
X64175Y-50475D01*
X84775Y-50450D02*
X85150Y-50450D01*
X82650Y-50450D02*
X82725Y-50450D01*
X80950Y-50450D02*
X81350Y-50450D01*
X79950Y-50450D02*
X80050Y-50450D01*
X76200Y-50450D02*
X77875Y-50450D01*
X75200Y-50450D02*
X75300Y-50450D01*
X67075Y-50450D02*
X73125Y-50450D01*
X65875Y-50450D02*
X65925Y-50450D01*
X64875Y-50450D02*
X65125Y-50450D01*
X64000Y-50450D02*
X64125Y-50450D01*
X84775Y-50425D02*
X85150Y-50425D01*
X82650Y-50425D02*
X82675Y-50425D01*
X80975Y-50425D02*
X81350Y-50425D01*
X79975Y-50425D02*
X80025Y-50425D01*
X76225Y-50425D02*
X77875Y-50425D01*
X75225Y-50425D02*
X75275Y-50425D01*
X67075Y-50425D02*
X73125Y-50425D01*
X65900Y-50425D02*
X65925Y-50425D01*
X64900Y-50425D02*
X65100Y-50425D01*
X64000Y-50425D02*
X64100Y-50425D01*
X84775Y-50400D02*
X85150Y-50400D01*
X81000Y-50400D02*
X81325Y-50400D01*
X76250Y-50400D02*
X77875Y-50400D01*
X67075Y-50400D02*
X73125Y-50400D01*
X64925Y-50400D02*
X65075Y-50400D01*
X64000Y-50400D02*
X64075Y-50400D01*
X84775Y-50375D02*
X85150Y-50375D01*
X81000Y-50375D02*
X81300Y-50375D01*
X76250Y-50375D02*
X77875Y-50375D01*
X67075Y-50375D02*
X73125Y-50375D01*
X64950Y-50375D02*
X65050Y-50375D01*
X64025Y-50375D02*
X64050Y-50375D01*
X84775Y-50350D02*
X85150Y-50350D01*
X81025Y-50350D02*
X81300Y-50350D01*
X76275Y-50350D02*
X77875Y-50350D01*
X67075Y-50350D02*
X73125Y-50350D01*
X64975Y-50350D02*
X65025Y-50350D01*
X84775Y-50325D02*
X85150Y-50325D01*
X81050Y-50325D02*
X81275Y-50325D01*
X76300Y-50325D02*
X77875Y-50325D01*
X67075Y-50325D02*
X73125Y-50325D01*
X64975Y-50325D02*
X65025Y-50325D01*
X84775Y-50300D02*
X85150Y-50300D01*
X81050Y-50300D02*
X81275Y-50300D01*
X76300Y-50300D02*
X77875Y-50300D01*
X67075Y-50300D02*
X73125Y-50300D01*
X84775Y-50275D02*
X85150Y-50275D01*
X81075Y-50275D02*
X81275Y-50275D01*
X76325Y-50275D02*
X77875Y-50275D01*
X67075Y-50275D02*
X73125Y-50275D01*
X84775Y-50250D02*
X85150Y-50250D01*
X81075Y-50250D02*
X81250Y-50250D01*
X76325Y-50250D02*
X77875Y-50250D01*
X67075Y-50250D02*
X73125Y-50250D01*
X84775Y-50225D02*
X85150Y-50225D01*
X81100Y-50225D02*
X81250Y-50225D01*
X76350Y-50225D02*
X77875Y-50225D01*
X67075Y-50225D02*
X73125Y-50225D01*
X84775Y-50200D02*
X85150Y-50200D01*
X81100Y-50200D02*
X81250Y-50200D01*
X76350Y-50200D02*
X77875Y-50200D01*
X67075Y-50200D02*
X73125Y-50200D01*
X84775Y-50175D02*
X85150Y-50175D01*
X81100Y-50175D02*
X81225Y-50175D01*
X76350Y-50175D02*
X77875Y-50175D01*
X67075Y-50175D02*
X73125Y-50175D01*
X84775Y-50150D02*
X85150Y-50150D01*
X81125Y-50150D02*
X81225Y-50150D01*
X76375Y-50150D02*
X77875Y-50150D01*
X67075Y-50150D02*
X73125Y-50150D01*
X84775Y-50125D02*
X85150Y-50125D01*
X81125Y-50125D02*
X81225Y-50125D01*
X76375Y-50125D02*
X77875Y-50125D01*
X67075Y-50125D02*
X73125Y-50125D01*
X84775Y-50100D02*
X85150Y-50100D01*
X81125Y-50100D02*
X81225Y-50100D01*
X76400Y-50100D02*
X77875Y-50100D01*
X67075Y-50100D02*
X73125Y-50100D01*
X84775Y-50075D02*
X85150Y-50075D01*
X81125Y-50075D02*
X81225Y-50075D01*
X76425Y-50075D02*
X77875Y-50075D01*
X67075Y-50075D02*
X73125Y-50075D01*
X84775Y-50050D02*
X85150Y-50050D01*
X81125Y-50050D02*
X81225Y-50050D01*
X76450Y-50050D02*
X77875Y-50050D01*
X67075Y-50050D02*
X73125Y-50050D01*
X84775Y-50025D02*
X85150Y-50025D01*
X81125Y-50025D02*
X81225Y-50025D01*
X76475Y-50025D02*
X77875Y-50025D01*
X67075Y-50025D02*
X73125Y-50025D01*
X84775Y-50000D02*
X85150Y-50000D01*
X81125Y-50000D02*
X81225Y-50000D01*
X76500Y-50000D02*
X77875Y-50000D01*
X67075Y-50000D02*
X73125Y-50000D01*
X84775Y-49975D02*
X85150Y-49975D01*
X81125Y-49975D02*
X81225Y-49975D01*
X76525Y-49975D02*
X77875Y-49975D01*
X67075Y-49975D02*
X73125Y-49975D01*
X84775Y-49950D02*
X85150Y-49950D01*
X81125Y-49950D02*
X81225Y-49950D01*
X76550Y-49950D02*
X77875Y-49950D01*
X67075Y-49950D02*
X73125Y-49950D01*
X84775Y-49925D02*
X85150Y-49925D01*
X81125Y-49925D02*
X81225Y-49925D01*
X76575Y-49925D02*
X77875Y-49925D01*
X67075Y-49925D02*
X73125Y-49925D01*
X84775Y-49900D02*
X85150Y-49900D01*
X81125Y-49900D02*
X81225Y-49900D01*
X76600Y-49900D02*
X77875Y-49900D01*
X67075Y-49900D02*
X73125Y-49900D01*
X84775Y-49875D02*
X85150Y-49875D01*
X81125Y-49875D02*
X81225Y-49875D01*
X76625Y-49875D02*
X77875Y-49875D01*
X67075Y-49875D02*
X73125Y-49875D01*
X84775Y-49850D02*
X85150Y-49850D01*
X81125Y-49850D02*
X81225Y-49850D01*
X76650Y-49850D02*
X77875Y-49850D01*
X67075Y-49850D02*
X73125Y-49850D01*
X84775Y-49825D02*
X85150Y-49825D01*
X81100Y-49825D02*
X81225Y-49825D01*
X76675Y-49825D02*
X77875Y-49825D01*
X67075Y-49825D02*
X73125Y-49825D01*
X84775Y-49800D02*
X85150Y-49800D01*
X81100Y-49800D02*
X81250Y-49800D01*
X76700Y-49800D02*
X77875Y-49800D01*
X67075Y-49800D02*
X73125Y-49800D01*
X84775Y-49775D02*
X85150Y-49775D01*
X81100Y-49775D02*
X81250Y-49775D01*
X76725Y-49775D02*
X77875Y-49775D01*
X67075Y-49775D02*
X73125Y-49775D01*
X84775Y-49750D02*
X85150Y-49750D01*
X81075Y-49750D02*
X81250Y-49750D01*
X76750Y-49750D02*
X77875Y-49750D01*
X67075Y-49750D02*
X73125Y-49750D01*
X84775Y-49725D02*
X85150Y-49725D01*
X81075Y-49725D02*
X81275Y-49725D01*
X76775Y-49725D02*
X77875Y-49725D01*
X67075Y-49725D02*
X73125Y-49725D01*
X84775Y-49700D02*
X85150Y-49700D01*
X81050Y-49700D02*
X81275Y-49700D01*
X76800Y-49700D02*
X77875Y-49700D01*
X67075Y-49700D02*
X73125Y-49700D01*
X84775Y-49675D02*
X85150Y-49675D01*
X81050Y-49675D02*
X81275Y-49675D01*
X76825Y-49675D02*
X77875Y-49675D01*
X67075Y-49675D02*
X73125Y-49675D01*
X84775Y-49650D02*
X85150Y-49650D01*
X81025Y-49650D02*
X81300Y-49650D01*
X76850Y-49650D02*
X77875Y-49650D01*
X67075Y-49650D02*
X73125Y-49650D01*
X84775Y-49625D02*
X85150Y-49625D01*
X81025Y-49625D02*
X81300Y-49625D01*
X76875Y-49625D02*
X77875Y-49625D01*
X67075Y-49625D02*
X73125Y-49625D01*
X84775Y-49600D02*
X85150Y-49600D01*
X81025Y-49600D02*
X81325Y-49600D01*
X76900Y-49600D02*
X77875Y-49600D01*
X67075Y-49600D02*
X73125Y-49600D01*
X84775Y-49575D02*
X85150Y-49575D01*
X81025Y-49575D02*
X81350Y-49575D01*
X76925Y-49575D02*
X77875Y-49575D01*
X67075Y-49575D02*
X73125Y-49575D01*
X84775Y-49550D02*
X85150Y-49550D01*
X81025Y-49550D02*
X81350Y-49550D01*
X76950Y-49550D02*
X77875Y-49550D01*
X67075Y-49550D02*
X73125Y-49550D01*
X84775Y-49525D02*
X85150Y-49525D01*
X81025Y-49525D02*
X81375Y-49525D01*
X77675Y-49525D02*
X77875Y-49525D01*
X76975Y-49525D02*
X77325Y-49525D01*
X71675Y-49525D02*
X73125Y-49525D01*
X68675Y-49525D02*
X71325Y-49525D01*
X67675Y-49525D02*
X68325Y-49525D01*
X67075Y-49525D02*
X67325Y-49525D01*
X84775Y-49500D02*
X85150Y-49500D01*
X81025Y-49500D02*
X81400Y-49500D01*
X77750Y-49500D02*
X77875Y-49500D01*
X77000Y-49500D02*
X77250Y-49500D01*
X72675Y-49500D02*
X73125Y-49500D01*
X68750Y-49500D02*
X71250Y-49500D01*
X67075Y-49500D02*
X67250Y-49500D01*
X84775Y-49475D02*
X85150Y-49475D01*
X81025Y-49475D02*
X81425Y-49475D01*
X77800Y-49475D02*
X77875Y-49475D01*
X77050Y-49475D02*
X77200Y-49475D01*
X72725Y-49475D02*
X73125Y-49475D01*
X68800Y-49475D02*
X71200Y-49475D01*
X67075Y-49475D02*
X67200Y-49475D01*
X84775Y-49450D02*
X85150Y-49450D01*
X81025Y-49450D02*
X81450Y-49450D01*
X77825Y-49450D02*
X77875Y-49450D01*
X77075Y-49450D02*
X77175Y-49450D01*
X72775Y-49450D02*
X73125Y-49450D01*
X68825Y-49450D02*
X71175Y-49450D01*
X67075Y-49450D02*
X67175Y-49450D01*
X84775Y-49425D02*
X85150Y-49425D01*
X81025Y-49425D02*
X81475Y-49425D01*
X77850Y-49425D02*
X77875Y-49425D01*
X77100Y-49425D02*
X77150Y-49425D01*
X72825Y-49425D02*
X73125Y-49425D01*
X68850Y-49425D02*
X71150Y-49425D01*
X67025Y-49425D02*
X67150Y-49425D01*
X84775Y-49400D02*
X85150Y-49400D01*
X81025Y-49400D02*
X81475Y-49400D01*
X72850Y-49400D02*
X73125Y-49400D01*
X68900Y-49400D02*
X71100Y-49400D01*
X67025Y-49400D02*
X67100Y-49400D01*
X84775Y-49375D02*
X85150Y-49375D01*
X81025Y-49375D02*
X81475Y-49375D01*
X77925Y-49375D02*
X78975Y-49375D01*
X74175Y-49375D02*
X74225Y-49375D01*
X72875Y-49375D02*
X73325Y-49375D01*
X68925Y-49375D02*
X71075Y-49375D01*
X67025Y-49375D02*
X67075Y-49375D01*
X84775Y-49350D02*
X85150Y-49350D01*
X81025Y-49350D02*
X81475Y-49350D01*
X77925Y-49350D02*
X78975Y-49350D01*
X74175Y-49350D02*
X74225Y-49350D01*
X72925Y-49350D02*
X73325Y-49350D01*
X68925Y-49350D02*
X71075Y-49350D01*
X67025Y-49350D02*
X67075Y-49350D01*
X84775Y-49325D02*
X85150Y-49325D01*
X81025Y-49325D02*
X81475Y-49325D01*
X77950Y-49325D02*
X78975Y-49325D01*
X74200Y-49325D02*
X74225Y-49325D01*
X72950Y-49325D02*
X73300Y-49325D01*
X68950Y-49325D02*
X71050Y-49325D01*
X67025Y-49325D02*
X67050Y-49325D01*
X84775Y-49300D02*
X85150Y-49300D01*
X81025Y-49300D02*
X81475Y-49300D01*
X77975Y-49300D02*
X78975Y-49300D01*
X72975Y-49300D02*
X73275Y-49300D01*
X68975Y-49300D02*
X71025Y-49300D01*
X84775Y-49275D02*
X85150Y-49275D01*
X81025Y-49275D02*
X81475Y-49275D01*
X78000Y-49275D02*
X78975Y-49275D01*
X73000Y-49275D02*
X73250Y-49275D01*
X69000Y-49275D02*
X71000Y-49275D01*
X84775Y-49250D02*
X85150Y-49250D01*
X81025Y-49250D02*
X81475Y-49250D01*
X78000Y-49250D02*
X78975Y-49250D01*
X73050Y-49250D02*
X73250Y-49250D01*
X69000Y-49250D02*
X71000Y-49250D01*
X83525Y-49225D02*
X85150Y-49225D01*
X81025Y-49225D02*
X81475Y-49225D01*
X78025Y-49225D02*
X78975Y-49225D01*
X73075Y-49225D02*
X73225Y-49225D01*
X69025Y-49225D02*
X70975Y-49225D01*
X83525Y-49200D02*
X85150Y-49200D01*
X81025Y-49200D02*
X81475Y-49200D01*
X78025Y-49200D02*
X78975Y-49200D01*
X73100Y-49200D02*
X73225Y-49200D01*
X69025Y-49200D02*
X70975Y-49200D01*
X83525Y-49175D02*
X85150Y-49175D01*
X81025Y-49175D02*
X81475Y-49175D01*
X78025Y-49175D02*
X78975Y-49175D01*
X73125Y-49175D02*
X73225Y-49175D01*
X69025Y-49175D02*
X70975Y-49175D01*
X83525Y-49150D02*
X85150Y-49150D01*
X81050Y-49150D02*
X81475Y-49150D01*
X78050Y-49150D02*
X78975Y-49150D01*
X73175Y-49150D02*
X73200Y-49150D01*
X69050Y-49150D02*
X70950Y-49150D01*
X83525Y-49125D02*
X85150Y-49125D01*
X81050Y-49125D02*
X81475Y-49125D01*
X78050Y-49125D02*
X78975Y-49125D01*
X69050Y-49125D02*
X70950Y-49125D01*
X83525Y-49100D02*
X85150Y-49100D01*
X81050Y-49100D02*
X81475Y-49100D01*
X78050Y-49100D02*
X78975Y-49100D01*
X69050Y-49100D02*
X70950Y-49100D01*
X83525Y-49075D02*
X85150Y-49075D01*
X81050Y-49075D02*
X81475Y-49075D01*
X78050Y-49075D02*
X78975Y-49075D01*
X69050Y-49075D02*
X70950Y-49075D01*
X83525Y-49050D02*
X85150Y-49050D01*
X81050Y-49050D02*
X81475Y-49050D01*
X78050Y-49050D02*
X78975Y-49050D01*
X69050Y-49050D02*
X70950Y-49050D01*
X83525Y-49025D02*
X85150Y-49025D01*
X81050Y-49025D02*
X81475Y-49025D01*
X78050Y-49025D02*
X78975Y-49025D01*
X69050Y-49025D02*
X70950Y-49025D01*
X83525Y-49000D02*
X85150Y-49000D01*
X81050Y-49000D02*
X81475Y-49000D01*
X78050Y-49000D02*
X78975Y-49000D01*
X69050Y-49000D02*
X70950Y-49000D01*
X83525Y-48975D02*
X85150Y-48975D01*
X81050Y-48975D02*
X81475Y-48975D01*
X78050Y-48975D02*
X78975Y-48975D01*
X69050Y-48975D02*
X70950Y-48975D01*
X83525Y-48950D02*
X85150Y-48950D01*
X81050Y-48950D02*
X81475Y-48950D01*
X78050Y-48950D02*
X78975Y-48950D01*
X69050Y-48950D02*
X70950Y-48950D01*
X83525Y-48925D02*
X85150Y-48925D01*
X81050Y-48925D02*
X81475Y-48925D01*
X78050Y-48925D02*
X78975Y-48925D01*
X69050Y-48925D02*
X70950Y-48925D01*
X83525Y-48900D02*
X85150Y-48900D01*
X81050Y-48900D02*
X81475Y-48900D01*
X78050Y-48900D02*
X78975Y-48900D01*
X69050Y-48900D02*
X70950Y-48900D01*
X83525Y-48875D02*
X85150Y-48875D01*
X81050Y-48875D02*
X81475Y-48875D01*
X78050Y-48875D02*
X78975Y-48875D01*
X69050Y-48875D02*
X70950Y-48875D01*
X83525Y-48850D02*
X85150Y-48850D01*
X81050Y-48850D02*
X81475Y-48850D01*
X78050Y-48850D02*
X78975Y-48850D01*
X69050Y-48850D02*
X70950Y-48850D01*
X83525Y-48825D02*
X85150Y-48825D01*
X81025Y-48825D02*
X81475Y-48825D01*
X78025Y-48825D02*
X78975Y-48825D01*
X69025Y-48825D02*
X70975Y-48825D01*
X83525Y-48800D02*
X85150Y-48800D01*
X81025Y-48800D02*
X81475Y-48800D01*
X78025Y-48800D02*
X78975Y-48800D01*
X69025Y-48800D02*
X70975Y-48800D01*
X83525Y-48775D02*
X85150Y-48775D01*
X81025Y-48775D02*
X81475Y-48775D01*
X78025Y-48775D02*
X78975Y-48775D01*
X69025Y-48775D02*
X70975Y-48775D01*
X83525Y-48750D02*
X85150Y-48750D01*
X81025Y-48750D02*
X81475Y-48750D01*
X78000Y-48750D02*
X78975Y-48750D01*
X69000Y-48750D02*
X71000Y-48750D01*
X83525Y-48725D02*
X85150Y-48725D01*
X81025Y-48725D02*
X81475Y-48725D01*
X78000Y-48725D02*
X78975Y-48725D01*
X69000Y-48725D02*
X71000Y-48725D01*
X83525Y-48700D02*
X85150Y-48700D01*
X81025Y-48700D02*
X81450Y-48700D01*
X77975Y-48700D02*
X78975Y-48700D01*
X68975Y-48700D02*
X71025Y-48700D01*
X83525Y-48675D02*
X85150Y-48675D01*
X81025Y-48675D02*
X81425Y-48675D01*
X77950Y-48675D02*
X78975Y-48675D01*
X74200Y-48675D02*
X74225Y-48675D01*
X68950Y-48675D02*
X71050Y-48675D01*
X83525Y-48650D02*
X85150Y-48650D01*
X81025Y-48650D02*
X81400Y-48650D01*
X77925Y-48650D02*
X78975Y-48650D01*
X74175Y-48650D02*
X74225Y-48650D01*
X68925Y-48650D02*
X71075Y-48650D01*
X83525Y-48625D02*
X85150Y-48625D01*
X81025Y-48625D02*
X81375Y-48625D01*
X77925Y-48625D02*
X78975Y-48625D01*
X74175Y-48625D02*
X74225Y-48625D01*
X68925Y-48625D02*
X71075Y-48625D01*
X83525Y-48600D02*
X85150Y-48600D01*
X81025Y-48600D02*
X81350Y-48600D01*
X77900Y-48600D02*
X78975Y-48600D01*
X74150Y-48600D02*
X74225Y-48600D01*
X68900Y-48600D02*
X71100Y-48600D01*
X83525Y-48575D02*
X85150Y-48575D01*
X81025Y-48575D02*
X81325Y-48575D01*
X77850Y-48575D02*
X78975Y-48575D01*
X74100Y-48575D02*
X74225Y-48575D01*
X68850Y-48575D02*
X71150Y-48575D01*
X83525Y-48550D02*
X85150Y-48550D01*
X81025Y-48550D02*
X81300Y-48550D01*
X77825Y-48550D02*
X78975Y-48550D01*
X74075Y-48550D02*
X74225Y-48550D01*
X68825Y-48550D02*
X71175Y-48550D01*
X83525Y-48525D02*
X85150Y-48525D01*
X81025Y-48525D02*
X81275Y-48525D01*
X77800Y-48525D02*
X78975Y-48525D01*
X74050Y-48525D02*
X74225Y-48525D01*
X68800Y-48525D02*
X71200Y-48525D01*
X83525Y-48500D02*
X85150Y-48500D01*
X81025Y-48500D02*
X81250Y-48500D01*
X77750Y-48500D02*
X78975Y-48500D01*
X74000Y-48500D02*
X74225Y-48500D01*
X69175Y-48500D02*
X71250Y-48500D01*
X83525Y-48475D02*
X85150Y-48475D01*
X81025Y-48475D02*
X81225Y-48475D01*
X77800Y-48475D02*
X78975Y-48475D01*
X74050Y-48475D02*
X74225Y-48475D01*
X69225Y-48475D02*
X71200Y-48475D01*
X83525Y-48450D02*
X85150Y-48450D01*
X81025Y-48450D02*
X81200Y-48450D01*
X77825Y-48450D02*
X78975Y-48450D01*
X74075Y-48450D02*
X74225Y-48450D01*
X69275Y-48450D02*
X71175Y-48450D01*
X83525Y-48425D02*
X85150Y-48425D01*
X81025Y-48425D02*
X81175Y-48425D01*
X77850Y-48425D02*
X78975Y-48425D01*
X74100Y-48425D02*
X74225Y-48425D01*
X69325Y-48425D02*
X71150Y-48425D01*
X83525Y-48400D02*
X85150Y-48400D01*
X81025Y-48400D02*
X81150Y-48400D01*
X77900Y-48400D02*
X78975Y-48400D01*
X74150Y-48400D02*
X74225Y-48400D01*
X69350Y-48400D02*
X71100Y-48400D01*
X83525Y-48375D02*
X85150Y-48375D01*
X81025Y-48375D02*
X81125Y-48375D01*
X77925Y-48375D02*
X78975Y-48375D01*
X74175Y-48375D02*
X74225Y-48375D01*
X69375Y-48375D02*
X71075Y-48375D01*
X83525Y-48350D02*
X85150Y-48350D01*
X81025Y-48350D02*
X81100Y-48350D01*
X77925Y-48350D02*
X78975Y-48350D01*
X74175Y-48350D02*
X74225Y-48350D01*
X69400Y-48350D02*
X71075Y-48350D01*
X83525Y-48325D02*
X85150Y-48325D01*
X81025Y-48325D02*
X81075Y-48325D01*
X77950Y-48325D02*
X78975Y-48325D01*
X74200Y-48325D02*
X74225Y-48325D01*
X69425Y-48325D02*
X71050Y-48325D01*
X83525Y-48300D02*
X85150Y-48300D01*
X81025Y-48300D02*
X81050Y-48300D01*
X77975Y-48300D02*
X78975Y-48300D01*
X69450Y-48300D02*
X71025Y-48300D01*
X83525Y-48275D02*
X85150Y-48275D01*
X78000Y-48275D02*
X78975Y-48275D01*
X69475Y-48275D02*
X71000Y-48275D01*
X83525Y-48250D02*
X85150Y-48250D01*
X78000Y-48250D02*
X78975Y-48250D01*
X69500Y-48250D02*
X71000Y-48250D01*
X83525Y-48225D02*
X85150Y-48225D01*
X78025Y-48225D02*
X78975Y-48225D01*
X69525Y-48225D02*
X70975Y-48225D01*
X83525Y-48200D02*
X85150Y-48200D01*
X78025Y-48200D02*
X78975Y-48200D01*
X69550Y-48200D02*
X70975Y-48200D01*
X83525Y-48175D02*
X85150Y-48175D01*
X78025Y-48175D02*
X78975Y-48175D01*
X69575Y-48175D02*
X70975Y-48175D01*
X83525Y-48150D02*
X85150Y-48150D01*
X78050Y-48150D02*
X78975Y-48150D01*
X69600Y-48150D02*
X70950Y-48150D01*
X83525Y-48125D02*
X85150Y-48125D01*
X78050Y-48125D02*
X78975Y-48125D01*
X69625Y-48125D02*
X70950Y-48125D01*
X83525Y-48100D02*
X85150Y-48100D01*
X78050Y-48100D02*
X78975Y-48100D01*
X69650Y-48100D02*
X70950Y-48100D01*
X83525Y-48075D02*
X85150Y-48075D01*
X78050Y-48075D02*
X78975Y-48075D01*
X69675Y-48075D02*
X70950Y-48075D01*
X83525Y-48050D02*
X85150Y-48050D01*
X78050Y-48050D02*
X78975Y-48050D01*
X69700Y-48050D02*
X70950Y-48050D01*
X83525Y-48025D02*
X85150Y-48025D01*
X78050Y-48025D02*
X78975Y-48025D01*
X69725Y-48025D02*
X70950Y-48025D01*
X83525Y-48000D02*
X85150Y-48000D01*
X78050Y-48000D02*
X78975Y-48000D01*
X69750Y-48000D02*
X70950Y-48000D01*
X83525Y-47975D02*
X85150Y-47975D01*
X78050Y-47975D02*
X78975Y-47975D01*
X69775Y-47975D02*
X70950Y-47975D01*
X83525Y-47950D02*
X85150Y-47950D01*
X78050Y-47950D02*
X78975Y-47950D01*
X69800Y-47950D02*
X70950Y-47950D01*
X83525Y-47925D02*
X85150Y-47925D01*
X78050Y-47925D02*
X78975Y-47925D01*
X69825Y-47925D02*
X70950Y-47925D01*
X83525Y-47900D02*
X85150Y-47900D01*
X78050Y-47900D02*
X78975Y-47900D01*
X69850Y-47900D02*
X70950Y-47900D01*
X83525Y-47875D02*
X85150Y-47875D01*
X78050Y-47875D02*
X78975Y-47875D01*
X69875Y-47875D02*
X70950Y-47875D01*
X83525Y-47850D02*
X85150Y-47850D01*
X78050Y-47850D02*
X78975Y-47850D01*
X69900Y-47850D02*
X70950Y-47850D01*
X83500Y-47825D02*
X85150Y-47825D01*
X78025Y-47825D02*
X78975Y-47825D01*
X69925Y-47825D02*
X70975Y-47825D01*
X83500Y-47800D02*
X85150Y-47800D01*
X78025Y-47800D02*
X78975Y-47800D01*
X69950Y-47800D02*
X70975Y-47800D01*
X83475Y-47775D02*
X85150Y-47775D01*
X78025Y-47775D02*
X78975Y-47775D01*
X69950Y-47775D02*
X70975Y-47775D01*
X83475Y-47750D02*
X85150Y-47750D01*
X78025Y-47750D02*
X78975Y-47750D01*
X69975Y-47750D02*
X71000Y-47750D01*
X83450Y-47725D02*
X85150Y-47725D01*
X78025Y-47725D02*
X78975Y-47725D01*
X69975Y-47725D02*
X71000Y-47725D01*
X83450Y-47700D02*
X85150Y-47700D01*
X78025Y-47700D02*
X78975Y-47700D01*
X70000Y-47700D02*
X71025Y-47700D01*
X83425Y-47675D02*
X85150Y-47675D01*
X78025Y-47675D02*
X78975Y-47675D01*
X70000Y-47675D02*
X71050Y-47675D01*
X83400Y-47650D02*
X85150Y-47650D01*
X78025Y-47650D02*
X78975Y-47650D01*
X70025Y-47650D02*
X71075Y-47650D01*
X83375Y-47625D02*
X85150Y-47625D01*
X78025Y-47625D02*
X78975Y-47625D01*
X70025Y-47625D02*
X71075Y-47625D01*
X83350Y-47600D02*
X85150Y-47600D01*
X78025Y-47600D02*
X78975Y-47600D01*
X70025Y-47600D02*
X71100Y-47600D01*
X83325Y-47575D02*
X85150Y-47575D01*
X78025Y-47575D02*
X78975Y-47575D01*
X70025Y-47575D02*
X71150Y-47575D01*
X83300Y-47550D02*
X85150Y-47550D01*
X78025Y-47550D02*
X78975Y-47550D01*
X70025Y-47550D02*
X71175Y-47550D01*
X83275Y-47525D02*
X85150Y-47525D01*
X78025Y-47525D02*
X78975Y-47525D01*
X70025Y-47525D02*
X71200Y-47525D01*
X83250Y-47500D02*
X85150Y-47500D01*
X78025Y-47500D02*
X78975Y-47500D01*
X70025Y-47500D02*
X71250Y-47500D01*
X83225Y-47475D02*
X85150Y-47475D01*
X78025Y-47475D02*
X78975Y-47475D01*
X70025Y-47475D02*
X71200Y-47475D01*
X83200Y-47450D02*
X85150Y-47450D01*
X78025Y-47450D02*
X78975Y-47450D01*
X70025Y-47450D02*
X71175Y-47450D01*
X83175Y-47425D02*
X85150Y-47425D01*
X78025Y-47425D02*
X78975Y-47425D01*
X70025Y-47425D02*
X71150Y-47425D01*
X83150Y-47400D02*
X85150Y-47400D01*
X78025Y-47400D02*
X78975Y-47400D01*
X70025Y-47400D02*
X71100Y-47400D01*
X83125Y-47375D02*
X85150Y-47375D01*
X78025Y-47375D02*
X78975Y-47375D01*
X70025Y-47375D02*
X71075Y-47375D01*
X83100Y-47350D02*
X85150Y-47350D01*
X78025Y-47350D02*
X78975Y-47350D01*
X70025Y-47350D02*
X71075Y-47350D01*
X83075Y-47325D02*
X85150Y-47325D01*
X78025Y-47325D02*
X78975Y-47325D01*
X70025Y-47325D02*
X71050Y-47325D01*
X83050Y-47300D02*
X85150Y-47300D01*
X78025Y-47300D02*
X78975Y-47300D01*
X70025Y-47300D02*
X71025Y-47300D01*
X83025Y-47275D02*
X85150Y-47275D01*
X78025Y-47275D02*
X78975Y-47275D01*
X70025Y-47275D02*
X71000Y-47275D01*
X83000Y-47250D02*
X85150Y-47250D01*
X78025Y-47250D02*
X78975Y-47250D01*
X70025Y-47250D02*
X71000Y-47250D01*
X82975Y-47225D02*
X85150Y-47225D01*
X78025Y-47225D02*
X78975Y-47225D01*
X70025Y-47225D02*
X70975Y-47225D01*
X82950Y-47200D02*
X85150Y-47200D01*
X78025Y-47200D02*
X78975Y-47200D01*
X70025Y-47200D02*
X70975Y-47200D01*
X82925Y-47175D02*
X85150Y-47175D01*
X78025Y-47175D02*
X78975Y-47175D01*
X70025Y-47175D02*
X70975Y-47175D01*
X82900Y-47150D02*
X85150Y-47150D01*
X78025Y-47150D02*
X78975Y-47150D01*
X70025Y-47150D02*
X70950Y-47150D01*
X82875Y-47125D02*
X85150Y-47125D01*
X78025Y-47125D02*
X78975Y-47125D01*
X70025Y-47125D02*
X70950Y-47125D01*
X82850Y-47100D02*
X85150Y-47100D01*
X78025Y-47100D02*
X78975Y-47100D01*
X70025Y-47100D02*
X70950Y-47100D01*
X82825Y-47075D02*
X85150Y-47075D01*
X78025Y-47075D02*
X78975Y-47075D01*
X70025Y-47075D02*
X70950Y-47075D01*
X82800Y-47050D02*
X85150Y-47050D01*
X78025Y-47050D02*
X78975Y-47050D01*
X70025Y-47050D02*
X70950Y-47050D01*
X82775Y-47025D02*
X85150Y-47025D01*
X78025Y-47025D02*
X78975Y-47025D01*
X70025Y-47025D02*
X70950Y-47025D01*
X82750Y-47000D02*
X85150Y-47000D01*
X78025Y-47000D02*
X78975Y-47000D01*
X70025Y-47000D02*
X70950Y-47000D01*
X82725Y-46975D02*
X85150Y-46975D01*
X78025Y-46975D02*
X78975Y-46975D01*
X70025Y-46975D02*
X70950Y-46975D01*
X82700Y-46950D02*
X85150Y-46950D01*
X78025Y-46950D02*
X78975Y-46950D01*
X70025Y-46950D02*
X70950Y-46950D01*
X82675Y-46925D02*
X85150Y-46925D01*
X78025Y-46925D02*
X78975Y-46925D01*
X70025Y-46925D02*
X70950Y-46925D01*
X82650Y-46900D02*
X85150Y-46900D01*
X78025Y-46900D02*
X78975Y-46900D01*
X70025Y-46900D02*
X70950Y-46900D01*
X82625Y-46875D02*
X85150Y-46875D01*
X78025Y-46875D02*
X78975Y-46875D01*
X70025Y-46875D02*
X70950Y-46875D01*
X82600Y-46850D02*
X85150Y-46850D01*
X78025Y-46850D02*
X78975Y-46850D01*
X70025Y-46850D02*
X70950Y-46850D01*
X82575Y-46825D02*
X85150Y-46825D01*
X78025Y-46825D02*
X78975Y-46825D01*
X70025Y-46825D02*
X70975Y-46825D01*
X83750Y-46800D02*
X85150Y-46800D01*
X82550Y-46800D02*
X83250Y-46800D01*
X78025Y-46800D02*
X78975Y-46800D01*
X70025Y-46800D02*
X70975Y-46800D01*
X83825Y-46775D02*
X85150Y-46775D01*
X82525Y-46775D02*
X83175Y-46775D01*
X78025Y-46775D02*
X78975Y-46775D01*
X70025Y-46775D02*
X70975Y-46775D01*
X83900Y-46750D02*
X85150Y-46750D01*
X82500Y-46750D02*
X83100Y-46750D01*
X78025Y-46750D02*
X78975Y-46750D01*
X70025Y-46750D02*
X71000Y-46750D01*
X83975Y-46725D02*
X85150Y-46725D01*
X82475Y-46725D02*
X83025Y-46725D01*
X78025Y-46725D02*
X78975Y-46725D01*
X70025Y-46725D02*
X71000Y-46725D01*
X84025Y-46700D02*
X85150Y-46700D01*
X82450Y-46700D02*
X82975Y-46700D01*
X78025Y-46700D02*
X78975Y-46700D01*
X70025Y-46700D02*
X71025Y-46700D01*
X84050Y-46675D02*
X85150Y-46675D01*
X82425Y-46675D02*
X82950Y-46675D01*
X78025Y-46675D02*
X78975Y-46675D01*
X70025Y-46675D02*
X71050Y-46675D01*
X84100Y-46650D02*
X85150Y-46650D01*
X82400Y-46650D02*
X82900Y-46650D01*
X78025Y-46650D02*
X78975Y-46650D01*
X70025Y-46650D02*
X71075Y-46650D01*
X84125Y-46625D02*
X85150Y-46625D01*
X82375Y-46625D02*
X82875Y-46625D01*
X78025Y-46625D02*
X78975Y-46625D01*
X70025Y-46625D02*
X71075Y-46625D01*
X84175Y-46600D02*
X85150Y-46600D01*
X82350Y-46600D02*
X82825Y-46600D01*
X78025Y-46600D02*
X78975Y-46600D01*
X70025Y-46600D02*
X71100Y-46600D01*
X84200Y-46575D02*
X85150Y-46575D01*
X82325Y-46575D02*
X82800Y-46575D01*
X78025Y-46575D02*
X78975Y-46575D01*
X70025Y-46575D02*
X71150Y-46575D01*
X84225Y-46550D02*
X85150Y-46550D01*
X82300Y-46550D02*
X82775Y-46550D01*
X78025Y-46550D02*
X78975Y-46550D01*
X70025Y-46550D02*
X71175Y-46550D01*
X84250Y-46525D02*
X85150Y-46525D01*
X82275Y-46525D02*
X82750Y-46525D01*
X78025Y-46525D02*
X78975Y-46525D01*
X70025Y-46525D02*
X71200Y-46525D01*
X84275Y-46500D02*
X85150Y-46500D01*
X82250Y-46500D02*
X82725Y-46500D01*
X78025Y-46500D02*
X78975Y-46500D01*
X70025Y-46500D02*
X71250Y-46500D01*
X84300Y-46475D02*
X85150Y-46475D01*
X82225Y-46475D02*
X82700Y-46475D01*
X78025Y-46475D02*
X78975Y-46475D01*
X71800Y-46475D02*
X73225Y-46475D01*
X70025Y-46475D02*
X71200Y-46475D01*
X84325Y-46450D02*
X85150Y-46450D01*
X82200Y-46450D02*
X82675Y-46450D01*
X78025Y-46450D02*
X78975Y-46450D01*
X71825Y-46450D02*
X73225Y-46450D01*
X70025Y-46450D02*
X71175Y-46450D01*
X84350Y-46425D02*
X85150Y-46425D01*
X82175Y-46425D02*
X82650Y-46425D01*
X78025Y-46425D02*
X78975Y-46425D01*
X71850Y-46425D02*
X73225Y-46425D01*
X70025Y-46425D02*
X71150Y-46425D01*
X84375Y-46400D02*
X85150Y-46400D01*
X82150Y-46400D02*
X82625Y-46400D01*
X78025Y-46400D02*
X78975Y-46400D01*
X71900Y-46400D02*
X73225Y-46400D01*
X70025Y-46400D02*
X71100Y-46400D01*
X84375Y-46375D02*
X85150Y-46375D01*
X82125Y-46375D02*
X82625Y-46375D01*
X78025Y-46375D02*
X78975Y-46375D01*
X71925Y-46375D02*
X73225Y-46375D01*
X70025Y-46375D02*
X71075Y-46375D01*
X84400Y-46350D02*
X85150Y-46350D01*
X82100Y-46350D02*
X82600Y-46350D01*
X78025Y-46350D02*
X78975Y-46350D01*
X71925Y-46350D02*
X73225Y-46350D01*
X70025Y-46350D02*
X71075Y-46350D01*
X84425Y-46325D02*
X85150Y-46325D01*
X82075Y-46325D02*
X82575Y-46325D01*
X78025Y-46325D02*
X78975Y-46325D01*
X71950Y-46325D02*
X73225Y-46325D01*
X70025Y-46325D02*
X71050Y-46325D01*
X84425Y-46300D02*
X85150Y-46300D01*
X82050Y-46300D02*
X82575Y-46300D01*
X78025Y-46300D02*
X78975Y-46300D01*
X71975Y-46300D02*
X73225Y-46300D01*
X70025Y-46300D02*
X71025Y-46300D01*
X84450Y-46275D02*
X85150Y-46275D01*
X82025Y-46275D02*
X82550Y-46275D01*
X78025Y-46275D02*
X78975Y-46275D01*
X72000Y-46275D02*
X73225Y-46275D01*
X70025Y-46275D02*
X71000Y-46275D01*
X84475Y-46250D02*
X85150Y-46250D01*
X82000Y-46250D02*
X82525Y-46250D01*
X78025Y-46250D02*
X78975Y-46250D01*
X72000Y-46250D02*
X73225Y-46250D01*
X70025Y-46250D02*
X71000Y-46250D01*
X84475Y-46225D02*
X85150Y-46225D01*
X81975Y-46225D02*
X82525Y-46225D01*
X80025Y-46225D02*
X80050Y-46225D01*
X78025Y-46225D02*
X78975Y-46225D01*
X72025Y-46225D02*
X73225Y-46225D01*
X70025Y-46225D02*
X70975Y-46225D01*
X84500Y-46200D02*
X85150Y-46200D01*
X81950Y-46200D02*
X82500Y-46200D01*
X80025Y-46200D02*
X80050Y-46200D01*
X78025Y-46200D02*
X78975Y-46200D01*
X72025Y-46200D02*
X72900Y-46200D01*
X70025Y-46200D02*
X70975Y-46200D01*
X84500Y-46175D02*
X85150Y-46175D01*
X81925Y-46175D02*
X82500Y-46175D01*
X80025Y-46175D02*
X80075Y-46175D01*
X78025Y-46175D02*
X78975Y-46175D01*
X72025Y-46175D02*
X72825Y-46175D01*
X70025Y-46175D02*
X70975Y-46175D01*
X84500Y-46150D02*
X85150Y-46150D01*
X81900Y-46150D02*
X82500Y-46150D01*
X80025Y-46150D02*
X80100Y-46150D01*
X78025Y-46150D02*
X78975Y-46150D01*
X72050Y-46150D02*
X72775Y-46150D01*
X70025Y-46150D02*
X70950Y-46150D01*
X84525Y-46125D02*
X85150Y-46125D01*
X81875Y-46125D02*
X82475Y-46125D01*
X80025Y-46125D02*
X80125Y-46125D01*
X78025Y-46125D02*
X78975Y-46125D01*
X72050Y-46125D02*
X72750Y-46125D01*
X70025Y-46125D02*
X70950Y-46125D01*
X84525Y-46100D02*
X85150Y-46100D01*
X81850Y-46100D02*
X82475Y-46100D01*
X80025Y-46100D02*
X80150Y-46100D01*
X78025Y-46100D02*
X78975Y-46100D01*
X72050Y-46100D02*
X72725Y-46100D01*
X70025Y-46100D02*
X70950Y-46100D01*
X84525Y-46075D02*
X85150Y-46075D01*
X81825Y-46075D02*
X82475Y-46075D01*
X80025Y-46075D02*
X80175Y-46075D01*
X78025Y-46075D02*
X78975Y-46075D01*
X72050Y-46075D02*
X72675Y-46075D01*
X70025Y-46075D02*
X70950Y-46075D01*
X84550Y-46050D02*
X85150Y-46050D01*
X81775Y-46050D02*
X82450Y-46050D01*
X80025Y-46050D02*
X80225Y-46050D01*
X78025Y-46050D02*
X78975Y-46050D01*
X72050Y-46050D02*
X72650Y-46050D01*
X70025Y-46050D02*
X70950Y-46050D01*
X84550Y-46025D02*
X85150Y-46025D01*
X81725Y-46025D02*
X82450Y-46025D01*
X80025Y-46025D02*
X80275Y-46025D01*
X78025Y-46025D02*
X78975Y-46025D01*
X72050Y-46025D02*
X72625Y-46025D01*
X70025Y-46025D02*
X70950Y-46025D01*
X84550Y-46000D02*
X85150Y-46000D01*
X81675Y-46000D02*
X82450Y-46000D01*
X80025Y-46000D02*
X80325Y-46000D01*
X78025Y-46000D02*
X78975Y-46000D01*
X72050Y-46000D02*
X72600Y-46000D01*
X70025Y-46000D02*
X70950Y-46000D01*
X84575Y-45975D02*
X85150Y-45975D01*
X80025Y-45975D02*
X82425Y-45975D01*
X78025Y-45975D02*
X78975Y-45975D01*
X72050Y-45975D02*
X72575Y-45975D01*
X70025Y-45975D02*
X70950Y-45975D01*
X84575Y-45950D02*
X85150Y-45950D01*
X80025Y-45950D02*
X82425Y-45950D01*
X78025Y-45950D02*
X78975Y-45950D01*
X72050Y-45950D02*
X72550Y-45950D01*
X70025Y-45950D02*
X70950Y-45950D01*
X84575Y-45925D02*
X85150Y-45925D01*
X80025Y-45925D02*
X82425Y-45925D01*
X78025Y-45925D02*
X78975Y-45925D01*
X72050Y-45925D02*
X72525Y-45925D01*
X70025Y-45925D02*
X70950Y-45925D01*
X84575Y-45900D02*
X85150Y-45900D01*
X80025Y-45900D02*
X82425Y-45900D01*
X78025Y-45900D02*
X78975Y-45900D01*
X72050Y-45900D02*
X72500Y-45900D01*
X70025Y-45900D02*
X70950Y-45900D01*
X84575Y-45875D02*
X85150Y-45875D01*
X80025Y-45875D02*
X82425Y-45875D01*
X78025Y-45875D02*
X78975Y-45875D01*
X72050Y-45875D02*
X72475Y-45875D01*
X70025Y-45875D02*
X70950Y-45875D01*
X84575Y-45850D02*
X85150Y-45850D01*
X80025Y-45850D02*
X82425Y-45850D01*
X78025Y-45850D02*
X78975Y-45850D01*
X72050Y-45850D02*
X72450Y-45850D01*
X70025Y-45850D02*
X70950Y-45850D01*
X84575Y-45825D02*
X85150Y-45825D01*
X80025Y-45825D02*
X82425Y-45825D01*
X78025Y-45825D02*
X78975Y-45825D01*
X72025Y-45825D02*
X72425Y-45825D01*
X70025Y-45825D02*
X70975Y-45825D01*
X84575Y-45800D02*
X85150Y-45800D01*
X80025Y-45800D02*
X82425Y-45800D01*
X78025Y-45800D02*
X78975Y-45800D01*
X72025Y-45800D02*
X72400Y-45800D01*
X70025Y-45800D02*
X70975Y-45800D01*
X84575Y-45775D02*
X85150Y-45775D01*
X80025Y-45775D02*
X82425Y-45775D01*
X78025Y-45775D02*
X78975Y-45775D01*
X72025Y-45775D02*
X72375Y-45775D01*
X70025Y-45775D02*
X70975Y-45775D01*
X84575Y-45750D02*
X85150Y-45750D01*
X80025Y-45750D02*
X82425Y-45750D01*
X78025Y-45750D02*
X78975Y-45750D01*
X72000Y-45750D02*
X72350Y-45750D01*
X70025Y-45750D02*
X71000Y-45750D01*
X84575Y-45725D02*
X85150Y-45725D01*
X80025Y-45725D02*
X82425Y-45725D01*
X78025Y-45725D02*
X78975Y-45725D01*
X72000Y-45725D02*
X72325Y-45725D01*
X70025Y-45725D02*
X71000Y-45725D01*
X84575Y-45700D02*
X85150Y-45700D01*
X80025Y-45700D02*
X82425Y-45700D01*
X78025Y-45700D02*
X78975Y-45700D01*
X71975Y-45700D02*
X72300Y-45700D01*
X70025Y-45700D02*
X71025Y-45700D01*
X84575Y-45675D02*
X85150Y-45675D01*
X80025Y-45675D02*
X82425Y-45675D01*
X78025Y-45675D02*
X78975Y-45675D01*
X71950Y-45675D02*
X72275Y-45675D01*
X70025Y-45675D02*
X71050Y-45675D01*
X84575Y-45650D02*
X85150Y-45650D01*
X80025Y-45650D02*
X82425Y-45650D01*
X78025Y-45650D02*
X78975Y-45650D01*
X71925Y-45650D02*
X72250Y-45650D01*
X70025Y-45650D02*
X71075Y-45650D01*
X84575Y-45625D02*
X85150Y-45625D01*
X80025Y-45625D02*
X82425Y-45625D01*
X78025Y-45625D02*
X78975Y-45625D01*
X71925Y-45625D02*
X72225Y-45625D01*
X70025Y-45625D02*
X71075Y-45625D01*
X84575Y-45600D02*
X85150Y-45600D01*
X80025Y-45600D02*
X82425Y-45600D01*
X78025Y-45600D02*
X78975Y-45600D01*
X71900Y-45600D02*
X72200Y-45600D01*
X70025Y-45600D02*
X71100Y-45600D01*
X84575Y-45575D02*
X85150Y-45575D01*
X80025Y-45575D02*
X82425Y-45575D01*
X78000Y-45575D02*
X78975Y-45575D01*
X71850Y-45575D02*
X72175Y-45575D01*
X70025Y-45575D02*
X71150Y-45575D01*
X84575Y-45550D02*
X85150Y-45550D01*
X80025Y-45550D02*
X82425Y-45550D01*
X78000Y-45550D02*
X78975Y-45550D01*
X71825Y-45550D02*
X72150Y-45550D01*
X70025Y-45550D02*
X71175Y-45550D01*
X84575Y-45525D02*
X85150Y-45525D01*
X80675Y-45525D02*
X82425Y-45525D01*
X80025Y-45525D02*
X80325Y-45525D01*
X77975Y-45525D02*
X78975Y-45525D01*
X71800Y-45525D02*
X72125Y-45525D01*
X70025Y-45525D02*
X71200Y-45525D01*
X84550Y-45500D02*
X85150Y-45500D01*
X80750Y-45500D02*
X82450Y-45500D01*
X80025Y-45500D02*
X80250Y-45500D01*
X77975Y-45500D02*
X78975Y-45500D01*
X70025Y-45500D02*
X71250Y-45500D01*
X84550Y-45475D02*
X85150Y-45475D01*
X80800Y-45475D02*
X82450Y-45475D01*
X80025Y-45475D02*
X80200Y-45475D01*
X77950Y-45475D02*
X78975Y-45475D01*
X70025Y-45475D02*
X71200Y-45475D01*
X84550Y-45450D02*
X85150Y-45450D01*
X80825Y-45450D02*
X82450Y-45450D01*
X80025Y-45450D02*
X80175Y-45450D01*
X77950Y-45450D02*
X78975Y-45450D01*
X70025Y-45450D02*
X71175Y-45450D01*
X84525Y-45425D02*
X85150Y-45425D01*
X80850Y-45425D02*
X82475Y-45425D01*
X80025Y-45425D02*
X80150Y-45425D01*
X77925Y-45425D02*
X78975Y-45425D01*
X70025Y-45425D02*
X71150Y-45425D01*
X84525Y-45400D02*
X85150Y-45400D01*
X80900Y-45400D02*
X82475Y-45400D01*
X80025Y-45400D02*
X80100Y-45400D01*
X77900Y-45400D02*
X78975Y-45400D01*
X70025Y-45400D02*
X71100Y-45400D01*
X84525Y-45375D02*
X85150Y-45375D01*
X80925Y-45375D02*
X82475Y-45375D01*
X80025Y-45375D02*
X80075Y-45375D01*
X77925Y-45375D02*
X78975Y-45375D01*
X70025Y-45375D02*
X71075Y-45375D01*
X84500Y-45350D02*
X85150Y-45350D01*
X80925Y-45350D02*
X82500Y-45350D01*
X80025Y-45350D02*
X80075Y-45350D01*
X77925Y-45350D02*
X78975Y-45350D01*
X70025Y-45350D02*
X71075Y-45350D01*
X84500Y-45325D02*
X85150Y-45325D01*
X80950Y-45325D02*
X82500Y-45325D01*
X80025Y-45325D02*
X80050Y-45325D01*
X77950Y-45325D02*
X78975Y-45325D01*
X70025Y-45325D02*
X71050Y-45325D01*
X84500Y-45300D02*
X85150Y-45300D01*
X80975Y-45300D02*
X82500Y-45300D01*
X77975Y-45300D02*
X78975Y-45300D01*
X70025Y-45300D02*
X71025Y-45300D01*
X84475Y-45275D02*
X85150Y-45275D01*
X81000Y-45275D02*
X82525Y-45275D01*
X78000Y-45275D02*
X78975Y-45275D01*
X70025Y-45275D02*
X71000Y-45275D01*
X84475Y-45250D02*
X85150Y-45250D01*
X81000Y-45250D02*
X82525Y-45250D01*
X78000Y-45250D02*
X78975Y-45250D01*
X70025Y-45250D02*
X71000Y-45250D01*
X84450Y-45225D02*
X85150Y-45225D01*
X81025Y-45225D02*
X82550Y-45225D01*
X78025Y-45225D02*
X78975Y-45225D01*
X70025Y-45225D02*
X70975Y-45225D01*
X84425Y-45200D02*
X85150Y-45200D01*
X81025Y-45200D02*
X82575Y-45200D01*
X78025Y-45200D02*
X78975Y-45200D01*
X70025Y-45200D02*
X70975Y-45200D01*
X84425Y-45175D02*
X85150Y-45175D01*
X81025Y-45175D02*
X82575Y-45175D01*
X78025Y-45175D02*
X78975Y-45175D01*
X70025Y-45175D02*
X70975Y-45175D01*
X84400Y-45150D02*
X85150Y-45150D01*
X81050Y-45150D02*
X82600Y-45150D01*
X78050Y-45150D02*
X78975Y-45150D01*
X70025Y-45150D02*
X70950Y-45150D01*
X84375Y-45125D02*
X85150Y-45125D01*
X81050Y-45125D02*
X82625Y-45125D01*
X78050Y-45125D02*
X78975Y-45125D01*
X70025Y-45125D02*
X70950Y-45125D01*
X84375Y-45100D02*
X85150Y-45100D01*
X81050Y-45100D02*
X82625Y-45100D01*
X78050Y-45100D02*
X78975Y-45100D01*
X70025Y-45100D02*
X70950Y-45100D01*
X84350Y-45075D02*
X85150Y-45075D01*
X81050Y-45075D02*
X82650Y-45075D01*
X78050Y-45075D02*
X78975Y-45075D01*
X70025Y-45075D02*
X70950Y-45075D01*
X84325Y-45050D02*
X85150Y-45050D01*
X81050Y-45050D02*
X82675Y-45050D01*
X78050Y-45050D02*
X78975Y-45050D01*
X70025Y-45050D02*
X70950Y-45050D01*
X84300Y-45025D02*
X85150Y-45025D01*
X81050Y-45025D02*
X82700Y-45025D01*
X78050Y-45025D02*
X78975Y-45025D01*
X70025Y-45025D02*
X70950Y-45025D01*
X84275Y-45000D02*
X85150Y-45000D01*
X81050Y-45000D02*
X82725Y-45000D01*
X78050Y-45000D02*
X78975Y-45000D01*
X70025Y-45000D02*
X70950Y-45000D01*
X84250Y-44975D02*
X85150Y-44975D01*
X81050Y-44975D02*
X82750Y-44975D01*
X78050Y-44975D02*
X78975Y-44975D01*
X70025Y-44975D02*
X70950Y-44975D01*
X84225Y-44950D02*
X85150Y-44950D01*
X81050Y-44950D02*
X82775Y-44950D01*
X78050Y-44950D02*
X78975Y-44950D01*
X70025Y-44950D02*
X70950Y-44950D01*
X84200Y-44925D02*
X85150Y-44925D01*
X81050Y-44925D02*
X82800Y-44925D01*
X78050Y-44925D02*
X78975Y-44925D01*
X70025Y-44925D02*
X70950Y-44925D01*
X84175Y-44900D02*
X85150Y-44900D01*
X81050Y-44900D02*
X82825Y-44900D01*
X78050Y-44900D02*
X78975Y-44900D01*
X70025Y-44900D02*
X70950Y-44900D01*
X84125Y-44875D02*
X85150Y-44875D01*
X81050Y-44875D02*
X82875Y-44875D01*
X78050Y-44875D02*
X78975Y-44875D01*
X70025Y-44875D02*
X70950Y-44875D01*
X84100Y-44850D02*
X85150Y-44850D01*
X81050Y-44850D02*
X82900Y-44850D01*
X78050Y-44850D02*
X78975Y-44850D01*
X70025Y-44850D02*
X70950Y-44850D01*
X84050Y-44825D02*
X85150Y-44825D01*
X81025Y-44825D02*
X82950Y-44825D01*
X78025Y-44825D02*
X78975Y-44825D01*
X70025Y-44825D02*
X70975Y-44825D01*
X84025Y-44800D02*
X85150Y-44800D01*
X81025Y-44800D02*
X82975Y-44800D01*
X78025Y-44800D02*
X78975Y-44800D01*
X70025Y-44800D02*
X70975Y-44800D01*
X83975Y-44775D02*
X85150Y-44775D01*
X81025Y-44775D02*
X83025Y-44775D01*
X78025Y-44775D02*
X78975Y-44775D01*
X70025Y-44775D02*
X70975Y-44775D01*
X83900Y-44750D02*
X85150Y-44750D01*
X81025Y-44750D02*
X83100Y-44750D01*
X78025Y-44750D02*
X78975Y-44750D01*
X70025Y-44750D02*
X71000Y-44750D01*
X83825Y-44725D02*
X85150Y-44725D01*
X81025Y-44725D02*
X83175Y-44725D01*
X78025Y-44725D02*
X78975Y-44725D01*
X70025Y-44725D02*
X71000Y-44725D01*
X83750Y-44700D02*
X85150Y-44700D01*
X81025Y-44700D02*
X83250Y-44700D01*
X78025Y-44700D02*
X78975Y-44700D01*
X70025Y-44700D02*
X71025Y-44700D01*
X81025Y-44675D02*
X85150Y-44675D01*
X78025Y-44675D02*
X78975Y-44675D01*
X70025Y-44675D02*
X71050Y-44675D01*
X81025Y-44650D02*
X85150Y-44650D01*
X78025Y-44650D02*
X78975Y-44650D01*
X70025Y-44650D02*
X71075Y-44650D01*
X81025Y-44625D02*
X85150Y-44625D01*
X78025Y-44625D02*
X78975Y-44625D01*
X70025Y-44625D02*
X71075Y-44625D01*
X81025Y-44600D02*
X85150Y-44600D01*
X78025Y-44600D02*
X78975Y-44600D01*
X70025Y-44600D02*
X71100Y-44600D01*
X81025Y-44575D02*
X85150Y-44575D01*
X78025Y-44575D02*
X78975Y-44575D01*
X70025Y-44575D02*
X71150Y-44575D01*
X81025Y-44550D02*
X85150Y-44550D01*
X78025Y-44550D02*
X78975Y-44550D01*
X70025Y-44550D02*
X71175Y-44550D01*
X81025Y-44525D02*
X85150Y-44525D01*
X78025Y-44525D02*
X78975Y-44525D01*
X70025Y-44525D02*
X71200Y-44525D01*
X81025Y-44500D02*
X85150Y-44500D01*
X78025Y-44500D02*
X78975Y-44500D01*
X70025Y-44500D02*
X71250Y-44500D01*
X81025Y-44475D02*
X85150Y-44475D01*
X78025Y-44475D02*
X78975Y-44475D01*
X70025Y-44475D02*
X71200Y-44475D01*
X81025Y-44450D02*
X85150Y-44450D01*
X78025Y-44450D02*
X78975Y-44450D01*
X70025Y-44450D02*
X71175Y-44450D01*
X81025Y-44425D02*
X85150Y-44425D01*
X78025Y-44425D02*
X78975Y-44425D01*
X70025Y-44425D02*
X71150Y-44425D01*
X81025Y-44400D02*
X85150Y-44400D01*
X78025Y-44400D02*
X78975Y-44400D01*
X70025Y-44400D02*
X71100Y-44400D01*
X81025Y-44375D02*
X85150Y-44375D01*
X78025Y-44375D02*
X78975Y-44375D01*
X70025Y-44375D02*
X71075Y-44375D01*
X81025Y-44350D02*
X85150Y-44350D01*
X78025Y-44350D02*
X78975Y-44350D01*
X70025Y-44350D02*
X71075Y-44350D01*
X81025Y-44325D02*
X85150Y-44325D01*
X78025Y-44325D02*
X78975Y-44325D01*
X70000Y-44325D02*
X71050Y-44325D01*
X81025Y-44300D02*
X85150Y-44300D01*
X78025Y-44300D02*
X78975Y-44300D01*
X70000Y-44300D02*
X71025Y-44300D01*
X81025Y-44275D02*
X85150Y-44275D01*
X78025Y-44275D02*
X78975Y-44275D01*
X69975Y-44275D02*
X71000Y-44275D01*
X81025Y-44250D02*
X85150Y-44250D01*
X78025Y-44250D02*
X78975Y-44250D01*
X69975Y-44250D02*
X71000Y-44250D01*
X81025Y-44225D02*
X85150Y-44225D01*
X78025Y-44225D02*
X78975Y-44225D01*
X69950Y-44225D02*
X70975Y-44225D01*
X81025Y-44200D02*
X85150Y-44200D01*
X78025Y-44200D02*
X78975Y-44200D01*
X69950Y-44200D02*
X70975Y-44200D01*
X81025Y-44175D02*
X85150Y-44175D01*
X78025Y-44175D02*
X78975Y-44175D01*
X69925Y-44175D02*
X70975Y-44175D01*
X81025Y-44150D02*
X85150Y-44150D01*
X78025Y-44150D02*
X78975Y-44150D01*
X69900Y-44150D02*
X70950Y-44150D01*
X81025Y-44125D02*
X85150Y-44125D01*
X78025Y-44125D02*
X78975Y-44125D01*
X69875Y-44125D02*
X70950Y-44125D01*
X81025Y-44100D02*
X85150Y-44100D01*
X78025Y-44100D02*
X78975Y-44100D01*
X69850Y-44100D02*
X70950Y-44100D01*
X81025Y-44075D02*
X85150Y-44075D01*
X78025Y-44075D02*
X78975Y-44075D01*
X69825Y-44075D02*
X70950Y-44075D01*
X81025Y-44050D02*
X85150Y-44050D01*
X78025Y-44050D02*
X78975Y-44050D01*
X69800Y-44050D02*
X70950Y-44050D01*
X81025Y-44025D02*
X85150Y-44025D01*
X78025Y-44025D02*
X78975Y-44025D01*
X69775Y-44025D02*
X70950Y-44025D01*
X81025Y-44000D02*
X85150Y-44000D01*
X78025Y-44000D02*
X78975Y-44000D01*
X69750Y-44000D02*
X70950Y-44000D01*
X81025Y-43975D02*
X85150Y-43975D01*
X78025Y-43975D02*
X78975Y-43975D01*
X69725Y-43975D02*
X70950Y-43975D01*
X81025Y-43950D02*
X85150Y-43950D01*
X78025Y-43950D02*
X78975Y-43950D01*
X69700Y-43950D02*
X70950Y-43950D01*
X81025Y-43925D02*
X85150Y-43925D01*
X78025Y-43925D02*
X78975Y-43925D01*
X69675Y-43925D02*
X70950Y-43925D01*
X81025Y-43900D02*
X85150Y-43900D01*
X78025Y-43900D02*
X78975Y-43900D01*
X69650Y-43900D02*
X70950Y-43900D01*
X81025Y-43875D02*
X85150Y-43875D01*
X78025Y-43875D02*
X78975Y-43875D01*
X69625Y-43875D02*
X70950Y-43875D01*
X81025Y-43850D02*
X85150Y-43850D01*
X78025Y-43850D02*
X78975Y-43850D01*
X69600Y-43850D02*
X70950Y-43850D01*
X81025Y-43825D02*
X85150Y-43825D01*
X78000Y-43825D02*
X78975Y-43825D01*
X69575Y-43825D02*
X70975Y-43825D01*
X81025Y-43800D02*
X85150Y-43800D01*
X78000Y-43800D02*
X78975Y-43800D01*
X69550Y-43800D02*
X70975Y-43800D01*
X81025Y-43775D02*
X85150Y-43775D01*
X77975Y-43775D02*
X78975Y-43775D01*
X69525Y-43775D02*
X70975Y-43775D01*
X81025Y-43750D02*
X85150Y-43750D01*
X77975Y-43750D02*
X78975Y-43750D01*
X69500Y-43750D02*
X71000Y-43750D01*
X81025Y-43725D02*
X85150Y-43725D01*
X77950Y-43725D02*
X78975Y-43725D01*
X69475Y-43725D02*
X71000Y-43725D01*
X65025Y-43725D02*
X65050Y-43725D01*
X81025Y-43700D02*
X85150Y-43700D01*
X77950Y-43700D02*
X78975Y-43700D01*
X69450Y-43700D02*
X71025Y-43700D01*
X65025Y-43700D02*
X65050Y-43700D01*
X81025Y-43675D02*
X85150Y-43675D01*
X77925Y-43675D02*
X78975Y-43675D01*
X69425Y-43675D02*
X71050Y-43675D01*
X65025Y-43675D02*
X65075Y-43675D01*
X81025Y-43650D02*
X85150Y-43650D01*
X77900Y-43650D02*
X78975Y-43650D01*
X69400Y-43650D02*
X71075Y-43650D01*
X65025Y-43650D02*
X65100Y-43650D01*
X81025Y-43625D02*
X85150Y-43625D01*
X77875Y-43625D02*
X78975Y-43625D01*
X69375Y-43625D02*
X71075Y-43625D01*
X65025Y-43625D02*
X65125Y-43625D01*
X81025Y-43600D02*
X85150Y-43600D01*
X77850Y-43600D02*
X78975Y-43600D01*
X69350Y-43600D02*
X71100Y-43600D01*
X65025Y-43600D02*
X65150Y-43600D01*
X81025Y-43575D02*
X85150Y-43575D01*
X77825Y-43575D02*
X78975Y-43575D01*
X69325Y-43575D02*
X71150Y-43575D01*
X65025Y-43575D02*
X65175Y-43575D01*
X81025Y-43550D02*
X85150Y-43550D01*
X77775Y-43550D02*
X78975Y-43550D01*
X69275Y-43550D02*
X71175Y-43550D01*
X65025Y-43550D02*
X65200Y-43550D01*
X81025Y-43525D02*
X85150Y-43525D01*
X77725Y-43525D02*
X78975Y-43525D01*
X69225Y-43525D02*
X71200Y-43525D01*
X65025Y-43525D02*
X65225Y-43525D01*
X81025Y-43500D02*
X85150Y-43500D01*
X77750Y-43500D02*
X78975Y-43500D01*
X69175Y-43500D02*
X71250Y-43500D01*
X65025Y-43500D02*
X65250Y-43500D01*
X81025Y-43475D02*
X85150Y-43475D01*
X77800Y-43475D02*
X78975Y-43475D01*
X68800Y-43475D02*
X71200Y-43475D01*
X65025Y-43475D02*
X65275Y-43475D01*
X81025Y-43450D02*
X85150Y-43450D01*
X77825Y-43450D02*
X78975Y-43450D01*
X68825Y-43450D02*
X71175Y-43450D01*
X65025Y-43450D02*
X65300Y-43450D01*
X81025Y-43425D02*
X85150Y-43425D01*
X77850Y-43425D02*
X78975Y-43425D01*
X68850Y-43425D02*
X71150Y-43425D01*
X65025Y-43425D02*
X65325Y-43425D01*
X81025Y-43400D02*
X85150Y-43400D01*
X77900Y-43400D02*
X78975Y-43400D01*
X68900Y-43400D02*
X71100Y-43400D01*
X65025Y-43400D02*
X65350Y-43400D01*
X81025Y-43375D02*
X85150Y-43375D01*
X77925Y-43375D02*
X78975Y-43375D01*
X68925Y-43375D02*
X71075Y-43375D01*
X65025Y-43375D02*
X65375Y-43375D01*
X81025Y-43350D02*
X85150Y-43350D01*
X77925Y-43350D02*
X78975Y-43350D01*
X68925Y-43350D02*
X71075Y-43350D01*
X65025Y-43350D02*
X65400Y-43350D01*
X81025Y-43325D02*
X85150Y-43325D01*
X77950Y-43325D02*
X78975Y-43325D01*
X68950Y-43325D02*
X71050Y-43325D01*
X65025Y-43325D02*
X65425Y-43325D01*
X81025Y-43300D02*
X85150Y-43300D01*
X77975Y-43300D02*
X78975Y-43300D01*
X68975Y-43300D02*
X71025Y-43300D01*
X65025Y-43300D02*
X65450Y-43300D01*
X81025Y-43275D02*
X85150Y-43275D01*
X78000Y-43275D02*
X78975Y-43275D01*
X69000Y-43275D02*
X71000Y-43275D01*
X65025Y-43275D02*
X65475Y-43275D01*
X81025Y-43250D02*
X85150Y-43250D01*
X78000Y-43250D02*
X78975Y-43250D01*
X69000Y-43250D02*
X71000Y-43250D01*
X65025Y-43250D02*
X65500Y-43250D01*
X81025Y-43225D02*
X85150Y-43225D01*
X78025Y-43225D02*
X78975Y-43225D01*
X69025Y-43225D02*
X70975Y-43225D01*
X65025Y-43225D02*
X65525Y-43225D01*
X81025Y-43200D02*
X85150Y-43200D01*
X78050Y-43200D02*
X78975Y-43200D01*
X69025Y-43200D02*
X70975Y-43200D01*
X65025Y-43200D02*
X65550Y-43200D01*
X81025Y-43175D02*
X85150Y-43175D01*
X78075Y-43175D02*
X78975Y-43175D01*
X69025Y-43175D02*
X70975Y-43175D01*
X65025Y-43175D02*
X65575Y-43175D01*
X81050Y-43150D02*
X85150Y-43150D01*
X78100Y-43150D02*
X78975Y-43150D01*
X69050Y-43150D02*
X70950Y-43150D01*
X65025Y-43150D02*
X65600Y-43150D01*
X81050Y-43125D02*
X85150Y-43125D01*
X78125Y-43125D02*
X78975Y-43125D01*
X69050Y-43125D02*
X70950Y-43125D01*
X65025Y-43125D02*
X65625Y-43125D01*
X81050Y-43100D02*
X85150Y-43100D01*
X78150Y-43100D02*
X78975Y-43100D01*
X69050Y-43100D02*
X70950Y-43100D01*
X65025Y-43100D02*
X65650Y-43100D01*
X81050Y-43075D02*
X85150Y-43075D01*
X78175Y-43075D02*
X78975Y-43075D01*
X69050Y-43075D02*
X70950Y-43075D01*
X65025Y-43075D02*
X65675Y-43075D01*
X81050Y-43050D02*
X85150Y-43050D01*
X78200Y-43050D02*
X78975Y-43050D01*
X69050Y-43050D02*
X70950Y-43050D01*
X65025Y-43050D02*
X65700Y-43050D01*
X81050Y-43025D02*
X85150Y-43025D01*
X78225Y-43025D02*
X78975Y-43025D01*
X69050Y-43025D02*
X70950Y-43025D01*
X65025Y-43025D02*
X65725Y-43025D01*
X84775Y-43000D02*
X85150Y-43000D01*
X82200Y-43000D02*
X83225Y-43000D01*
X81050Y-43000D02*
X81800Y-43000D01*
X78250Y-43000D02*
X78975Y-43000D01*
X69050Y-43000D02*
X70950Y-43000D01*
X65025Y-43000D02*
X65750Y-43000D01*
X84775Y-42975D02*
X85150Y-42975D01*
X82275Y-42975D02*
X83225Y-42975D01*
X81050Y-42975D02*
X81725Y-42975D01*
X78275Y-42975D02*
X78975Y-42975D01*
X69050Y-42975D02*
X70950Y-42975D01*
X65025Y-42975D02*
X65775Y-42975D01*
X84775Y-42950D02*
X85150Y-42950D01*
X82350Y-42950D02*
X83225Y-42950D01*
X81050Y-42950D02*
X81650Y-42950D01*
X78300Y-42950D02*
X78975Y-42950D01*
X69050Y-42950D02*
X70950Y-42950D01*
X65025Y-42950D02*
X65800Y-42950D01*
X84775Y-42925D02*
X85150Y-42925D01*
X82400Y-42925D02*
X83225Y-42925D01*
X81050Y-42925D02*
X81600Y-42925D01*
X78325Y-42925D02*
X78975Y-42925D01*
X69050Y-42925D02*
X70950Y-42925D01*
X65025Y-42925D02*
X65825Y-42925D01*
X84775Y-42900D02*
X85150Y-42900D01*
X82425Y-42900D02*
X83225Y-42900D01*
X81050Y-42900D02*
X81575Y-42900D01*
X78350Y-42900D02*
X78975Y-42900D01*
X69050Y-42900D02*
X70950Y-42900D01*
X65025Y-42900D02*
X65850Y-42900D01*
X84775Y-42875D02*
X85150Y-42875D01*
X82475Y-42875D02*
X83225Y-42875D01*
X81050Y-42875D02*
X81525Y-42875D01*
X78375Y-42875D02*
X78975Y-42875D01*
X69050Y-42875D02*
X70950Y-42875D01*
X65025Y-42875D02*
X65875Y-42875D01*
X84775Y-42850D02*
X85150Y-42850D01*
X82500Y-42850D02*
X83225Y-42850D01*
X81050Y-42850D02*
X81500Y-42850D01*
X78400Y-42850D02*
X78975Y-42850D01*
X69050Y-42850D02*
X70950Y-42850D01*
X65025Y-42850D02*
X65900Y-42850D01*
X84775Y-42825D02*
X85150Y-42825D01*
X82525Y-42825D02*
X83225Y-42825D01*
X81025Y-42825D02*
X81475Y-42825D01*
X78425Y-42825D02*
X78975Y-42825D01*
X69025Y-42825D02*
X70975Y-42825D01*
X65025Y-42825D02*
X65925Y-42825D01*
X84775Y-42800D02*
X85150Y-42800D01*
X82550Y-42800D02*
X83225Y-42800D01*
X81025Y-42800D02*
X81450Y-42800D01*
X78450Y-42800D02*
X78975Y-42800D01*
X69025Y-42800D02*
X70975Y-42800D01*
X65025Y-42800D02*
X65950Y-42800D01*
X84775Y-42775D02*
X85150Y-42775D01*
X82575Y-42775D02*
X83225Y-42775D01*
X81025Y-42775D02*
X81425Y-42775D01*
X78475Y-42775D02*
X78975Y-42775D01*
X69025Y-42775D02*
X70975Y-42775D01*
X65025Y-42775D02*
X65975Y-42775D01*
X84775Y-42750D02*
X85150Y-42750D01*
X82600Y-42750D02*
X83225Y-42750D01*
X81025Y-42750D02*
X81400Y-42750D01*
X78500Y-42750D02*
X78975Y-42750D01*
X69000Y-42750D02*
X71000Y-42750D01*
X65025Y-42750D02*
X66000Y-42750D01*
X84775Y-42725D02*
X85150Y-42725D01*
X82625Y-42725D02*
X83225Y-42725D01*
X81025Y-42725D02*
X81375Y-42725D01*
X78525Y-42725D02*
X78975Y-42725D01*
X69000Y-42725D02*
X71000Y-42725D01*
X65025Y-42725D02*
X66000Y-42725D01*
X84775Y-42700D02*
X85150Y-42700D01*
X82650Y-42700D02*
X83225Y-42700D01*
X81025Y-42700D02*
X81350Y-42700D01*
X78550Y-42700D02*
X78975Y-42700D01*
X68975Y-42700D02*
X71025Y-42700D01*
X65025Y-42700D02*
X66025Y-42700D01*
X84775Y-42675D02*
X85150Y-42675D01*
X82650Y-42675D02*
X83225Y-42675D01*
X81025Y-42675D02*
X81350Y-42675D01*
X78575Y-42675D02*
X78975Y-42675D01*
X68950Y-42675D02*
X71050Y-42675D01*
X65025Y-42675D02*
X66050Y-42675D01*
X84775Y-42650D02*
X85150Y-42650D01*
X82675Y-42650D02*
X83225Y-42650D01*
X81025Y-42650D02*
X81325Y-42650D01*
X78600Y-42650D02*
X78975Y-42650D01*
X68925Y-42650D02*
X71075Y-42650D01*
X65025Y-42650D02*
X66075Y-42650D01*
X84775Y-42625D02*
X85150Y-42625D01*
X82700Y-42625D02*
X83225Y-42625D01*
X81025Y-42625D02*
X81300Y-42625D01*
X78625Y-42625D02*
X78975Y-42625D01*
X68925Y-42625D02*
X71075Y-42625D01*
X65025Y-42625D02*
X66075Y-42625D01*
X84775Y-42600D02*
X85150Y-42600D01*
X82700Y-42600D02*
X83225Y-42600D01*
X81025Y-42600D02*
X81300Y-42600D01*
X68900Y-42600D02*
X71100Y-42600D01*
X65025Y-42600D02*
X66100Y-42600D01*
X84775Y-42575D02*
X85150Y-42575D01*
X82725Y-42575D02*
X83225Y-42575D01*
X81025Y-42575D02*
X81275Y-42575D01*
X68850Y-42575D02*
X71150Y-42575D01*
X65025Y-42575D02*
X66150Y-42575D01*
X84775Y-42550D02*
X85150Y-42550D01*
X82725Y-42550D02*
X83225Y-42550D01*
X81025Y-42550D02*
X81275Y-42550D01*
X68825Y-42550D02*
X71175Y-42550D01*
X65025Y-42550D02*
X66175Y-42550D01*
X84775Y-42525D02*
X85150Y-42525D01*
X82725Y-42525D02*
X83225Y-42525D01*
X81025Y-42525D02*
X81275Y-42525D01*
X69050Y-42525D02*
X71200Y-42525D01*
X65025Y-42525D02*
X66200Y-42525D01*
X84775Y-42500D02*
X85150Y-42500D01*
X82750Y-42500D02*
X83225Y-42500D01*
X81025Y-42500D02*
X81250Y-42500D01*
X69050Y-42500D02*
X71250Y-42500D01*
X65025Y-42500D02*
X66250Y-42500D01*
X84775Y-42475D02*
X85150Y-42475D01*
X82750Y-42475D02*
X83225Y-42475D01*
X81025Y-42475D02*
X81250Y-42475D01*
X71800Y-42475D02*
X72275Y-42475D01*
X69050Y-42475D02*
X71200Y-42475D01*
X66675Y-42475D02*
X67200Y-42475D01*
X65025Y-42475D02*
X66325Y-42475D01*
X84775Y-42450D02*
X85150Y-42450D01*
X82750Y-42450D02*
X83225Y-42450D01*
X81025Y-42450D02*
X81250Y-42450D01*
X71825Y-42450D02*
X72225Y-42450D01*
X69050Y-42450D02*
X71175Y-42450D01*
X65025Y-42450D02*
X67175Y-42450D01*
X84775Y-42425D02*
X85150Y-42425D01*
X82775Y-42425D02*
X83225Y-42425D01*
X81025Y-42425D02*
X81225Y-42425D01*
X71850Y-42425D02*
X72175Y-42425D01*
X69050Y-42425D02*
X71150Y-42425D01*
X65025Y-42425D02*
X67150Y-42425D01*
X84775Y-42400D02*
X85150Y-42400D01*
X82775Y-42400D02*
X83225Y-42400D01*
X81025Y-42400D02*
X81225Y-42400D01*
X71900Y-42400D02*
X72150Y-42400D01*
X69050Y-42400D02*
X71100Y-42400D01*
X65025Y-42400D02*
X67100Y-42400D01*
X84775Y-42375D02*
X85150Y-42375D01*
X82775Y-42375D02*
X83225Y-42375D01*
X81025Y-42375D02*
X81225Y-42375D01*
X71925Y-42375D02*
X72125Y-42375D01*
X69050Y-42375D02*
X71075Y-42375D01*
X65025Y-42375D02*
X67075Y-42375D01*
X84775Y-42350D02*
X85150Y-42350D01*
X82775Y-42350D02*
X83225Y-42350D01*
X81025Y-42350D02*
X81225Y-42350D01*
X71925Y-42350D02*
X72100Y-42350D01*
X69050Y-42350D02*
X71075Y-42350D01*
X65025Y-42350D02*
X67075Y-42350D01*
X84775Y-42325D02*
X85150Y-42325D01*
X82775Y-42325D02*
X83225Y-42325D01*
X81050Y-42325D02*
X81225Y-42325D01*
X71950Y-42325D02*
X72075Y-42325D01*
X69050Y-42325D02*
X71050Y-42325D01*
X65025Y-42325D02*
X67050Y-42325D01*
X84775Y-42300D02*
X85150Y-42300D01*
X82775Y-42300D02*
X83225Y-42300D01*
X81050Y-42300D02*
X81225Y-42300D01*
X71975Y-42300D02*
X72050Y-42300D01*
X69050Y-42300D02*
X71025Y-42300D01*
X65025Y-42300D02*
X67025Y-42300D01*
X84775Y-42275D02*
X85150Y-42275D01*
X82775Y-42275D02*
X83225Y-42275D01*
X81075Y-42275D02*
X81225Y-42275D01*
X72000Y-42275D02*
X72050Y-42275D01*
X69050Y-42275D02*
X71000Y-42275D01*
X65025Y-42275D02*
X67000Y-42275D01*
X84775Y-42250D02*
X85150Y-42250D01*
X82775Y-42250D02*
X83225Y-42250D01*
X81075Y-42250D02*
X81225Y-42250D01*
X72000Y-42250D02*
X72025Y-42250D01*
X69050Y-42250D02*
X71000Y-42250D01*
X65025Y-42250D02*
X67000Y-42250D01*
X84775Y-42225D02*
X85150Y-42225D01*
X82775Y-42225D02*
X83225Y-42225D01*
X81100Y-42225D02*
X81225Y-42225D01*
X69050Y-42225D02*
X70975Y-42225D01*
X65025Y-42225D02*
X66975Y-42225D01*
X84775Y-42200D02*
X85150Y-42200D01*
X82775Y-42200D02*
X83225Y-42200D01*
X81100Y-42200D02*
X81225Y-42200D01*
X69050Y-42200D02*
X70975Y-42200D01*
X65025Y-42200D02*
X66975Y-42200D01*
X84775Y-42175D02*
X85150Y-42175D01*
X82775Y-42175D02*
X83225Y-42175D01*
X81100Y-42175D02*
X81225Y-42175D01*
X69050Y-42175D02*
X70975Y-42175D01*
X65025Y-42175D02*
X66975Y-42175D01*
X84775Y-42150D02*
X85150Y-42150D01*
X82775Y-42150D02*
X83225Y-42150D01*
X81125Y-42150D02*
X81225Y-42150D01*
X69050Y-42150D02*
X70950Y-42150D01*
X65050Y-42150D02*
X66950Y-42150D01*
X84775Y-42125D02*
X85150Y-42125D01*
X82775Y-42125D02*
X83225Y-42125D01*
X81125Y-42125D02*
X81225Y-42125D01*
X69050Y-42125D02*
X70950Y-42125D01*
X65050Y-42125D02*
X66950Y-42125D01*
X84775Y-42100D02*
X85150Y-42100D01*
X82775Y-42100D02*
X83225Y-42100D01*
X81125Y-42100D02*
X81225Y-42100D01*
X69050Y-42100D02*
X70950Y-42100D01*
X65050Y-42100D02*
X66950Y-42100D01*
X84775Y-42075D02*
X85150Y-42075D01*
X82775Y-42075D02*
X83225Y-42075D01*
X81125Y-42075D02*
X81225Y-42075D01*
X69050Y-42075D02*
X70950Y-42075D01*
X65050Y-42075D02*
X66950Y-42075D01*
X84775Y-42050D02*
X85150Y-42050D01*
X82750Y-42050D02*
X83225Y-42050D01*
X81125Y-42050D02*
X81250Y-42050D01*
X69050Y-42050D02*
X70950Y-42050D01*
X65050Y-42050D02*
X66950Y-42050D01*
X84775Y-42025D02*
X85150Y-42025D01*
X82750Y-42025D02*
X83225Y-42025D01*
X81125Y-42025D02*
X81250Y-42025D01*
X69050Y-42025D02*
X70950Y-42025D01*
X65050Y-42025D02*
X66950Y-42025D01*
X84775Y-42000D02*
X85150Y-42000D01*
X82750Y-42000D02*
X83225Y-42000D01*
X81125Y-42000D02*
X81250Y-42000D01*
X69050Y-42000D02*
X70950Y-42000D01*
X65050Y-42000D02*
X66950Y-42000D01*
X84775Y-41975D02*
X85150Y-41975D01*
X82725Y-41975D02*
X83225Y-41975D01*
X81125Y-41975D02*
X81225Y-41975D01*
X69050Y-41975D02*
X70950Y-41975D01*
X65050Y-41975D02*
X66950Y-41975D01*
X84775Y-41950D02*
X85150Y-41950D01*
X82725Y-41950D02*
X83225Y-41950D01*
X81125Y-41950D02*
X81200Y-41950D01*
X69050Y-41950D02*
X70950Y-41950D01*
X65050Y-41950D02*
X66950Y-41950D01*
X84775Y-41925D02*
X85150Y-41925D01*
X82725Y-41925D02*
X83225Y-41925D01*
X81125Y-41925D02*
X81175Y-41925D01*
X69050Y-41925D02*
X70950Y-41925D01*
X65050Y-41925D02*
X66950Y-41925D01*
X84775Y-41900D02*
X85150Y-41900D01*
X82700Y-41900D02*
X83225Y-41900D01*
X81125Y-41900D02*
X81150Y-41900D01*
X69050Y-41900D02*
X70950Y-41900D01*
X65050Y-41900D02*
X66950Y-41900D01*
X84775Y-41875D02*
X85150Y-41875D01*
X82700Y-41875D02*
X83225Y-41875D01*
X69050Y-41875D02*
X70950Y-41875D01*
X65050Y-41875D02*
X66950Y-41875D01*
X84775Y-41850D02*
X85150Y-41850D01*
X82675Y-41850D02*
X83225Y-41850D01*
X69050Y-41850D02*
X70950Y-41850D01*
X65050Y-41850D02*
X66950Y-41850D01*
X84775Y-41825D02*
X85150Y-41825D01*
X82650Y-41825D02*
X83225Y-41825D01*
X69050Y-41825D02*
X70975Y-41825D01*
X65025Y-41825D02*
X66975Y-41825D01*
X84775Y-41800D02*
X85150Y-41800D01*
X82650Y-41800D02*
X83225Y-41800D01*
X69050Y-41800D02*
X70975Y-41800D01*
X65025Y-41800D02*
X66975Y-41800D01*
X84775Y-41775D02*
X85150Y-41775D01*
X82625Y-41775D02*
X83225Y-41775D01*
X69050Y-41775D02*
X70975Y-41775D01*
X65025Y-41775D02*
X66975Y-41775D01*
X84775Y-41750D02*
X85150Y-41750D01*
X82600Y-41750D02*
X83225Y-41750D01*
X72000Y-41750D02*
X72025Y-41750D01*
X69050Y-41750D02*
X71000Y-41750D01*
X65000Y-41750D02*
X67000Y-41750D01*
X84775Y-41725D02*
X85150Y-41725D01*
X82575Y-41725D02*
X83225Y-41725D01*
X72000Y-41725D02*
X72050Y-41725D01*
X69050Y-41725D02*
X71000Y-41725D01*
X65000Y-41725D02*
X67000Y-41725D01*
X84775Y-41700D02*
X85150Y-41700D01*
X82550Y-41700D02*
X83225Y-41700D01*
X71975Y-41700D02*
X72050Y-41700D01*
X69050Y-41700D02*
X71025Y-41700D01*
X64975Y-41700D02*
X67025Y-41700D01*
X84775Y-41675D02*
X85150Y-41675D01*
X82525Y-41675D02*
X83225Y-41675D01*
X71950Y-41675D02*
X72075Y-41675D01*
X69050Y-41675D02*
X71050Y-41675D01*
X64950Y-41675D02*
X67050Y-41675D01*
X64025Y-41675D02*
X64050Y-41675D01*
X84775Y-41650D02*
X85150Y-41650D01*
X82500Y-41650D02*
X83225Y-41650D01*
X71925Y-41650D02*
X72100Y-41650D01*
X69050Y-41650D02*
X71075Y-41650D01*
X64925Y-41650D02*
X67075Y-41650D01*
X64025Y-41650D02*
X64075Y-41650D01*
X84775Y-41625D02*
X85150Y-41625D01*
X82475Y-41625D02*
X83225Y-41625D01*
X71925Y-41625D02*
X72125Y-41625D01*
X69050Y-41625D02*
X71075Y-41625D01*
X64925Y-41625D02*
X67075Y-41625D01*
X64025Y-41625D02*
X64075Y-41625D01*
X84775Y-41600D02*
X85150Y-41600D01*
X82425Y-41600D02*
X83225Y-41600D01*
X71900Y-41600D02*
X72150Y-41600D01*
X69050Y-41600D02*
X71100Y-41600D01*
X64900Y-41600D02*
X67100Y-41600D01*
X64000Y-41600D02*
X64100Y-41600D01*
X84775Y-41575D02*
X85150Y-41575D01*
X82400Y-41575D02*
X83225Y-41575D01*
X71850Y-41575D02*
X72175Y-41575D01*
X69050Y-41575D02*
X71150Y-41575D01*
X64850Y-41575D02*
X67150Y-41575D01*
X64000Y-41575D02*
X64150Y-41575D01*
X84775Y-41550D02*
X85150Y-41550D01*
X82350Y-41550D02*
X83225Y-41550D01*
X71825Y-41550D02*
X72225Y-41550D01*
X69050Y-41550D02*
X71175Y-41550D01*
X64825Y-41550D02*
X67175Y-41550D01*
X64000Y-41550D02*
X64175Y-41550D01*
X84775Y-41525D02*
X85150Y-41525D01*
X82275Y-41525D02*
X83225Y-41525D01*
X71800Y-41525D02*
X72275Y-41525D01*
X69050Y-41525D02*
X71200Y-41525D01*
X64800Y-41525D02*
X67200Y-41525D01*
X63975Y-41525D02*
X64200Y-41525D01*
X84775Y-41500D02*
X85150Y-41500D01*
X82250Y-41500D02*
X83225Y-41500D01*
X71750Y-41500D02*
X72325Y-41500D01*
X69050Y-41500D02*
X71250Y-41500D01*
X64750Y-41500D02*
X67250Y-41500D01*
X63975Y-41500D02*
X64250Y-41500D01*
X82225Y-41475D02*
X85150Y-41475D01*
X71675Y-41475D02*
X73125Y-41475D01*
X69050Y-41475D02*
X71325Y-41475D01*
X67675Y-41475D02*
X67950Y-41475D01*
X64675Y-41475D02*
X67325Y-41475D01*
X63950Y-41475D02*
X64325Y-41475D01*
X82200Y-41450D02*
X85150Y-41450D01*
X63925Y-41450D02*
X73125Y-41450D01*
X82175Y-41425D02*
X85150Y-41425D01*
X63925Y-41425D02*
X73125Y-41425D01*
X82150Y-41400D02*
X85150Y-41400D01*
X63900Y-41400D02*
X73125Y-41400D01*
X82125Y-41375D02*
X85150Y-41375D01*
X63875Y-41375D02*
X73525Y-41375D01*
X82100Y-41350D02*
X85150Y-41350D01*
X63875Y-41350D02*
X73550Y-41350D01*
X82075Y-41325D02*
X85150Y-41325D01*
X63900Y-41325D02*
X73550Y-41325D01*
X82050Y-41300D02*
X85150Y-41300D01*
X63950Y-41300D02*
X73575Y-41300D01*
X82025Y-41275D02*
X85150Y-41275D01*
X63975Y-41275D02*
X73600Y-41275D01*
X82000Y-41250D02*
X85150Y-41250D01*
X64000Y-41250D02*
X73600Y-41250D01*
X81975Y-41225D02*
X85150Y-41225D01*
X64025Y-41225D02*
X73625Y-41225D01*
X81950Y-41200D02*
X85150Y-41200D01*
X64050Y-41200D02*
X73650Y-41200D01*
X81925Y-41175D02*
X85150Y-41175D01*
X64075Y-41175D02*
X73650Y-41175D01*
X81900Y-41150D02*
X85150Y-41150D01*
X64075Y-41150D02*
X73675Y-41150D01*
X81875Y-41125D02*
X85150Y-41125D01*
X64100Y-41125D02*
X73700Y-41125D01*
X81850Y-41100D02*
X85150Y-41100D01*
X64100Y-41100D02*
X73700Y-41100D01*
M02*
