M48
INCH,TZ
T12C0.020
T18C0.038
T19C0.028
T20C0.042
T21C0.056
%
T12
X028000Y009000
T19
X007500Y006000
X007500Y005000
X007500Y009000
X007500Y008000
X007500Y007000
X007500Y004000
X007500Y003000
X007500Y002000
X010500Y002000
X010500Y003000
X010500Y004000
X010500Y005000
X010500Y006000
X010500Y007000
X010500Y008000
X010500Y009000
T18
X002500Y002000
X006500Y002000
X002500Y005000
X001500Y006000
X001500Y005000
X001500Y004000
X002500Y006000
X002500Y009000
X006500Y005000
X006500Y006000
X006500Y009000
X011500Y008000
X015500Y008000
X015500Y007000
X011500Y007000
X011500Y006000
X015500Y006000
X015500Y005000
X011500Y005000
X021500Y007500
X025500Y007500
X025500Y004000
X025500Y005000
X025500Y006000
X021500Y004000
X021500Y005000
X021500Y006000
T20
X017000Y005000
X017000Y004000
X017000Y003000
X017000Y006500
X017000Y007500
X017000Y008500
X020000Y005000
X020000Y006500
X020000Y007500
X020000Y008500
X020000Y004000
X020000Y003000
T21
X028000Y009000
X028000Y007000
X028000Y004000
X028000Y002000
M30
